mtllib causality_iris_glow.mtl
o causality_iris_glow
v 0.000000 -30.000000 8.100000
v 0.000000 -30.000000 8.100000
v 0.000000 -30.000000 8.100000
v 0.000000 -30.000000 8.100000
v 0.000000 -30.000000 8.100000
v 0.000000 -30.000000 8.100000
v 0.000000 -30.000000 8.100000
v 0.000000 -30.000000 8.100000
v 0.000000 -30.000000 8.100000
v 0.000000 -30.000000 8.100000
v 0.000000 -30.000000 8.100000
v 0.000000 -30.000000 8.100000
v 0.000000 -30.000000 8.100000
v 0.000000 -30.000000 8.100000
v 0.000000 -30.000000 8.100000
v 0.000000 -30.000000 8.100000
v 0.000000 -30.000000 8.100000
v -0.000000 -30.000000 8.100000
v -0.000000 -30.000000 8.100000
v -0.000000 -30.000000 8.100000
v -0.000000 -30.000000 8.100000
v -0.000000 -30.000000 8.100000
v -0.000000 -30.000000 8.100000
v -0.000000 -30.000000 8.100000
v -0.000000 -30.000000 8.100000
v -0.000000 -30.000000 8.100000
v -0.000000 -30.000000 8.100000
v -0.000000 -30.000000 8.100000
v -0.000000 -30.000000 8.100000
v -0.000000 -30.000000 8.100000
v -0.000000 -30.000000 8.100000
v -0.000000 -30.000000 8.100000
v -0.000000 -30.000000 8.100000
v -0.000000 -30.000000 8.100000
v -0.000000 -30.000000 8.100000
v -0.000000 -30.000000 8.100000
v -0.000000 -30.000000 8.100000
v -0.000000 -30.000000 8.100000
v -0.000000 -30.000000 8.100000
v -0.000000 -30.000000 8.100000
v -0.000000 -30.000000 8.100000
v -0.000000 -30.000000 8.100000
v -0.000000 -30.000000 8.100000
v -0.000000 -30.000000 8.100000
v -0.000000 -30.000000 8.100000
v -0.000000 -30.000000 8.100000
v -0.000000 -30.000000 8.100000
v -0.000000 -30.000000 8.100000
v -0.000000 -30.000000 8.100000
v 0.000000 -30.000000 8.100000
v 0.000000 -30.000000 8.100000
v 0.000000 -30.000000 8.100000
v 0.000000 -30.000000 8.100000
v 0.000000 -30.000000 8.100000
v 0.000000 -30.000000 8.100000
v 0.000000 -30.000000 8.100000
v 0.000000 -30.000000 8.100000
v 0.000000 -30.000000 8.100000
v 0.000000 -30.000000 8.100000
v 0.000000 -30.000000 8.100000
v 0.000000 -30.000000 8.100000
v 0.000000 -30.000000 8.100000
v 0.000000 -30.000000 8.100000
v 0.000000 -30.000000 8.100000
v 0.000000 -30.000000 8.100000
v 1.000000 -30.000000 8.100000
v 0.995185 -29.901983 8.100000
v 0.980785 -29.804910 8.100000
v 0.956940 -29.709715 8.100000
v 0.923880 -29.617317 8.100000
v 0.881921 -29.528603 8.100000
v 0.831470 -29.444430 8.100000
v 0.773010 -29.365607 8.100000
v 0.707107 -29.292893 8.100000
v 0.634393 -29.226990 8.100000
v 0.555570 -29.168530 8.100000
v 0.471397 -29.118079 8.100000
v 0.382683 -29.076120 8.100000
v 0.290285 -29.043060 8.100000
v 0.195090 -29.019215 8.100000
v 0.098017 -29.004815 8.100000
v 0.000000 -29.000000 8.100000
v -0.098017 -29.004815 8.100000
v -0.195090 -29.019215 8.100000
v -0.290285 -29.043060 8.100000
v -0.382683 -29.076120 8.100000
v -0.471397 -29.118079 8.100000
v -0.555570 -29.168530 8.100000
v -0.634393 -29.226990 8.100000
v -0.707107 -29.292893 8.100000
v -0.773010 -29.365607 8.100000
v -0.831470 -29.444430 8.100000
v -0.881921 -29.528603 8.100000
v -0.923880 -29.617317 8.100000
v -0.956940 -29.709715 8.100000
v -0.980785 -29.804910 8.100000
v -0.995185 -29.901983 8.100000
v -1.000000 -30.000000 8.100000
v -0.995185 -30.098017 8.100000
v -0.980785 -30.195090 8.100000
v -0.956940 -30.290285 8.100000
v -0.923880 -30.382683 8.100000
v -0.881921 -30.471397 8.100000
v -0.831470 -30.555570 8.100000
v -0.773010 -30.634393 8.100000
v -0.707107 -30.707107 8.100000
v -0.634393 -30.773010 8.100000
v -0.555570 -30.831470 8.100000
v -0.471397 -30.881921 8.100000
v -0.382683 -30.923880 8.100000
v -0.290285 -30.956940 8.100000
v -0.195090 -30.980785 8.100000
v -0.098017 -30.995185 8.100000
v -0.000000 -31.000000 8.100000
v 0.098017 -30.995185 8.100000
v 0.195090 -30.980785 8.100000
v 0.290285 -30.956940 8.100000
v 0.382683 -30.923880 8.100000
v 0.471397 -30.881921 8.100000
v 0.555570 -30.831470 8.100000
v 0.634393 -30.773010 8.100000
v 0.707107 -30.707107 8.100000
v 0.773010 -30.634393 8.100000
v 0.831470 -30.555570 8.100000
v 0.881921 -30.471397 8.100000
v 0.923880 -30.382683 8.100000
v 0.956940 -30.290285 8.100000
v 0.980785 -30.195090 8.100000
v 0.995185 -30.098017 8.100000
v 1.000000 -30.000000 8.100000
v 2.000000 -30.000000 8.100000
v 1.990369 -29.803966 8.100000
v 1.961571 -29.609819 8.100000
v 1.913881 -29.419431 8.100000
v 1.847759 -29.234633 8.100000
v 1.763843 -29.057207 8.100000
v 1.662939 -28.888860 8.100000
v 1.546021 -28.731213 8.100000
v 1.414214 -28.585786 8.100000
v 1.268787 -28.453979 8.100000
v 1.111140 -28.337061 8.100000
v 0.942793 -28.236157 8.100000
v 0.765367 -28.152241 8.100000
v 0.580569 -28.086119 8.100000
v 0.390181 -28.038429 8.100000
v 0.196034 -28.009631 8.100000
v 0.000000 -28.000000 8.100000
v -0.196034 -28.009631 8.100000
v -0.390181 -28.038429 8.100000
v -0.580569 -28.086119 8.100000
v -0.765367 -28.152241 8.100000
v -0.942793 -28.236157 8.100000
v -1.111140 -28.337061 8.100000
v -1.268787 -28.453979 8.100000
v -1.414214 -28.585786 8.100000
v -1.546021 -28.731213 8.100000
v -1.662939 -28.888860 8.100000
v -1.763843 -29.057207 8.100000
v -1.847759 -29.234633 8.100000
v -1.913881 -29.419431 8.100000
v -1.961571 -29.609819 8.100000
v -1.990369 -29.803966 8.100000
v -2.000000 -30.000000 8.100000
v -1.990369 -30.196034 8.100000
v -1.961571 -30.390181 8.100000
v -1.913881 -30.580569 8.100000
v -1.847759 -30.765367 8.100000
v -1.763843 -30.942793 8.100000
v -1.662939 -31.111140 8.100000
v -1.546021 -31.268787 8.100000
v -1.414214 -31.414214 8.100000
v -1.268787 -31.546021 8.100000
v -1.111140 -31.662939 8.100000
v -0.942793 -31.763843 8.100000
v -0.765367 -31.847759 8.100000
v -0.580569 -31.913881 8.100000
v -0.390181 -31.961571 8.100000
v -0.196034 -31.990369 8.100000
v -0.000000 -32.000000 8.100000
v 0.196034 -31.990369 8.100000
v 0.390181 -31.961571 8.100000
v 0.580569 -31.913881 8.100000
v 0.765367 -31.847759 8.100000
v 0.942793 -31.763843 8.100000
v 1.111140 -31.662939 8.100000
v 1.268787 -31.546021 8.100000
v 1.414214 -31.414214 8.100000
v 1.546021 -31.268787 8.100000
v 1.662939 -31.111140 8.100000
v 1.763843 -30.942793 8.100000
v 1.847759 -30.765367 8.100000
v 1.913881 -30.580569 8.100000
v 1.961571 -30.390181 8.100000
v 1.990369 -30.196034 8.100000
v 2.000000 -30.000000 8.100000
v 3.000000 -30.000000 8.100000
v 2.985554 -29.705949 8.100000
v 2.942356 -29.414729 8.100000
v 2.870821 -29.129146 8.100000
v 2.771639 -28.851950 8.100000
v 2.645764 -28.585810 8.100000
v 2.494409 -28.333289 8.100000
v 2.319031 -28.096820 8.100000
v 2.121320 -27.878680 8.100000
v 1.903180 -27.680969 8.100000
v 1.666711 -27.505591 8.100000
v 1.414190 -27.354236 8.100000
v 1.148050 -27.228361 8.100000
v 0.870854 -27.129179 8.100000
v 0.585271 -27.057644 8.100000
v 0.294051 -27.014446 8.100000
v 0.000000 -27.000000 8.100000
v -0.294051 -27.014446 8.100000
v -0.585271 -27.057644 8.100000
v -0.870854 -27.129179 8.100000
v -1.148050 -27.228361 8.100000
v -1.414190 -27.354236 8.100000
v -1.666711 -27.505591 8.100000
v -1.903180 -27.680969 8.100000
v -2.121320 -27.878680 8.100000
v -2.319031 -28.096820 8.100000
v -2.494409 -28.333289 8.100000
v -2.645764 -28.585810 8.100000
v -2.771639 -28.851950 8.100000
v -2.870821 -29.129146 8.100000
v -2.942356 -29.414729 8.100000
v -2.985554 -29.705949 8.100000
v -3.000000 -30.000000 8.100000
v -2.985554 -30.294051 8.100000
v -2.942356 -30.585271 8.100000
v -2.870821 -30.870854 8.100000
v -2.771639 -31.148050 8.100000
v -2.645764 -31.414190 8.100000
v -2.494409 -31.666711 8.100000
v -2.319031 -31.903180 8.100000
v -2.121320 -32.121320 8.100000
v -1.903180 -32.319031 8.100000
v -1.666711 -32.494409 8.100000
v -1.414190 -32.645764 8.100000
v -1.148050 -32.771639 8.100000
v -0.870854 -32.870821 8.100000
v -0.585271 -32.942356 8.100000
v -0.294051 -32.985554 8.100000
v -0.000000 -33.000000 8.100000
v 0.294051 -32.985554 8.100000
v 0.585271 -32.942356 8.100000
v 0.870854 -32.870821 8.100000
v 1.148050 -32.771639 8.100000
v 1.414190 -32.645764 8.100000
v 1.666711 -32.494409 8.100000
v 1.903180 -32.319031 8.100000
v 2.121320 -32.121320 8.100000
v 2.319031 -31.903180 8.100000
v 2.494409 -31.666711 8.100000
v 2.645764 -31.414190 8.100000
v 2.771639 -31.148050 8.100000
v 2.870821 -30.870854 8.100000
v 2.942356 -30.585271 8.100000
v 2.985554 -30.294051 8.100000
v 3.000000 -30.000000 8.100000
v 4.000000 -30.000000 8.100000
v 3.980739 -29.607931 8.100000
v 3.923141 -29.219639 8.100000
v 3.827761 -28.838861 8.100000
v 3.695518 -28.469266 8.100000
v 3.527685 -28.114413 8.100000
v 3.325878 -27.777719 8.100000
v 3.092042 -27.462427 8.100000
v 2.828427 -27.171573 8.100000
v 2.537573 -26.907958 8.100000
v 2.222281 -26.674122 8.100000
v 1.885587 -26.472315 8.100000
v 1.530734 -26.304482 8.100000
v 1.161139 -26.172239 8.100000
v 0.780361 -26.076859 8.100000
v 0.392069 -26.019261 8.100000
v 0.000000 -26.000000 8.100000
v -0.392069 -26.019261 8.100000
v -0.780361 -26.076859 8.100000
v -1.161139 -26.172239 8.100000
v -1.530734 -26.304482 8.100000
v -1.885587 -26.472315 8.100000
v -2.222281 -26.674122 8.100000
v -2.537573 -26.907958 8.100000
v -2.828427 -27.171573 8.100000
v -3.092042 -27.462427 8.100000
v -3.325878 -27.777719 8.100000
v -3.527685 -28.114413 8.100000
v -3.695518 -28.469266 8.100000
v -3.827761 -28.838861 8.100000
v -3.923141 -29.219639 8.100000
v -3.980739 -29.607931 8.100000
v -4.000000 -30.000000 8.100000
v -3.980739 -30.392069 8.100000
v -3.923141 -30.780361 8.100000
v -3.827761 -31.161139 8.100000
v -3.695518 -31.530734 8.100000
v -3.527685 -31.885587 8.100000
v -3.325878 -32.222281 8.100000
v -3.092042 -32.537573 8.100000
v -2.828427 -32.828427 8.100000
v -2.537573 -33.092042 8.100000
v -2.222281 -33.325878 8.100000
v -1.885587 -33.527685 8.100000
v -1.530734 -33.695518 8.100000
v -1.161139 -33.827761 8.100000
v -0.780361 -33.923141 8.100000
v -0.392069 -33.980739 8.100000
v -0.000000 -34.000000 8.100000
v 0.392069 -33.980739 8.100000
v 0.780361 -33.923141 8.100000
v 1.161139 -33.827761 8.100000
v 1.530734 -33.695518 8.100000
v 1.885587 -33.527685 8.100000
v 2.222281 -33.325878 8.100000
v 2.537573 -33.092042 8.100000
v 2.828427 -32.828427 8.100000
v 3.092042 -32.537573 8.100000
v 3.325878 -32.222281 8.100000
v 3.527685 -31.885587 8.100000
v 3.695518 -31.530734 8.100000
v 3.827761 -31.161139 8.100000
v 3.923141 -30.780361 8.100000
v 3.980739 -30.392069 8.100000
v 4.000000 -30.000000 8.100000
v 5.000000 -30.000000 8.100000
v 4.975924 -29.509914 8.100000
v 4.903926 -29.024548 8.100000
v 4.784702 -28.548577 8.100000
v 4.619398 -28.086583 8.100000
v 4.409606 -27.643016 8.100000
v 4.157348 -27.222149 8.100000
v 3.865052 -26.828034 8.100000
v 3.535534 -26.464466 8.100000
v 3.171966 -26.134948 8.100000
v 2.777851 -25.842652 8.100000
v 2.356984 -25.590394 8.100000
v 1.913417 -25.380602 8.100000
v 1.451423 -25.215298 8.100000
v 0.975452 -25.096074 8.100000
v 0.490086 -25.024076 8.100000
v 0.000000 -25.000000 8.100000
v -0.490086 -25.024076 8.100000
v -0.975452 -25.096074 8.100000
v -1.451423 -25.215298 8.100000
v -1.913417 -25.380602 8.100000
v -2.356984 -25.590394 8.100000
v -2.777851 -25.842652 8.100000
v -3.171966 -26.134948 8.100000
v -3.535534 -26.464466 8.100000
v -3.865052 -26.828034 8.100000
v -4.157348 -27.222149 8.100000
v -4.409606 -27.643016 8.100000
v -4.619398 -28.086583 8.100000
v -4.784702 -28.548577 8.100000
v -4.903926 -29.024548 8.100000
v -4.975924 -29.509914 8.100000
v -5.000000 -30.000000 8.100000
v -4.975924 -30.490086 8.100000
v -4.903926 -30.975452 8.100000
v -4.784702 -31.451423 8.100000
v -4.619398 -31.913417 8.100000
v -4.409606 -32.356984 8.100000
v -4.157348 -32.777851 8.100000
v -3.865052 -33.171966 8.100000
v -3.535534 -33.535534 8.100000
v -3.171966 -33.865052 8.100000
v -2.777851 -34.157348 8.100000
v -2.356984 -34.409606 8.100000
v -1.913417 -34.619398 8.100000
v -1.451423 -34.784702 8.100000
v -0.975452 -34.903926 8.100000
v -0.490086 -34.975924 8.100000
v -0.000000 -35.000000 8.100000
v 0.490086 -34.975924 8.100000
v 0.975452 -34.903926 8.100000
v 1.451423 -34.784702 8.100000
v 1.913417 -34.619398 8.100000
v 2.356984 -34.409606 8.100000
v 2.777851 -34.157348 8.100000
v 3.171966 -33.865052 8.100000
v 3.535534 -33.535534 8.100000
v 3.865052 -33.171966 8.100000
v 4.157348 -32.777851 8.100000
v 4.409606 -32.356984 8.100000
v 4.619398 -31.913417 8.100000
v 4.784702 -31.451423 8.100000
v 4.903926 -30.975452 8.100000
v 4.975924 -30.490086 8.100000
v 5.000000 -30.000000 8.100000
v 6.000000 -30.000000 8.100000
v 5.971108 -29.411897 8.100000
v 5.884712 -28.829458 8.100000
v 5.741642 -28.258292 8.100000
v 5.543277 -27.703899 8.100000
v 5.291528 -27.171620 8.100000
v 4.988818 -26.666579 8.100000
v 4.638063 -26.193640 8.100000
v 4.242641 -25.757359 8.100000
v 3.806360 -25.361937 8.100000
v 3.333421 -25.011182 8.100000
v 2.828380 -24.708472 8.100000
v 2.296101 -24.456723 8.100000
v 1.741708 -24.258358 8.100000
v 1.170542 -24.115288 8.100000
v 0.588103 -24.028892 8.100000
v 0.000000 -24.000000 8.100000
v -0.588103 -24.028892 8.100000
v -1.170542 -24.115288 8.100000
v -1.741708 -24.258358 8.100000
v -2.296101 -24.456723 8.100000
v -2.828380 -24.708472 8.100000
v -3.333421 -25.011182 8.100000
v -3.806360 -25.361937 8.100000
v -4.242641 -25.757359 8.100000
v -4.638063 -26.193640 8.100000
v -4.988818 -26.666579 8.100000
v -5.291528 -27.171620 8.100000
v -5.543277 -27.703899 8.100000
v -5.741642 -28.258292 8.100000
v -5.884712 -28.829458 8.100000
v -5.971108 -29.411897 8.100000
v -6.000000 -30.000000 8.100000
v -5.971108 -30.588103 8.100000
v -5.884712 -31.170542 8.100000
v -5.741642 -31.741708 8.100000
v -5.543277 -32.296101 8.100000
v -5.291528 -32.828380 8.100000
v -4.988818 -33.333421 8.100000
v -4.638063 -33.806360 8.100000
v -4.242641 -34.242641 8.100000
v -3.806360 -34.638063 8.100000
v -3.333421 -34.988818 8.100000
v -2.828380 -35.291528 8.100000
v -2.296101 -35.543277 8.100000
v -1.741708 -35.741642 8.100000
v -1.170542 -35.884712 8.100000
v -0.588103 -35.971108 8.100000
v -0.000000 -36.000000 8.100000
v 0.588103 -35.971108 8.100000
v 1.170542 -35.884712 8.100000
v 1.741708 -35.741642 8.100000
v 2.296101 -35.543277 8.100000
v 2.828380 -35.291528 8.100000
v 3.333421 -34.988818 8.100000
v 3.806360 -34.638063 8.100000
v 4.242641 -34.242641 8.100000
v 4.638063 -33.806360 8.100000
v 4.988818 -33.333421 8.100000
v 5.291528 -32.828380 8.100000
v 5.543277 -32.296101 8.100000
v 5.741642 -31.741708 8.100000
v 5.884712 -31.170542 8.100000
v 5.971108 -30.588103 8.100000
v 6.000000 -30.000000 8.100000
v 0.000000 30.000000 8.100000
v 0.000000 30.000000 8.100000
v 0.000000 30.000000 8.100000
v 0.000000 30.000000 8.100000
v 0.000000 30.000000 8.100000
v 0.000000 30.000000 8.100000
v 0.000000 30.000000 8.100000
v 0.000000 30.000000 8.100000
v 0.000000 30.000000 8.100000
v 0.000000 30.000000 8.100000
v 0.000000 30.000000 8.100000
v 0.000000 30.000000 8.100000
v 0.000000 30.000000 8.100000
v 0.000000 30.000000 8.100000
v 0.000000 30.000000 8.100000
v 0.000000 30.000000 8.100000
v 0.000000 30.000000 8.100000
v -0.000000 30.000000 8.100000
v -0.000000 30.000000 8.100000
v -0.000000 30.000000 8.100000
v -0.000000 30.000000 8.100000
v -0.000000 30.000000 8.100000
v -0.000000 30.000000 8.100000
v -0.000000 30.000000 8.100000
v -0.000000 30.000000 8.100000
v -0.000000 30.000000 8.100000
v -0.000000 30.000000 8.100000
v -0.000000 30.000000 8.100000
v -0.000000 30.000000 8.100000
v -0.000000 30.000000 8.100000
v -0.000000 30.000000 8.100000
v -0.000000 30.000000 8.100000
v -0.000000 30.000000 8.100000
v -0.000000 30.000000 8.100000
v -0.000000 30.000000 8.100000
v -0.000000 30.000000 8.100000
v -0.000000 30.000000 8.100000
v -0.000000 30.000000 8.100000
v -0.000000 30.000000 8.100000
v -0.000000 30.000000 8.100000
v -0.000000 30.000000 8.100000
v -0.000000 30.000000 8.100000
v -0.000000 30.000000 8.100000
v -0.000000 30.000000 8.100000
v -0.000000 30.000000 8.100000
v -0.000000 30.000000 8.100000
v -0.000000 30.000000 8.100000
v -0.000000 30.000000 8.100000
v -0.000000 30.000000 8.100000
v 0.000000 30.000000 8.100000
v 0.000000 30.000000 8.100000
v 0.000000 30.000000 8.100000
v 0.000000 30.000000 8.100000
v 0.000000 30.000000 8.100000
v 0.000000 30.000000 8.100000
v 0.000000 30.000000 8.100000
v 0.000000 30.000000 8.100000
v 0.000000 30.000000 8.100000
v 0.000000 30.000000 8.100000
v 0.000000 30.000000 8.100000
v 0.000000 30.000000 8.100000
v 0.000000 30.000000 8.100000
v 0.000000 30.000000 8.100000
v 0.000000 30.000000 8.100000
v 0.000000 30.000000 8.100000
v 1.000000 30.000000 8.100000
v 0.995185 30.098017 8.100000
v 0.980785 30.195090 8.100000
v 0.956940 30.290285 8.100000
v 0.923880 30.382683 8.100000
v 0.881921 30.471397 8.100000
v 0.831470 30.555570 8.100000
v 0.773010 30.634393 8.100000
v 0.707107 30.707107 8.100000
v 0.634393 30.773010 8.100000
v 0.555570 30.831470 8.100000
v 0.471397 30.881921 8.100000
v 0.382683 30.923880 8.100000
v 0.290285 30.956940 8.100000
v 0.195090 30.980785 8.100000
v 0.098017 30.995185 8.100000
v 0.000000 31.000000 8.100000
v -0.098017 30.995185 8.100000
v -0.195090 30.980785 8.100000
v -0.290285 30.956940 8.100000
v -0.382683 30.923880 8.100000
v -0.471397 30.881921 8.100000
v -0.555570 30.831470 8.100000
v -0.634393 30.773010 8.100000
v -0.707107 30.707107 8.100000
v -0.773010 30.634393 8.100000
v -0.831470 30.555570 8.100000
v -0.881921 30.471397 8.100000
v -0.923880 30.382683 8.100000
v -0.956940 30.290285 8.100000
v -0.980785 30.195090 8.100000
v -0.995185 30.098017 8.100000
v -1.000000 30.000000 8.100000
v -0.995185 29.901983 8.100000
v -0.980785 29.804910 8.100000
v -0.956940 29.709715 8.100000
v -0.923880 29.617317 8.100000
v -0.881921 29.528603 8.100000
v -0.831470 29.444430 8.100000
v -0.773010 29.365607 8.100000
v -0.707107 29.292893 8.100000
v -0.634393 29.226990 8.100000
v -0.555570 29.168530 8.100000
v -0.471397 29.118079 8.100000
v -0.382683 29.076120 8.100000
v -0.290285 29.043060 8.100000
v -0.195090 29.019215 8.100000
v -0.098017 29.004815 8.100000
v -0.000000 29.000000 8.100000
v 0.098017 29.004815 8.100000
v 0.195090 29.019215 8.100000
v 0.290285 29.043060 8.100000
v 0.382683 29.076120 8.100000
v 0.471397 29.118079 8.100000
v 0.555570 29.168530 8.100000
v 0.634393 29.226990 8.100000
v 0.707107 29.292893 8.100000
v 0.773010 29.365607 8.100000
v 0.831470 29.444430 8.100000
v 0.881921 29.528603 8.100000
v 0.923880 29.617317 8.100000
v 0.956940 29.709715 8.100000
v 0.980785 29.804910 8.100000
v 0.995185 29.901983 8.100000
v 1.000000 30.000000 8.100000
v 2.000000 30.000000 8.100000
v 1.990369 30.196034 8.100000
v 1.961571 30.390181 8.100000
v 1.913881 30.580569 8.100000
v 1.847759 30.765367 8.100000
v 1.763843 30.942793 8.100000
v 1.662939 31.111140 8.100000
v 1.546021 31.268787 8.100000
v 1.414214 31.414214 8.100000
v 1.268787 31.546021 8.100000
v 1.111140 31.662939 8.100000
v 0.942793 31.763843 8.100000
v 0.765367 31.847759 8.100000
v 0.580569 31.913881 8.100000
v 0.390181 31.961571 8.100000
v 0.196034 31.990369 8.100000
v 0.000000 32.000000 8.100000
v -0.196034 31.990369 8.100000
v -0.390181 31.961571 8.100000
v -0.580569 31.913881 8.100000
v -0.765367 31.847759 8.100000
v -0.942793 31.763843 8.100000
v -1.111140 31.662939 8.100000
v -1.268787 31.546021 8.100000
v -1.414214 31.414214 8.100000
v -1.546021 31.268787 8.100000
v -1.662939 31.111140 8.100000
v -1.763843 30.942793 8.100000
v -1.847759 30.765367 8.100000
v -1.913881 30.580569 8.100000
v -1.961571 30.390181 8.100000
v -1.990369 30.196034 8.100000
v -2.000000 30.000000 8.100000
v -1.990369 29.803966 8.100000
v -1.961571 29.609819 8.100000
v -1.913881 29.419431 8.100000
v -1.847759 29.234633 8.100000
v -1.763843 29.057207 8.100000
v -1.662939 28.888860 8.100000
v -1.546021 28.731213 8.100000
v -1.414214 28.585786 8.100000
v -1.268787 28.453979 8.100000
v -1.111140 28.337061 8.100000
v -0.942793 28.236157 8.100000
v -0.765367 28.152241 8.100000
v -0.580569 28.086119 8.100000
v -0.390181 28.038429 8.100000
v -0.196034 28.009631 8.100000
v -0.000000 28.000000 8.100000
v 0.196034 28.009631 8.100000
v 0.390181 28.038429 8.100000
v 0.580569 28.086119 8.100000
v 0.765367 28.152241 8.100000
v 0.942793 28.236157 8.100000
v 1.111140 28.337061 8.100000
v 1.268787 28.453979 8.100000
v 1.414214 28.585786 8.100000
v 1.546021 28.731213 8.100000
v 1.662939 28.888860 8.100000
v 1.763843 29.057207 8.100000
v 1.847759 29.234633 8.100000
v 1.913881 29.419431 8.100000
v 1.961571 29.609819 8.100000
v 1.990369 29.803966 8.100000
v 2.000000 30.000000 8.100000
v 3.000000 30.000000 8.100000
v 2.985554 30.294051 8.100000
v 2.942356 30.585271 8.100000
v 2.870821 30.870854 8.100000
v 2.771639 31.148050 8.100000
v 2.645764 31.414190 8.100000
v 2.494409 31.666711 8.100000
v 2.319031 31.903180 8.100000
v 2.121320 32.121320 8.100000
v 1.903180 32.319031 8.100000
v 1.666711 32.494409 8.100000
v 1.414190 32.645764 8.100000
v 1.148050 32.771639 8.100000
v 0.870854 32.870821 8.100000
v 0.585271 32.942356 8.100000
v 0.294051 32.985554 8.100000
v 0.000000 33.000000 8.100000
v -0.294051 32.985554 8.100000
v -0.585271 32.942356 8.100000
v -0.870854 32.870821 8.100000
v -1.148050 32.771639 8.100000
v -1.414190 32.645764 8.100000
v -1.666711 32.494409 8.100000
v -1.903180 32.319031 8.100000
v -2.121320 32.121320 8.100000
v -2.319031 31.903180 8.100000
v -2.494409 31.666711 8.100000
v -2.645764 31.414190 8.100000
v -2.771639 31.148050 8.100000
v -2.870821 30.870854 8.100000
v -2.942356 30.585271 8.100000
v -2.985554 30.294051 8.100000
v -3.000000 30.000000 8.100000
v -2.985554 29.705949 8.100000
v -2.942356 29.414729 8.100000
v -2.870821 29.129146 8.100000
v -2.771639 28.851950 8.100000
v -2.645764 28.585810 8.100000
v -2.494409 28.333289 8.100000
v -2.319031 28.096820 8.100000
v -2.121320 27.878680 8.100000
v -1.903180 27.680969 8.100000
v -1.666711 27.505591 8.100000
v -1.414190 27.354236 8.100000
v -1.148050 27.228361 8.100000
v -0.870854 27.129179 8.100000
v -0.585271 27.057644 8.100000
v -0.294051 27.014446 8.100000
v -0.000000 27.000000 8.100000
v 0.294051 27.014446 8.100000
v 0.585271 27.057644 8.100000
v 0.870854 27.129179 8.100000
v 1.148050 27.228361 8.100000
v 1.414190 27.354236 8.100000
v 1.666711 27.505591 8.100000
v 1.903180 27.680969 8.100000
v 2.121320 27.878680 8.100000
v 2.319031 28.096820 8.100000
v 2.494409 28.333289 8.100000
v 2.645764 28.585810 8.100000
v 2.771639 28.851950 8.100000
v 2.870821 29.129146 8.100000
v 2.942356 29.414729 8.100000
v 2.985554 29.705949 8.100000
v 3.000000 30.000000 8.100000
v 4.000000 30.000000 8.100000
v 3.980739 30.392069 8.100000
v 3.923141 30.780361 8.100000
v 3.827761 31.161139 8.100000
v 3.695518 31.530734 8.100000
v 3.527685 31.885587 8.100000
v 3.325878 32.222281 8.100000
v 3.092042 32.537573 8.100000
v 2.828427 32.828427 8.100000
v 2.537573 33.092042 8.100000
v 2.222281 33.325878 8.100000
v 1.885587 33.527685 8.100000
v 1.530734 33.695518 8.100000
v 1.161139 33.827761 8.100000
v 0.780361 33.923141 8.100000
v 0.392069 33.980739 8.100000
v 0.000000 34.000000 8.100000
v -0.392069 33.980739 8.100000
v -0.780361 33.923141 8.100000
v -1.161139 33.827761 8.100000
v -1.530734 33.695518 8.100000
v -1.885587 33.527685 8.100000
v -2.222281 33.325878 8.100000
v -2.537573 33.092042 8.100000
v -2.828427 32.828427 8.100000
v -3.092042 32.537573 8.100000
v -3.325878 32.222281 8.100000
v -3.527685 31.885587 8.100000
v -3.695518 31.530734 8.100000
v -3.827761 31.161139 8.100000
v -3.923141 30.780361 8.100000
v -3.980739 30.392069 8.100000
v -4.000000 30.000000 8.100000
v -3.980739 29.607931 8.100000
v -3.923141 29.219639 8.100000
v -3.827761 28.838861 8.100000
v -3.695518 28.469266 8.100000
v -3.527685 28.114413 8.100000
v -3.325878 27.777719 8.100000
v -3.092042 27.462427 8.100000
v -2.828427 27.171573 8.100000
v -2.537573 26.907958 8.100000
v -2.222281 26.674122 8.100000
v -1.885587 26.472315 8.100000
v -1.530734 26.304482 8.100000
v -1.161139 26.172239 8.100000
v -0.780361 26.076859 8.100000
v -0.392069 26.019261 8.100000
v -0.000000 26.000000 8.100000
v 0.392069 26.019261 8.100000
v 0.780361 26.076859 8.100000
v 1.161139 26.172239 8.100000
v 1.530734 26.304482 8.100000
v 1.885587 26.472315 8.100000
v 2.222281 26.674122 8.100000
v 2.537573 26.907958 8.100000
v 2.828427 27.171573 8.100000
v 3.092042 27.462427 8.100000
v 3.325878 27.777719 8.100000
v 3.527685 28.114413 8.100000
v 3.695518 28.469266 8.100000
v 3.827761 28.838861 8.100000
v 3.923141 29.219639 8.100000
v 3.980739 29.607931 8.100000
v 4.000000 30.000000 8.100000
v 5.000000 30.000000 8.100000
v 4.975924 30.490086 8.100000
v 4.903926 30.975452 8.100000
v 4.784702 31.451423 8.100000
v 4.619398 31.913417 8.100000
v 4.409606 32.356984 8.100000
v 4.157348 32.777851 8.100000
v 3.865052 33.171966 8.100000
v 3.535534 33.535534 8.100000
v 3.171966 33.865052 8.100000
v 2.777851 34.157348 8.100000
v 2.356984 34.409606 8.100000
v 1.913417 34.619398 8.100000
v 1.451423 34.784702 8.100000
v 0.975452 34.903926 8.100000
v 0.490086 34.975924 8.100000
v 0.000000 35.000000 8.100000
v -0.490086 34.975924 8.100000
v -0.975452 34.903926 8.100000
v -1.451423 34.784702 8.100000
v -1.913417 34.619398 8.100000
v -2.356984 34.409606 8.100000
v -2.777851 34.157348 8.100000
v -3.171966 33.865052 8.100000
v -3.535534 33.535534 8.100000
v -3.865052 33.171966 8.100000
v -4.157348 32.777851 8.100000
v -4.409606 32.356984 8.100000
v -4.619398 31.913417 8.100000
v -4.784702 31.451423 8.100000
v -4.903926 30.975452 8.100000
v -4.975924 30.490086 8.100000
v -5.000000 30.000000 8.100000
v -4.975924 29.509914 8.100000
v -4.903926 29.024548 8.100000
v -4.784702 28.548577 8.100000
v -4.619398 28.086583 8.100000
v -4.409606 27.643016 8.100000
v -4.157348 27.222149 8.100000
v -3.865052 26.828034 8.100000
v -3.535534 26.464466 8.100000
v -3.171966 26.134948 8.100000
v -2.777851 25.842652 8.100000
v -2.356984 25.590394 8.100000
v -1.913417 25.380602 8.100000
v -1.451423 25.215298 8.100000
v -0.975452 25.096074 8.100000
v -0.490086 25.024076 8.100000
v -0.000000 25.000000 8.100000
v 0.490086 25.024076 8.100000
v 0.975452 25.096074 8.100000
v 1.451423 25.215298 8.100000
v 1.913417 25.380602 8.100000
v 2.356984 25.590394 8.100000
v 2.777851 25.842652 8.100000
v 3.171966 26.134948 8.100000
v 3.535534 26.464466 8.100000
v 3.865052 26.828034 8.100000
v 4.157348 27.222149 8.100000
v 4.409606 27.643016 8.100000
v 4.619398 28.086583 8.100000
v 4.784702 28.548577 8.100000
v 4.903926 29.024548 8.100000
v 4.975924 29.509914 8.100000
v 5.000000 30.000000 8.100000
v 6.000000 30.000000 8.100000
v 5.971108 30.588103 8.100000
v 5.884712 31.170542 8.100000
v 5.741642 31.741708 8.100000
v 5.543277 32.296101 8.100000
v 5.291528 32.828380 8.100000
v 4.988818 33.333421 8.100000
v 4.638063 33.806360 8.100000
v 4.242641 34.242641 8.100000
v 3.806360 34.638063 8.100000
v 3.333421 34.988818 8.100000
v 2.828380 35.291528 8.100000
v 2.296101 35.543277 8.100000
v 1.741708 35.741642 8.100000
v 1.170542 35.884712 8.100000
v 0.588103 35.971108 8.100000
v 0.000000 36.000000 8.100000
v -0.588103 35.971108 8.100000
v -1.170542 35.884712 8.100000
v -1.741708 35.741642 8.100000
v -2.296101 35.543277 8.100000
v -2.828380 35.291528 8.100000
v -3.333421 34.988818 8.100000
v -3.806360 34.638063 8.100000
v -4.242641 34.242641 8.100000
v -4.638063 33.806360 8.100000
v -4.988818 33.333421 8.100000
v -5.291528 32.828380 8.100000
v -5.543277 32.296101 8.100000
v -5.741642 31.741708 8.100000
v -5.884712 31.170542 8.100000
v -5.971108 30.588103 8.100000
v -6.000000 30.000000 8.100000
v -5.971108 29.411897 8.100000
v -5.884712 28.829458 8.100000
v -5.741642 28.258292 8.100000
v -5.543277 27.703899 8.100000
v -5.291528 27.171620 8.100000
v -4.988818 26.666579 8.100000
v -4.638063 26.193640 8.100000
v -4.242641 25.757359 8.100000
v -3.806360 25.361937 8.100000
v -3.333421 25.011182 8.100000
v -2.828380 24.708472 8.100000
v -2.296101 24.456723 8.100000
v -1.741708 24.258358 8.100000
v -1.170542 24.115288 8.100000
v -0.588103 24.028892 8.100000
v -0.000000 24.000000 8.100000
v 0.588103 24.028892 8.100000
v 1.170542 24.115288 8.100000
v 1.741708 24.258358 8.100000
v 2.296101 24.456723 8.100000
v 2.828380 24.708472 8.100000
v 3.333421 25.011182 8.100000
v 3.806360 25.361937 8.100000
v 4.242641 25.757359 8.100000
v 4.638063 26.193640 8.100000
v 4.988818 26.666579 8.100000
v 5.291528 27.171620 8.100000
v 5.543277 27.703899 8.100000
v 5.741642 28.258292 8.100000
v 5.884712 28.829458 8.100000
v 5.971108 29.411897 8.100000
v 6.000000 30.000000 8.100000
vt 0.500000 0.500000
vt 0.500000 0.500000
vt 0.500000 0.500000
vt 0.500000 0.500000
vt 0.500000 0.500000
vt 0.500000 0.500000
vt 0.500000 0.500000
vt 0.500000 0.500000
vt 0.500000 0.500000
vt 0.500000 0.500000
vt 0.500000 0.500000
vt 0.500000 0.500000
vt 0.500000 0.500000
vt 0.500000 0.500000
vt 0.500000 0.500000
vt 0.500000 0.500000
vt 0.500000 0.500000
vt 0.500000 0.500000
vt 0.500000 0.500000
vt 0.500000 0.500000
vt 0.500000 0.500000
vt 0.500000 0.500000
vt 0.500000 0.500000
vt 0.500000 0.500000
vt 0.500000 0.500000
vt 0.500000 0.500000
vt 0.500000 0.500000
vt 0.500000 0.500000
vt 0.500000 0.500000
vt 0.500000 0.500000
vt 0.500000 0.500000
vt 0.500000 0.500000
vt 0.500000 0.500000
vt 0.500000 0.500000
vt 0.500000 0.500000
vt 0.500000 0.500000
vt 0.500000 0.500000
vt 0.500000 0.500000
vt 0.500000 0.500000
vt 0.500000 0.500000
vt 0.500000 0.500000
vt 0.500000 0.500000
vt 0.500000 0.500000
vt 0.500000 0.500000
vt 0.500000 0.500000
vt 0.500000 0.500000
vt 0.500000 0.500000
vt 0.500000 0.500000
vt 0.500000 0.500000
vt 0.500000 0.500000
vt 0.500000 0.500000
vt 0.500000 0.500000
vt 0.500000 0.500000
vt 0.500000 0.500000
vt 0.500000 0.500000
vt 0.500000 0.500000
vt 0.500000 0.500000
vt 0.500000 0.500000
vt 0.500000 0.500000
vt 0.500000 0.500000
vt 0.500000 0.500000
vt 0.500000 0.500000
vt 0.500000 0.500000
vt 0.500000 0.500000
vt 0.500000 0.500000
vt 0.583333 0.500000
vt 0.582932 0.508168
vt 0.581732 0.516258
vt 0.579745 0.524190
vt 0.576990 0.531890
vt 0.573493 0.539283
vt 0.569289 0.546298
vt 0.564418 0.552866
vt 0.558926 0.558926
vt 0.552866 0.564418
vt 0.546298 0.569289
vt 0.539283 0.573493
vt 0.531890 0.576990
vt 0.524190 0.579745
vt 0.516258 0.581732
vt 0.508168 0.582932
vt 0.500000 0.583333
vt 0.491832 0.582932
vt 0.483742 0.581732
vt 0.475810 0.579745
vt 0.468110 0.576990
vt 0.460717 0.573493
vt 0.453702 0.569289
vt 0.447134 0.564418
vt 0.441074 0.558926
vt 0.435582 0.552866
vt 0.430711 0.546298
vt 0.426507 0.539283
vt 0.423010 0.531890
vt 0.420255 0.524190
vt 0.418268 0.516258
vt 0.417068 0.508168
vt 0.416667 0.500000
vt 0.417068 0.491832
vt 0.418268 0.483742
vt 0.420255 0.475810
vt 0.423010 0.468110
vt 0.426507 0.460717
vt 0.430711 0.453702
vt 0.435582 0.447134
vt 0.441074 0.441074
vt 0.447134 0.435582
vt 0.453702 0.430711
vt 0.460717 0.426507
vt 0.468110 0.423010
vt 0.475810 0.420255
vt 0.483742 0.418268
vt 0.491832 0.417068
vt 0.500000 0.416667
vt 0.508168 0.417068
vt 0.516258 0.418268
vt 0.524190 0.420255
vt 0.531890 0.423010
vt 0.539283 0.426507
vt 0.546298 0.430711
vt 0.552866 0.435582
vt 0.558926 0.441074
vt 0.564418 0.447134
vt 0.569289 0.453702
vt 0.573493 0.460717
vt 0.576990 0.468110
vt 0.579745 0.475810
vt 0.581732 0.483742
vt 0.582932 0.491832
vt 0.583333 0.500000
vt 0.666667 0.500000
vt 0.665864 0.516336
vt 0.663464 0.532515
vt 0.659490 0.548381
vt 0.653980 0.563781
vt 0.646987 0.578566
vt 0.638578 0.592595
vt 0.628835 0.605732
vt 0.617851 0.617851
vt 0.605732 0.628835
vt 0.592595 0.638578
vt 0.578566 0.646987
vt 0.563781 0.653980
vt 0.548381 0.659490
vt 0.532515 0.663464
vt 0.516336 0.665864
vt 0.500000 0.666667
vt 0.483664 0.665864
vt 0.467485 0.663464
vt 0.451619 0.659490
vt 0.436219 0.653980
vt 0.421434 0.646987
vt 0.407405 0.638578
vt 0.394268 0.628835
vt 0.382149 0.617851
vt 0.371165 0.605732
vt 0.361422 0.592595
vt 0.353013 0.578566
vt 0.346020 0.563781
vt 0.340510 0.548381
vt 0.336536 0.532515
vt 0.334136 0.516336
vt 0.333333 0.500000
vt 0.334136 0.483664
vt 0.336536 0.467485
vt 0.340510 0.451619
vt 0.346020 0.436219
vt 0.353013 0.421434
vt 0.361422 0.407405
vt 0.371165 0.394268
vt 0.382149 0.382149
vt 0.394268 0.371165
vt 0.407405 0.361422
vt 0.421434 0.353013
vt 0.436219 0.346020
vt 0.451619 0.340510
vt 0.467485 0.336536
vt 0.483664 0.334136
vt 0.500000 0.333333
vt 0.516336 0.334136
vt 0.532515 0.336536
vt 0.548381 0.340510
vt 0.563781 0.346020
vt 0.578566 0.353013
vt 0.592595 0.361422
vt 0.605732 0.371165
vt 0.617851 0.382149
vt 0.628835 0.394268
vt 0.638578 0.407405
vt 0.646987 0.421434
vt 0.653980 0.436219
vt 0.659490 0.451619
vt 0.663464 0.467485
vt 0.665864 0.483664
vt 0.666667 0.500000
vt 0.750000 0.500000
vt 0.748796 0.524504
vt 0.745196 0.548773
vt 0.739235 0.572571
vt 0.730970 0.595671
vt 0.720480 0.617849
vt 0.707867 0.638893
vt 0.693253 0.658598
vt 0.676777 0.676777
vt 0.658598 0.693253
vt 0.638893 0.707867
vt 0.617849 0.720480
vt 0.595671 0.730970
vt 0.572571 0.739235
vt 0.548773 0.745196
vt 0.524504 0.748796
vt 0.500000 0.750000
vt 0.475496 0.748796
vt 0.451227 0.745196
vt 0.427429 0.739235
vt 0.404329 0.730970
vt 0.382151 0.720480
vt 0.361107 0.707867
vt 0.341402 0.693253
vt 0.323223 0.676777
vt 0.306747 0.658598
vt 0.292133 0.638893
vt 0.279520 0.617849
vt 0.269030 0.595671
vt 0.260765 0.572571
vt 0.254804 0.548773
vt 0.251204 0.524504
vt 0.250000 0.500000
vt 0.251204 0.475496
vt 0.254804 0.451227
vt 0.260765 0.427429
vt 0.269030 0.404329
vt 0.279520 0.382151
vt 0.292133 0.361107
vt 0.306747 0.341402
vt 0.323223 0.323223
vt 0.341402 0.306747
vt 0.361107 0.292133
vt 0.382151 0.279520
vt 0.404329 0.269030
vt 0.427429 0.260765
vt 0.451227 0.254804
vt 0.475496 0.251204
vt 0.500000 0.250000
vt 0.524504 0.251204
vt 0.548773 0.254804
vt 0.572571 0.260765
vt 0.595671 0.269030
vt 0.617849 0.279520
vt 0.638893 0.292133
vt 0.658598 0.306747
vt 0.676777 0.323223
vt 0.693253 0.341402
vt 0.707867 0.361107
vt 0.720480 0.382151
vt 0.730970 0.404329
vt 0.739235 0.427429
vt 0.745196 0.451227
vt 0.748796 0.475496
vt 0.750000 0.500000
vt 0.833333 0.500000
vt 0.831728 0.532672
vt 0.826928 0.565030
vt 0.818980 0.596762
vt 0.807960 0.627561
vt 0.793974 0.657132
vt 0.777157 0.685190
vt 0.757670 0.711464
vt 0.735702 0.735702
vt 0.711464 0.757670
vt 0.685190 0.777157
vt 0.657132 0.793974
vt 0.627561 0.807960
vt 0.596762 0.818980
vt 0.565030 0.826928
vt 0.532672 0.831728
vt 0.500000 0.833333
vt 0.467328 0.831728
vt 0.434970 0.826928
vt 0.403238 0.818980
vt 0.372439 0.807960
vt 0.342868 0.793974
vt 0.314810 0.777157
vt 0.288536 0.757670
vt 0.264298 0.735702
vt 0.242330 0.711464
vt 0.222843 0.685190
vt 0.206026 0.657132
vt 0.192040 0.627561
vt 0.181020 0.596762
vt 0.173072 0.565030
vt 0.168272 0.532672
vt 0.166667 0.500000
vt 0.168272 0.467328
vt 0.173072 0.434970
vt 0.181020 0.403238
vt 0.192040 0.372439
vt 0.206026 0.342868
vt 0.222843 0.314810
vt 0.242330 0.288536
vt 0.264298 0.264298
vt 0.288536 0.242330
vt 0.314810 0.222843
vt 0.342868 0.206026
vt 0.372439 0.192040
vt 0.403238 0.181020
vt 0.434970 0.173072
vt 0.467328 0.168272
vt 0.500000 0.166667
vt 0.532672 0.168272
vt 0.565030 0.173072
vt 0.596762 0.181020
vt 0.627561 0.192040
vt 0.657132 0.206026
vt 0.685190 0.222843
vt 0.711464 0.242330
vt 0.735702 0.264298
vt 0.757670 0.288536
vt 0.777157 0.314810
vt 0.793974 0.342868
vt 0.807960 0.372439
vt 0.818980 0.403238
vt 0.826928 0.434970
vt 0.831728 0.467328
vt 0.833333 0.500000
vt 0.916667 0.500000
vt 0.914660 0.540840
vt 0.908661 0.581288
vt 0.898725 0.620952
vt 0.884950 0.659451
vt 0.867467 0.696415
vt 0.846446 0.731488
vt 0.822088 0.764331
vt 0.794628 0.794628
vt 0.764331 0.822088
vt 0.731488 0.846446
vt 0.696415 0.867467
vt 0.659451 0.884950
vt 0.620952 0.898725
vt 0.581288 0.908661
vt 0.540840 0.914660
vt 0.500000 0.916667
vt 0.459160 0.914660
vt 0.418712 0.908661
vt 0.379048 0.898725
vt 0.340549 0.884950
vt 0.303585 0.867467
vt 0.268512 0.846446
vt 0.235669 0.822088
vt 0.205372 0.794628
vt 0.177912 0.764331
vt 0.153554 0.731488
vt 0.132533 0.696415
vt 0.115050 0.659451
vt 0.101275 0.620952
vt 0.091339 0.581288
vt 0.085340 0.540840
vt 0.083333 0.500000
vt 0.085340 0.459160
vt 0.091339 0.418712
vt 0.101275 0.379048
vt 0.115050 0.340549
vt 0.132533 0.303585
vt 0.153554 0.268512
vt 0.177912 0.235669
vt 0.205372 0.205372
vt 0.235669 0.177912
vt 0.268512 0.153554
vt 0.303585 0.132533
vt 0.340549 0.115050
vt 0.379048 0.101275
vt 0.418712 0.091339
vt 0.459160 0.085340
vt 0.500000 0.083333
vt 0.540840 0.085340
vt 0.581288 0.091339
vt 0.620952 0.101275
vt 0.659451 0.115050
vt 0.696415 0.132533
vt 0.731488 0.153554
vt 0.764331 0.177912
vt 0.794628 0.205372
vt 0.822088 0.235669
vt 0.846446 0.268512
vt 0.867467 0.303585
vt 0.884950 0.340549
vt 0.898725 0.379048
vt 0.908661 0.418712
vt 0.914660 0.459160
vt 0.916667 0.500000
vt 1.000000 0.500000
vt 0.997592 0.549009
vt 0.990393 0.597545
vt 0.978470 0.645142
vt 0.961940 0.691342
vt 0.940961 0.735698
vt 0.915735 0.777785
vt 0.886505 0.817197
vt 0.853553 0.853553
vt 0.817197 0.886505
vt 0.777785 0.915735
vt 0.735698 0.940961
vt 0.691342 0.961940
vt 0.645142 0.978470
vt 0.597545 0.990393
vt 0.549009 0.997592
vt 0.500000 1.000000
vt 0.450991 0.997592
vt 0.402455 0.990393
vt 0.354858 0.978470
vt 0.308658 0.961940
vt 0.264302 0.940961
vt 0.222215 0.915735
vt 0.182803 0.886505
vt 0.146447 0.853553
vt 0.113495 0.817197
vt 0.084265 0.777785
vt 0.059039 0.735698
vt 0.038060 0.691342
vt 0.021530 0.645142
vt 0.009607 0.597545
vt 0.002408 0.549009
vt 0.000000 0.500000
vt 0.002408 0.450991
vt 0.009607 0.402455
vt 0.021530 0.354858
vt 0.038060 0.308658
vt 0.059039 0.264302
vt 0.084265 0.222215
vt 0.113495 0.182803
vt 0.146447 0.146447
vt 0.182803 0.113495
vt 0.222215 0.084265
vt 0.264302 0.059039
vt 0.308658 0.038060
vt 0.354858 0.021530
vt 0.402455 0.009607
vt 0.450991 0.002408
vt 0.500000 0.000000
vt 0.549009 0.002408
vt 0.597545 0.009607
vt 0.645142 0.021530
vt 0.691342 0.038060
vt 0.735698 0.059039
vt 0.777785 0.084265
vt 0.817197 0.113495
vt 0.853553 0.146447
vt 0.886505 0.182803
vt 0.915735 0.222215
vt 0.940961 0.264302
vt 0.961940 0.308658
vt 0.978470 0.354858
vt 0.990393 0.402455
vt 0.997592 0.450991
vt 1.000000 0.500000
vt 0.500000 0.500000
vt 0.500000 0.500000
vt 0.500000 0.500000
vt 0.500000 0.500000
vt 0.500000 0.500000
vt 0.500000 0.500000
vt 0.500000 0.500000
vt 0.500000 0.500000
vt 0.500000 0.500000
vt 0.500000 0.500000
vt 0.500000 0.500000
vt 0.500000 0.500000
vt 0.500000 0.500000
vt 0.500000 0.500000
vt 0.500000 0.500000
vt 0.500000 0.500000
vt 0.500000 0.500000
vt 0.500000 0.500000
vt 0.500000 0.500000
vt 0.500000 0.500000
vt 0.500000 0.500000
vt 0.500000 0.500000
vt 0.500000 0.500000
vt 0.500000 0.500000
vt 0.500000 0.500000
vt 0.500000 0.500000
vt 0.500000 0.500000
vt 0.500000 0.500000
vt 0.500000 0.500000
vt 0.500000 0.500000
vt 0.500000 0.500000
vt 0.500000 0.500000
vt 0.500000 0.500000
vt 0.500000 0.500000
vt 0.500000 0.500000
vt 0.500000 0.500000
vt 0.500000 0.500000
vt 0.500000 0.500000
vt 0.500000 0.500000
vt 0.500000 0.500000
vt 0.500000 0.500000
vt 0.500000 0.500000
vt 0.500000 0.500000
vt 0.500000 0.500000
vt 0.500000 0.500000
vt 0.500000 0.500000
vt 0.500000 0.500000
vt 0.500000 0.500000
vt 0.500000 0.500000
vt 0.500000 0.500000
vt 0.500000 0.500000
vt 0.500000 0.500000
vt 0.500000 0.500000
vt 0.500000 0.500000
vt 0.500000 0.500000
vt 0.500000 0.500000
vt 0.500000 0.500000
vt 0.500000 0.500000
vt 0.500000 0.500000
vt 0.500000 0.500000
vt 0.500000 0.500000
vt 0.500000 0.500000
vt 0.500000 0.500000
vt 0.500000 0.500000
vt 0.500000 0.500000
vt 0.583333 0.500000
vt 0.582932 0.508168
vt 0.581732 0.516258
vt 0.579745 0.524190
vt 0.576990 0.531890
vt 0.573493 0.539283
vt 0.569289 0.546298
vt 0.564418 0.552866
vt 0.558926 0.558926
vt 0.552866 0.564418
vt 0.546298 0.569289
vt 0.539283 0.573493
vt 0.531890 0.576990
vt 0.524190 0.579745
vt 0.516258 0.581732
vt 0.508168 0.582932
vt 0.500000 0.583333
vt 0.491832 0.582932
vt 0.483742 0.581732
vt 0.475810 0.579745
vt 0.468110 0.576990
vt 0.460717 0.573493
vt 0.453702 0.569289
vt 0.447134 0.564418
vt 0.441074 0.558926
vt 0.435582 0.552866
vt 0.430711 0.546298
vt 0.426507 0.539283
vt 0.423010 0.531890
vt 0.420255 0.524190
vt 0.418268 0.516258
vt 0.417068 0.508168
vt 0.416667 0.500000
vt 0.417068 0.491832
vt 0.418268 0.483742
vt 0.420255 0.475810
vt 0.423010 0.468110
vt 0.426507 0.460717
vt 0.430711 0.453702
vt 0.435582 0.447134
vt 0.441074 0.441074
vt 0.447134 0.435582
vt 0.453702 0.430711
vt 0.460717 0.426507
vt 0.468110 0.423010
vt 0.475810 0.420255
vt 0.483742 0.418268
vt 0.491832 0.417068
vt 0.500000 0.416667
vt 0.508168 0.417068
vt 0.516258 0.418268
vt 0.524190 0.420255
vt 0.531890 0.423010
vt 0.539283 0.426507
vt 0.546298 0.430711
vt 0.552866 0.435582
vt 0.558926 0.441074
vt 0.564418 0.447134
vt 0.569289 0.453702
vt 0.573493 0.460717
vt 0.576990 0.468110
vt 0.579745 0.475810
vt 0.581732 0.483742
vt 0.582932 0.491832
vt 0.583333 0.500000
vt 0.666667 0.500000
vt 0.665864 0.516336
vt 0.663464 0.532515
vt 0.659490 0.548381
vt 0.653980 0.563781
vt 0.646987 0.578566
vt 0.638578 0.592595
vt 0.628835 0.605732
vt 0.617851 0.617851
vt 0.605732 0.628835
vt 0.592595 0.638578
vt 0.578566 0.646987
vt 0.563781 0.653980
vt 0.548381 0.659490
vt 0.532515 0.663464
vt 0.516336 0.665864
vt 0.500000 0.666667
vt 0.483664 0.665864
vt 0.467485 0.663464
vt 0.451619 0.659490
vt 0.436219 0.653980
vt 0.421434 0.646987
vt 0.407405 0.638578
vt 0.394268 0.628835
vt 0.382149 0.617851
vt 0.371165 0.605732
vt 0.361422 0.592595
vt 0.353013 0.578566
vt 0.346020 0.563781
vt 0.340510 0.548381
vt 0.336536 0.532515
vt 0.334136 0.516336
vt 0.333333 0.500000
vt 0.334136 0.483664
vt 0.336536 0.467485
vt 0.340510 0.451619
vt 0.346020 0.436219
vt 0.353013 0.421434
vt 0.361422 0.407405
vt 0.371165 0.394268
vt 0.382149 0.382149
vt 0.394268 0.371165
vt 0.407405 0.361422
vt 0.421434 0.353013
vt 0.436219 0.346020
vt 0.451619 0.340510
vt 0.467485 0.336536
vt 0.483664 0.334136
vt 0.500000 0.333333
vt 0.516336 0.334136
vt 0.532515 0.336536
vt 0.548381 0.340510
vt 0.563781 0.346020
vt 0.578566 0.353013
vt 0.592595 0.361422
vt 0.605732 0.371165
vt 0.617851 0.382149
vt 0.628835 0.394268
vt 0.638578 0.407405
vt 0.646987 0.421434
vt 0.653980 0.436219
vt 0.659490 0.451619
vt 0.663464 0.467485
vt 0.665864 0.483664
vt 0.666667 0.500000
vt 0.750000 0.500000
vt 0.748796 0.524504
vt 0.745196 0.548773
vt 0.739235 0.572571
vt 0.730970 0.595671
vt 0.720480 0.617849
vt 0.707867 0.638893
vt 0.693253 0.658598
vt 0.676777 0.676777
vt 0.658598 0.693253
vt 0.638893 0.707867
vt 0.617849 0.720480
vt 0.595671 0.730970
vt 0.572571 0.739235
vt 0.548773 0.745196
vt 0.524504 0.748796
vt 0.500000 0.750000
vt 0.475496 0.748796
vt 0.451227 0.745196
vt 0.427429 0.739235
vt 0.404329 0.730970
vt 0.382151 0.720480
vt 0.361107 0.707867
vt 0.341402 0.693253
vt 0.323223 0.676777
vt 0.306747 0.658598
vt 0.292133 0.638893
vt 0.279520 0.617849
vt 0.269030 0.595671
vt 0.260765 0.572571
vt 0.254804 0.548773
vt 0.251204 0.524504
vt 0.250000 0.500000
vt 0.251204 0.475496
vt 0.254804 0.451227
vt 0.260765 0.427429
vt 0.269030 0.404329
vt 0.279520 0.382151
vt 0.292133 0.361107
vt 0.306747 0.341402
vt 0.323223 0.323223
vt 0.341402 0.306747
vt 0.361107 0.292133
vt 0.382151 0.279520
vt 0.404329 0.269030
vt 0.427429 0.260765
vt 0.451227 0.254804
vt 0.475496 0.251204
vt 0.500000 0.250000
vt 0.524504 0.251204
vt 0.548773 0.254804
vt 0.572571 0.260765
vt 0.595671 0.269030
vt 0.617849 0.279520
vt 0.638893 0.292133
vt 0.658598 0.306747
vt 0.676777 0.323223
vt 0.693253 0.341402
vt 0.707867 0.361107
vt 0.720480 0.382151
vt 0.730970 0.404329
vt 0.739235 0.427429
vt 0.745196 0.451227
vt 0.748796 0.475496
vt 0.750000 0.500000
vt 0.833333 0.500000
vt 0.831728 0.532672
vt 0.826928 0.565030
vt 0.818980 0.596762
vt 0.807960 0.627561
vt 0.793974 0.657132
vt 0.777157 0.685190
vt 0.757670 0.711464
vt 0.735702 0.735702
vt 0.711464 0.757670
vt 0.685190 0.777157
vt 0.657132 0.793974
vt 0.627561 0.807960
vt 0.596762 0.818980
vt 0.565030 0.826928
vt 0.532672 0.831728
vt 0.500000 0.833333
vt 0.467328 0.831728
vt 0.434970 0.826928
vt 0.403238 0.818980
vt 0.372439 0.807960
vt 0.342868 0.793974
vt 0.314810 0.777157
vt 0.288536 0.757670
vt 0.264298 0.735702
vt 0.242330 0.711464
vt 0.222843 0.685190
vt 0.206026 0.657132
vt 0.192040 0.627561
vt 0.181020 0.596762
vt 0.173072 0.565030
vt 0.168272 0.532672
vt 0.166667 0.500000
vt 0.168272 0.467328
vt 0.173072 0.434970
vt 0.181020 0.403238
vt 0.192040 0.372439
vt 0.206026 0.342868
vt 0.222843 0.314810
vt 0.242330 0.288536
vt 0.264298 0.264298
vt 0.288536 0.242330
vt 0.314810 0.222843
vt 0.342868 0.206026
vt 0.372439 0.192040
vt 0.403238 0.181020
vt 0.434970 0.173072
vt 0.467328 0.168272
vt 0.500000 0.166667
vt 0.532672 0.168272
vt 0.565030 0.173072
vt 0.596762 0.181020
vt 0.627561 0.192040
vt 0.657132 0.206026
vt 0.685190 0.222843
vt 0.711464 0.242330
vt 0.735702 0.264298
vt 0.757670 0.288536
vt 0.777157 0.314810
vt 0.793974 0.342868
vt 0.807960 0.372439
vt 0.818980 0.403238
vt 0.826928 0.434970
vt 0.831728 0.467328
vt 0.833333 0.500000
vt 0.916667 0.500000
vt 0.914660 0.540840
vt 0.908661 0.581288
vt 0.898725 0.620952
vt 0.884950 0.659451
vt 0.867467 0.696415
vt 0.846446 0.731488
vt 0.822088 0.764331
vt 0.794628 0.794628
vt 0.764331 0.822088
vt 0.731488 0.846446
vt 0.696415 0.867467
vt 0.659451 0.884950
vt 0.620952 0.898725
vt 0.581288 0.908661
vt 0.540840 0.914660
vt 0.500000 0.916667
vt 0.459160 0.914660
vt 0.418712 0.908661
vt 0.379048 0.898725
vt 0.340549 0.884950
vt 0.303585 0.867467
vt 0.268512 0.846446
vt 0.235669 0.822088
vt 0.205372 0.794628
vt 0.177912 0.764331
vt 0.153554 0.731488
vt 0.132533 0.696415
vt 0.115050 0.659451
vt 0.101275 0.620952
vt 0.091339 0.581288
vt 0.085340 0.540840
vt 0.083333 0.500000
vt 0.085340 0.459160
vt 0.091339 0.418712
vt 0.101275 0.379048
vt 0.115050 0.340549
vt 0.132533 0.303585
vt 0.153554 0.268512
vt 0.177912 0.235669
vt 0.205372 0.205372
vt 0.235669 0.177912
vt 0.268512 0.153554
vt 0.303585 0.132533
vt 0.340549 0.115050
vt 0.379048 0.101275
vt 0.418712 0.091339
vt 0.459160 0.085340
vt 0.500000 0.083333
vt 0.540840 0.085340
vt 0.581288 0.091339
vt 0.620952 0.101275
vt 0.659451 0.115050
vt 0.696415 0.132533
vt 0.731488 0.153554
vt 0.764331 0.177912
vt 0.794628 0.205372
vt 0.822088 0.235669
vt 0.846446 0.268512
vt 0.867467 0.303585
vt 0.884950 0.340549
vt 0.898725 0.379048
vt 0.908661 0.418712
vt 0.914660 0.459160
vt 0.916667 0.500000
vt 1.000000 0.500000
vt 0.997592 0.549009
vt 0.990393 0.597545
vt 0.978470 0.645142
vt 0.961940 0.691342
vt 0.940961 0.735698
vt 0.915735 0.777785
vt 0.886505 0.817197
vt 0.853553 0.853553
vt 0.817197 0.886505
vt 0.777785 0.915735
vt 0.735698 0.940961
vt 0.691342 0.961940
vt 0.645142 0.978470
vt 0.597545 0.990393
vt 0.549009 0.997592
vt 0.500000 1.000000
vt 0.450991 0.997592
vt 0.402455 0.990393
vt 0.354858 0.978470
vt 0.308658 0.961940
vt 0.264302 0.940961
vt 0.222215 0.915735
vt 0.182803 0.886505
vt 0.146447 0.853553
vt 0.113495 0.817197
vt 0.084265 0.777785
vt 0.059039 0.735698
vt 0.038060 0.691342
vt 0.021530 0.645142
vt 0.009607 0.597545
vt 0.002408 0.549009
vt 0.000000 0.500000
vt 0.002408 0.450991
vt 0.009607 0.402455
vt 0.021530 0.354858
vt 0.038060 0.308658
vt 0.059039 0.264302
vt 0.084265 0.222215
vt 0.113495 0.182803
vt 0.146447 0.146447
vt 0.182803 0.113495
vt 0.222215 0.084265
vt 0.264302 0.059039
vt 0.308658 0.038060
vt 0.354858 0.021530
vt 0.402455 0.009607
vt 0.450991 0.002408
vt 0.500000 0.000000
vt 0.549009 0.002408
vt 0.597545 0.009607
vt 0.645142 0.021530
vt 0.691342 0.038060
vt 0.735698 0.059039
vt 0.777785 0.084265
vt 0.817197 0.113495
vt 0.853553 0.146447
vt 0.886505 0.182803
vt 0.915735 0.222215
vt 0.940961 0.264302
vt 0.961940 0.308658
vt 0.978470 0.354858
vt 0.990393 0.402455
vt 0.997592 0.450991
vt 1.000000 0.500000
usemtl causality_iris_glow
s off
f 1/1 67/67 66/66
f 2/2 68/68 67/67
f 3/3 69/69 68/68
f 4/4 70/70 69/69
f 5/5 71/71 70/70
f 6/6 72/72 71/71
f 7/7 73/73 72/72
f 8/8 74/74 73/73
f 9/9 75/75 74/74
f 10/10 76/76 75/75
f 11/11 77/77 76/76
f 12/12 78/78 77/77
f 13/13 79/79 78/78
f 14/14 80/80 79/79
f 15/15 81/81 80/80
f 16/16 82/82 81/81
f 17/17 83/83 82/82
f 18/18 84/84 83/83
f 19/19 85/85 84/84
f 20/20 86/86 85/85
f 21/21 87/87 86/86
f 22/22 88/88 87/87
f 23/23 89/89 88/88
f 24/24 90/90 89/89
f 25/25 91/91 90/90
f 26/26 92/92 91/91
f 27/27 93/93 92/92
f 28/28 94/94 93/93
f 29/29 95/95 94/94
f 30/30 96/96 95/95
f 31/31 97/97 96/96
f 32/32 98/98 97/97
f 33/33 99/99 98/98
f 34/34 100/100 99/99
f 35/35 101/101 100/100
f 36/36 102/102 101/101
f 37/37 103/103 102/102
f 38/38 104/104 103/103
f 39/39 105/105 104/104
f 40/40 106/106 105/105
f 41/41 107/107 106/106
f 42/42 108/108 107/107
f 43/43 109/109 108/108
f 44/44 110/110 109/109
f 45/45 111/111 110/110
f 46/46 112/112 111/111
f 47/47 113/113 112/112
f 48/48 114/114 113/113
f 49/49 115/115 114/114
f 50/50 116/116 115/115
f 51/51 117/117 116/116
f 52/52 118/118 117/117
f 53/53 119/119 118/118
f 54/54 120/120 119/119
f 55/55 121/121 120/120
f 56/56 122/122 121/121
f 57/57 123/123 122/122
f 58/58 124/124 123/123
f 59/59 125/125 124/124
f 60/60 126/126 125/125
f 61/61 127/127 126/126
f 62/62 128/128 127/127
f 63/63 129/129 128/128
f 64/64 130/130 129/129
f 66/66 67/67 132/132
f 66/66 132/132 131/131
f 67/67 68/68 133/133
f 67/67 133/133 132/132
f 68/68 69/69 134/134
f 68/68 134/134 133/133
f 69/69 70/70 135/135
f 69/69 135/135 134/134
f 70/70 71/71 136/136
f 70/70 136/136 135/135
f 71/71 72/72 137/137
f 71/71 137/137 136/136
f 72/72 73/73 138/138
f 72/72 138/138 137/137
f 73/73 74/74 139/139
f 73/73 139/139 138/138
f 74/74 75/75 140/140
f 74/74 140/140 139/139
f 75/75 76/76 141/141
f 75/75 141/141 140/140
f 76/76 77/77 142/142
f 76/76 142/142 141/141
f 77/77 78/78 143/143
f 77/77 143/143 142/142
f 78/78 79/79 144/144
f 78/78 144/144 143/143
f 79/79 80/80 145/145
f 79/79 145/145 144/144
f 80/80 81/81 146/146
f 80/80 146/146 145/145
f 81/81 82/82 147/147
f 81/81 147/147 146/146
f 82/82 83/83 148/148
f 82/82 148/148 147/147
f 83/83 84/84 149/149
f 83/83 149/149 148/148
f 84/84 85/85 150/150
f 84/84 150/150 149/149
f 85/85 86/86 151/151
f 85/85 151/151 150/150
f 86/86 87/87 152/152
f 86/86 152/152 151/151
f 87/87 88/88 153/153
f 87/87 153/153 152/152
f 88/88 89/89 154/154
f 88/88 154/154 153/153
f 89/89 90/90 155/155
f 89/89 155/155 154/154
f 90/90 91/91 156/156
f 90/90 156/156 155/155
f 91/91 92/92 157/157
f 91/91 157/157 156/156
f 92/92 93/93 158/158
f 92/92 158/158 157/157
f 93/93 94/94 159/159
f 93/93 159/159 158/158
f 94/94 95/95 160/160
f 94/94 160/160 159/159
f 95/95 96/96 161/161
f 95/95 161/161 160/160
f 96/96 97/97 162/162
f 96/96 162/162 161/161
f 97/97 98/98 163/163
f 97/97 163/163 162/162
f 98/98 99/99 164/164
f 98/98 164/164 163/163
f 99/99 100/100 165/165
f 99/99 165/165 164/164
f 100/100 101/101 166/166
f 100/100 166/166 165/165
f 101/101 102/102 167/167
f 101/101 167/167 166/166
f 102/102 103/103 168/168
f 102/102 168/168 167/167
f 103/103 104/104 169/169
f 103/103 169/169 168/168
f 104/104 105/105 170/170
f 104/104 170/170 169/169
f 105/105 106/106 171/171
f 105/105 171/171 170/170
f 106/106 107/107 172/172
f 106/106 172/172 171/171
f 107/107 108/108 173/173
f 107/107 173/173 172/172
f 108/108 109/109 174/174
f 108/108 174/174 173/173
f 109/109 110/110 175/175
f 109/109 175/175 174/174
f 110/110 111/111 176/176
f 110/110 176/176 175/175
f 111/111 112/112 177/177
f 111/111 177/177 176/176
f 112/112 113/113 178/178
f 112/112 178/178 177/177
f 113/113 114/114 179/179
f 113/113 179/179 178/178
f 114/114 115/115 180/180
f 114/114 180/180 179/179
f 115/115 116/116 181/181
f 115/115 181/181 180/180
f 116/116 117/117 182/182
f 116/116 182/182 181/181
f 117/117 118/118 183/183
f 117/117 183/183 182/182
f 118/118 119/119 184/184
f 118/118 184/184 183/183
f 119/119 120/120 185/185
f 119/119 185/185 184/184
f 120/120 121/121 186/186
f 120/120 186/186 185/185
f 121/121 122/122 187/187
f 121/121 187/187 186/186
f 122/122 123/123 188/188
f 122/122 188/188 187/187
f 123/123 124/124 189/189
f 123/123 189/189 188/188
f 124/124 125/125 190/190
f 124/124 190/190 189/189
f 125/125 126/126 191/191
f 125/125 191/191 190/190
f 126/126 127/127 192/192
f 126/126 192/192 191/191
f 127/127 128/128 193/193
f 127/127 193/193 192/192
f 128/128 129/129 194/194
f 128/128 194/194 193/193
f 129/129 130/130 195/195
f 129/129 195/195 194/194
f 131/131 132/132 197/197
f 131/131 197/197 196/196
f 132/132 133/133 198/198
f 132/132 198/198 197/197
f 133/133 134/134 199/199
f 133/133 199/199 198/198
f 134/134 135/135 200/200
f 134/134 200/200 199/199
f 135/135 136/136 201/201
f 135/135 201/201 200/200
f 136/136 137/137 202/202
f 136/136 202/202 201/201
f 137/137 138/138 203/203
f 137/137 203/203 202/202
f 138/138 139/139 204/204
f 138/138 204/204 203/203
f 139/139 140/140 205/205
f 139/139 205/205 204/204
f 140/140 141/141 206/206
f 140/140 206/206 205/205
f 141/141 142/142 207/207
f 141/141 207/207 206/206
f 142/142 143/143 208/208
f 142/142 208/208 207/207
f 143/143 144/144 209/209
f 143/143 209/209 208/208
f 144/144 145/145 210/210
f 144/144 210/210 209/209
f 145/145 146/146 211/211
f 145/145 211/211 210/210
f 146/146 147/147 212/212
f 146/146 212/212 211/211
f 147/147 148/148 213/213
f 147/147 213/213 212/212
f 148/148 149/149 214/214
f 148/148 214/214 213/213
f 149/149 150/150 215/215
f 149/149 215/215 214/214
f 150/150 151/151 216/216
f 150/150 216/216 215/215
f 151/151 152/152 217/217
f 151/151 217/217 216/216
f 152/152 153/153 218/218
f 152/152 218/218 217/217
f 153/153 154/154 219/219
f 153/153 219/219 218/218
f 154/154 155/155 220/220
f 154/154 220/220 219/219
f 155/155 156/156 221/221
f 155/155 221/221 220/220
f 156/156 157/157 222/222
f 156/156 222/222 221/221
f 157/157 158/158 223/223
f 157/157 223/223 222/222
f 158/158 159/159 224/224
f 158/158 224/224 223/223
f 159/159 160/160 225/225
f 159/159 225/225 224/224
f 160/160 161/161 226/226
f 160/160 226/226 225/225
f 161/161 162/162 227/227
f 161/161 227/227 226/226
f 162/162 163/163 228/228
f 162/162 228/228 227/227
f 163/163 164/164 229/229
f 163/163 229/229 228/228
f 164/164 165/165 230/230
f 164/164 230/230 229/229
f 165/165 166/166 231/231
f 165/165 231/231 230/230
f 166/166 167/167 232/232
f 166/166 232/232 231/231
f 167/167 168/168 233/233
f 167/167 233/233 232/232
f 168/168 169/169 234/234
f 168/168 234/234 233/233
f 169/169 170/170 235/235
f 169/169 235/235 234/234
f 170/170 171/171 236/236
f 170/170 236/236 235/235
f 171/171 172/172 237/237
f 171/171 237/237 236/236
f 172/172 173/173 238/238
f 172/172 238/238 237/237
f 173/173 174/174 239/239
f 173/173 239/239 238/238
f 174/174 175/175 240/240
f 174/174 240/240 239/239
f 175/175 176/176 241/241
f 175/175 241/241 240/240
f 176/176 177/177 242/242
f 176/176 242/242 241/241
f 177/177 178/178 243/243
f 177/177 243/243 242/242
f 178/178 179/179 244/244
f 178/178 244/244 243/243
f 179/179 180/180 245/245
f 179/179 245/245 244/244
f 180/180 181/181 246/246
f 180/180 246/246 245/245
f 181/181 182/182 247/247
f 181/181 247/247 246/246
f 182/182 183/183 248/248
f 182/182 248/248 247/247
f 183/183 184/184 249/249
f 183/183 249/249 248/248
f 184/184 185/185 250/250
f 184/184 250/250 249/249
f 185/185 186/186 251/251
f 185/185 251/251 250/250
f 186/186 187/187 252/252
f 186/186 252/252 251/251
f 187/187 188/188 253/253
f 187/187 253/253 252/252
f 188/188 189/189 254/254
f 188/188 254/254 253/253
f 189/189 190/190 255/255
f 189/189 255/255 254/254
f 190/190 191/191 256/256
f 190/190 256/256 255/255
f 191/191 192/192 257/257
f 191/191 257/257 256/256
f 192/192 193/193 258/258
f 192/192 258/258 257/257
f 193/193 194/194 259/259
f 193/193 259/259 258/258
f 194/194 195/195 260/260
f 194/194 260/260 259/259
f 196/196 197/197 262/262
f 196/196 262/262 261/261
f 197/197 198/198 263/263
f 197/197 263/263 262/262
f 198/198 199/199 264/264
f 198/198 264/264 263/263
f 199/199 200/200 265/265
f 199/199 265/265 264/264
f 200/200 201/201 266/266
f 200/200 266/266 265/265
f 201/201 202/202 267/267
f 201/201 267/267 266/266
f 202/202 203/203 268/268
f 202/202 268/268 267/267
f 203/203 204/204 269/269
f 203/203 269/269 268/268
f 204/204 205/205 270/270
f 204/204 270/270 269/269
f 205/205 206/206 271/271
f 205/205 271/271 270/270
f 206/206 207/207 272/272
f 206/206 272/272 271/271
f 207/207 208/208 273/273
f 207/207 273/273 272/272
f 208/208 209/209 274/274
f 208/208 274/274 273/273
f 209/209 210/210 275/275
f 209/209 275/275 274/274
f 210/210 211/211 276/276
f 210/210 276/276 275/275
f 211/211 212/212 277/277
f 211/211 277/277 276/276
f 212/212 213/213 278/278
f 212/212 278/278 277/277
f 213/213 214/214 279/279
f 213/213 279/279 278/278
f 214/214 215/215 280/280
f 214/214 280/280 279/279
f 215/215 216/216 281/281
f 215/215 281/281 280/280
f 216/216 217/217 282/282
f 216/216 282/282 281/281
f 217/217 218/218 283/283
f 217/217 283/283 282/282
f 218/218 219/219 284/284
f 218/218 284/284 283/283
f 219/219 220/220 285/285
f 219/219 285/285 284/284
f 220/220 221/221 286/286
f 220/220 286/286 285/285
f 221/221 222/222 287/287
f 221/221 287/287 286/286
f 222/222 223/223 288/288
f 222/222 288/288 287/287
f 223/223 224/224 289/289
f 223/223 289/289 288/288
f 224/224 225/225 290/290
f 224/224 290/290 289/289
f 225/225 226/226 291/291
f 225/225 291/291 290/290
f 226/226 227/227 292/292
f 226/226 292/292 291/291
f 227/227 228/228 293/293
f 227/227 293/293 292/292
f 228/228 229/229 294/294
f 228/228 294/294 293/293
f 229/229 230/230 295/295
f 229/229 295/295 294/294
f 230/230 231/231 296/296
f 230/230 296/296 295/295
f 231/231 232/232 297/297
f 231/231 297/297 296/296
f 232/232 233/233 298/298
f 232/232 298/298 297/297
f 233/233 234/234 299/299
f 233/233 299/299 298/298
f 234/234 235/235 300/300
f 234/234 300/300 299/299
f 235/235 236/236 301/301
f 235/235 301/301 300/300
f 236/236 237/237 302/302
f 236/236 302/302 301/301
f 237/237 238/238 303/303
f 237/237 303/303 302/302
f 238/238 239/239 304/304
f 238/238 304/304 303/303
f 239/239 240/240 305/305
f 239/239 305/305 304/304
f 240/240 241/241 306/306
f 240/240 306/306 305/305
f 241/241 242/242 307/307
f 241/241 307/307 306/306
f 242/242 243/243 308/308
f 242/242 308/308 307/307
f 243/243 244/244 309/309
f 243/243 309/309 308/308
f 244/244 245/245 310/310
f 244/244 310/310 309/309
f 245/245 246/246 311/311
f 245/245 311/311 310/310
f 246/246 247/247 312/312
f 246/246 312/312 311/311
f 247/247 248/248 313/313
f 247/247 313/313 312/312
f 248/248 249/249 314/314
f 248/248 314/314 313/313
f 249/249 250/250 315/315
f 249/249 315/315 314/314
f 250/250 251/251 316/316
f 250/250 316/316 315/315
f 251/251 252/252 317/317
f 251/251 317/317 316/316
f 252/252 253/253 318/318
f 252/252 318/318 317/317
f 253/253 254/254 319/319
f 253/253 319/319 318/318
f 254/254 255/255 320/320
f 254/254 320/320 319/319
f 255/255 256/256 321/321
f 255/255 321/321 320/320
f 256/256 257/257 322/322
f 256/256 322/322 321/321
f 257/257 258/258 323/323
f 257/257 323/323 322/322
f 258/258 259/259 324/324
f 258/258 324/324 323/323
f 259/259 260/260 325/325
f 259/259 325/325 324/324
f 261/261 262/262 327/327
f 261/261 327/327 326/326
f 262/262 263/263 328/328
f 262/262 328/328 327/327
f 263/263 264/264 329/329
f 263/263 329/329 328/328
f 264/264 265/265 330/330
f 264/264 330/330 329/329
f 265/265 266/266 331/331
f 265/265 331/331 330/330
f 266/266 267/267 332/332
f 266/266 332/332 331/331
f 267/267 268/268 333/333
f 267/267 333/333 332/332
f 268/268 269/269 334/334
f 268/268 334/334 333/333
f 269/269 270/270 335/335
f 269/269 335/335 334/334
f 270/270 271/271 336/336
f 270/270 336/336 335/335
f 271/271 272/272 337/337
f 271/271 337/337 336/336
f 272/272 273/273 338/338
f 272/272 338/338 337/337
f 273/273 274/274 339/339
f 273/273 339/339 338/338
f 274/274 275/275 340/340
f 274/274 340/340 339/339
f 275/275 276/276 341/341
f 275/275 341/341 340/340
f 276/276 277/277 342/342
f 276/276 342/342 341/341
f 277/277 278/278 343/343
f 277/277 343/343 342/342
f 278/278 279/279 344/344
f 278/278 344/344 343/343
f 279/279 280/280 345/345
f 279/279 345/345 344/344
f 280/280 281/281 346/346
f 280/280 346/346 345/345
f 281/281 282/282 347/347
f 281/281 347/347 346/346
f 282/282 283/283 348/348
f 282/282 348/348 347/347
f 283/283 284/284 349/349
f 283/283 349/349 348/348
f 284/284 285/285 350/350
f 284/284 350/350 349/349
f 285/285 286/286 351/351
f 285/285 351/351 350/350
f 286/286 287/287 352/352
f 286/286 352/352 351/351
f 287/287 288/288 353/353
f 287/287 353/353 352/352
f 288/288 289/289 354/354
f 288/288 354/354 353/353
f 289/289 290/290 355/355
f 289/289 355/355 354/354
f 290/290 291/291 356/356
f 290/290 356/356 355/355
f 291/291 292/292 357/357
f 291/291 357/357 356/356
f 292/292 293/293 358/358
f 292/292 358/358 357/357
f 293/293 294/294 359/359
f 293/293 359/359 358/358
f 294/294 295/295 360/360
f 294/294 360/360 359/359
f 295/295 296/296 361/361
f 295/295 361/361 360/360
f 296/296 297/297 362/362
f 296/296 362/362 361/361
f 297/297 298/298 363/363
f 297/297 363/363 362/362
f 298/298 299/299 364/364
f 298/298 364/364 363/363
f 299/299 300/300 365/365
f 299/299 365/365 364/364
f 300/300 301/301 366/366
f 300/300 366/366 365/365
f 301/301 302/302 367/367
f 301/301 367/367 366/366
f 302/302 303/303 368/368
f 302/302 368/368 367/367
f 303/303 304/304 369/369
f 303/303 369/369 368/368
f 304/304 305/305 370/370
f 304/304 370/370 369/369
f 305/305 306/306 371/371
f 305/305 371/371 370/370
f 306/306 307/307 372/372
f 306/306 372/372 371/371
f 307/307 308/308 373/373
f 307/307 373/373 372/372
f 308/308 309/309 374/374
f 308/308 374/374 373/373
f 309/309 310/310 375/375
f 309/309 375/375 374/374
f 310/310 311/311 376/376
f 310/310 376/376 375/375
f 311/311 312/312 377/377
f 311/311 377/377 376/376
f 312/312 313/313 378/378
f 312/312 378/378 377/377
f 313/313 314/314 379/379
f 313/313 379/379 378/378
f 314/314 315/315 380/380
f 314/314 380/380 379/379
f 315/315 316/316 381/381
f 315/315 381/381 380/380
f 316/316 317/317 382/382
f 316/316 382/382 381/381
f 317/317 318/318 383/383
f 317/317 383/383 382/382
f 318/318 319/319 384/384
f 318/318 384/384 383/383
f 319/319 320/320 385/385
f 319/319 385/385 384/384
f 320/320 321/321 386/386
f 320/320 386/386 385/385
f 321/321 322/322 387/387
f 321/321 387/387 386/386
f 322/322 323/323 388/388
f 322/322 388/388 387/387
f 323/323 324/324 389/389
f 323/323 389/389 388/388
f 324/324 325/325 390/390
f 324/324 390/390 389/389
f 326/326 327/327 392/392
f 326/326 392/392 391/391
f 327/327 328/328 393/393
f 327/327 393/393 392/392
f 328/328 329/329 394/394
f 328/328 394/394 393/393
f 329/329 330/330 395/395
f 329/329 395/395 394/394
f 330/330 331/331 396/396
f 330/330 396/396 395/395
f 331/331 332/332 397/397
f 331/331 397/397 396/396
f 332/332 333/333 398/398
f 332/332 398/398 397/397
f 333/333 334/334 399/399
f 333/333 399/399 398/398
f 334/334 335/335 400/400
f 334/334 400/400 399/399
f 335/335 336/336 401/401
f 335/335 401/401 400/400
f 336/336 337/337 402/402
f 336/336 402/402 401/401
f 337/337 338/338 403/403
f 337/337 403/403 402/402
f 338/338 339/339 404/404
f 338/338 404/404 403/403
f 339/339 340/340 405/405
f 339/339 405/405 404/404
f 340/340 341/341 406/406
f 340/340 406/406 405/405
f 341/341 342/342 407/407
f 341/341 407/407 406/406
f 342/342 343/343 408/408
f 342/342 408/408 407/407
f 343/343 344/344 409/409
f 343/343 409/409 408/408
f 344/344 345/345 410/410
f 344/344 410/410 409/409
f 345/345 346/346 411/411
f 345/345 411/411 410/410
f 346/346 347/347 412/412
f 346/346 412/412 411/411
f 347/347 348/348 413/413
f 347/347 413/413 412/412
f 348/348 349/349 414/414
f 348/348 414/414 413/413
f 349/349 350/350 415/415
f 349/349 415/415 414/414
f 350/350 351/351 416/416
f 350/350 416/416 415/415
f 351/351 352/352 417/417
f 351/351 417/417 416/416
f 352/352 353/353 418/418
f 352/352 418/418 417/417
f 353/353 354/354 419/419
f 353/353 419/419 418/418
f 354/354 355/355 420/420
f 354/354 420/420 419/419
f 355/355 356/356 421/421
f 355/355 421/421 420/420
f 356/356 357/357 422/422
f 356/356 422/422 421/421
f 357/357 358/358 423/423
f 357/357 423/423 422/422
f 358/358 359/359 424/424
f 358/358 424/424 423/423
f 359/359 360/360 425/425
f 359/359 425/425 424/424
f 360/360 361/361 426/426
f 360/360 426/426 425/425
f 361/361 362/362 427/427
f 361/361 427/427 426/426
f 362/362 363/363 428/428
f 362/362 428/428 427/427
f 363/363 364/364 429/429
f 363/363 429/429 428/428
f 364/364 365/365 430/430
f 364/364 430/430 429/429
f 365/365 366/366 431/431
f 365/365 431/431 430/430
f 366/366 367/367 432/432
f 366/366 432/432 431/431
f 367/367 368/368 433/433
f 367/367 433/433 432/432
f 368/368 369/369 434/434
f 368/368 434/434 433/433
f 369/369 370/370 435/435
f 369/369 435/435 434/434
f 370/370 371/371 436/436
f 370/370 436/436 435/435
f 371/371 372/372 437/437
f 371/371 437/437 436/436
f 372/372 373/373 438/438
f 372/372 438/438 437/437
f 373/373 374/374 439/439
f 373/373 439/439 438/438
f 374/374 375/375 440/440
f 374/374 440/440 439/439
f 375/375 376/376 441/441
f 375/375 441/441 440/440
f 376/376 377/377 442/442
f 376/376 442/442 441/441
f 377/377 378/378 443/443
f 377/377 443/443 442/442
f 378/378 379/379 444/444
f 378/378 444/444 443/443
f 379/379 380/380 445/445
f 379/379 445/445 444/444
f 380/380 381/381 446/446
f 380/380 446/446 445/445
f 381/381 382/382 447/447
f 381/381 447/447 446/446
f 382/382 383/383 448/448
f 382/382 448/448 447/447
f 383/383 384/384 449/449
f 383/383 449/449 448/448
f 384/384 385/385 450/450
f 384/384 450/450 449/449
f 385/385 386/386 451/451
f 385/385 451/451 450/450
f 386/386 387/387 452/452
f 386/386 452/452 451/451
f 387/387 388/388 453/453
f 387/387 453/453 452/452
f 388/388 389/389 454/454
f 388/388 454/454 453/453
f 389/389 390/390 455/455
f 389/389 455/455 454/454
f 456/456 522/522 521/521
f 457/457 523/523 522/522
f 458/458 524/524 523/523
f 459/459 525/525 524/524
f 460/460 526/526 525/525
f 461/461 527/527 526/526
f 462/462 528/528 527/527
f 463/463 529/529 528/528
f 464/464 530/530 529/529
f 465/465 531/531 530/530
f 466/466 532/532 531/531
f 467/467 533/533 532/532
f 468/468 534/534 533/533
f 469/469 535/535 534/534
f 470/470 536/536 535/535
f 471/471 537/537 536/536
f 472/472 538/538 537/537
f 473/473 539/539 538/538
f 474/474 540/540 539/539
f 475/475 541/541 540/540
f 476/476 542/542 541/541
f 477/477 543/543 542/542
f 478/478 544/544 543/543
f 479/479 545/545 544/544
f 480/480 546/546 545/545
f 481/481 547/547 546/546
f 482/482 548/548 547/547
f 483/483 549/549 548/548
f 484/484 550/550 549/549
f 485/485 551/551 550/550
f 486/486 552/552 551/551
f 487/487 553/553 552/552
f 488/488 554/554 553/553
f 489/489 555/555 554/554
f 490/490 556/556 555/555
f 491/491 557/557 556/556
f 492/492 558/558 557/557
f 493/493 559/559 558/558
f 494/494 560/560 559/559
f 495/495 561/561 560/560
f 496/496 562/562 561/561
f 497/497 563/563 562/562
f 498/498 564/564 563/563
f 499/499 565/565 564/564
f 500/500 566/566 565/565
f 501/501 567/567 566/566
f 502/502 568/568 567/567
f 503/503 569/569 568/568
f 504/504 570/570 569/569
f 505/505 571/571 570/570
f 506/506 572/572 571/571
f 507/507 573/573 572/572
f 508/508 574/574 573/573
f 509/509 575/575 574/574
f 510/510 576/576 575/575
f 511/511 577/577 576/576
f 512/512 578/578 577/577
f 513/513 579/579 578/578
f 514/514 580/580 579/579
f 515/515 581/581 580/580
f 516/516 582/582 581/581
f 517/517 583/583 582/582
f 518/518 584/584 583/583
f 519/519 585/585 584/584
f 521/521 522/522 587/587
f 521/521 587/587 586/586
f 522/522 523/523 588/588
f 522/522 588/588 587/587
f 523/523 524/524 589/589
f 523/523 589/589 588/588
f 524/524 525/525 590/590
f 524/524 590/590 589/589
f 525/525 526/526 591/591
f 525/525 591/591 590/590
f 526/526 527/527 592/592
f 526/526 592/592 591/591
f 527/527 528/528 593/593
f 527/527 593/593 592/592
f 528/528 529/529 594/594
f 528/528 594/594 593/593
f 529/529 530/530 595/595
f 529/529 595/595 594/594
f 530/530 531/531 596/596
f 530/530 596/596 595/595
f 531/531 532/532 597/597
f 531/531 597/597 596/596
f 532/532 533/533 598/598
f 532/532 598/598 597/597
f 533/533 534/534 599/599
f 533/533 599/599 598/598
f 534/534 535/535 600/600
f 534/534 600/600 599/599
f 535/535 536/536 601/601
f 535/535 601/601 600/600
f 536/536 537/537 602/602
f 536/536 602/602 601/601
f 537/537 538/538 603/603
f 537/537 603/603 602/602
f 538/538 539/539 604/604
f 538/538 604/604 603/603
f 539/539 540/540 605/605
f 539/539 605/605 604/604
f 540/540 541/541 606/606
f 540/540 606/606 605/605
f 541/541 542/542 607/607
f 541/541 607/607 606/606
f 542/542 543/543 608/608
f 542/542 608/608 607/607
f 543/543 544/544 609/609
f 543/543 609/609 608/608
f 544/544 545/545 610/610
f 544/544 610/610 609/609
f 545/545 546/546 611/611
f 545/545 611/611 610/610
f 546/546 547/547 612/612
f 546/546 612/612 611/611
f 547/547 548/548 613/613
f 547/547 613/613 612/612
f 548/548 549/549 614/614
f 548/548 614/614 613/613
f 549/549 550/550 615/615
f 549/549 615/615 614/614
f 550/550 551/551 616/616
f 550/550 616/616 615/615
f 551/551 552/552 617/617
f 551/551 617/617 616/616
f 552/552 553/553 618/618
f 552/552 618/618 617/617
f 553/553 554/554 619/619
f 553/553 619/619 618/618
f 554/554 555/555 620/620
f 554/554 620/620 619/619
f 555/555 556/556 621/621
f 555/555 621/621 620/620
f 556/556 557/557 622/622
f 556/556 622/622 621/621
f 557/557 558/558 623/623
f 557/557 623/623 622/622
f 558/558 559/559 624/624
f 558/558 624/624 623/623
f 559/559 560/560 625/625
f 559/559 625/625 624/624
f 560/560 561/561 626/626
f 560/560 626/626 625/625
f 561/561 562/562 627/627
f 561/561 627/627 626/626
f 562/562 563/563 628/628
f 562/562 628/628 627/627
f 563/563 564/564 629/629
f 563/563 629/629 628/628
f 564/564 565/565 630/630
f 564/564 630/630 629/629
f 565/565 566/566 631/631
f 565/565 631/631 630/630
f 566/566 567/567 632/632
f 566/566 632/632 631/631
f 567/567 568/568 633/633
f 567/567 633/633 632/632
f 568/568 569/569 634/634
f 568/568 634/634 633/633
f 569/569 570/570 635/635
f 569/569 635/635 634/634
f 570/570 571/571 636/636
f 570/570 636/636 635/635
f 571/571 572/572 637/637
f 571/571 637/637 636/636
f 572/572 573/573 638/638
f 572/572 638/638 637/637
f 573/573 574/574 639/639
f 573/573 639/639 638/638
f 574/574 575/575 640/640
f 574/574 640/640 639/639
f 575/575 576/576 641/641
f 575/575 641/641 640/640
f 576/576 577/577 642/642
f 576/576 642/642 641/641
f 577/577 578/578 643/643
f 577/577 643/643 642/642
f 578/578 579/579 644/644
f 578/578 644/644 643/643
f 579/579 580/580 645/645
f 579/579 645/645 644/644
f 580/580 581/581 646/646
f 580/580 646/646 645/645
f 581/581 582/582 647/647
f 581/581 647/647 646/646
f 582/582 583/583 648/648
f 582/582 648/648 647/647
f 583/583 584/584 649/649
f 583/583 649/649 648/648
f 584/584 585/585 650/650
f 584/584 650/650 649/649
f 586/586 587/587 652/652
f 586/586 652/652 651/651
f 587/587 588/588 653/653
f 587/587 653/653 652/652
f 588/588 589/589 654/654
f 588/588 654/654 653/653
f 589/589 590/590 655/655
f 589/589 655/655 654/654
f 590/590 591/591 656/656
f 590/590 656/656 655/655
f 591/591 592/592 657/657
f 591/591 657/657 656/656
f 592/592 593/593 658/658
f 592/592 658/658 657/657
f 593/593 594/594 659/659
f 593/593 659/659 658/658
f 594/594 595/595 660/660
f 594/594 660/660 659/659
f 595/595 596/596 661/661
f 595/595 661/661 660/660
f 596/596 597/597 662/662
f 596/596 662/662 661/661
f 597/597 598/598 663/663
f 597/597 663/663 662/662
f 598/598 599/599 664/664
f 598/598 664/664 663/663
f 599/599 600/600 665/665
f 599/599 665/665 664/664
f 600/600 601/601 666/666
f 600/600 666/666 665/665
f 601/601 602/602 667/667
f 601/601 667/667 666/666
f 602/602 603/603 668/668
f 602/602 668/668 667/667
f 603/603 604/604 669/669
f 603/603 669/669 668/668
f 604/604 605/605 670/670
f 604/604 670/670 669/669
f 605/605 606/606 671/671
f 605/605 671/671 670/670
f 606/606 607/607 672/672
f 606/606 672/672 671/671
f 607/607 608/608 673/673
f 607/607 673/673 672/672
f 608/608 609/609 674/674
f 608/608 674/674 673/673
f 609/609 610/610 675/675
f 609/609 675/675 674/674
f 610/610 611/611 676/676
f 610/610 676/676 675/675
f 611/611 612/612 677/677
f 611/611 677/677 676/676
f 612/612 613/613 678/678
f 612/612 678/678 677/677
f 613/613 614/614 679/679
f 613/613 679/679 678/678
f 614/614 615/615 680/680
f 614/614 680/680 679/679
f 615/615 616/616 681/681
f 615/615 681/681 680/680
f 616/616 617/617 682/682
f 616/616 682/682 681/681
f 617/617 618/618 683/683
f 617/617 683/683 682/682
f 618/618 619/619 684/684
f 618/618 684/684 683/683
f 619/619 620/620 685/685
f 619/619 685/685 684/684
f 620/620 621/621 686/686
f 620/620 686/686 685/685
f 621/621 622/622 687/687
f 621/621 687/687 686/686
f 622/622 623/623 688/688
f 622/622 688/688 687/687
f 623/623 624/624 689/689
f 623/623 689/689 688/688
f 624/624 625/625 690/690
f 624/624 690/690 689/689
f 625/625 626/626 691/691
f 625/625 691/691 690/690
f 626/626 627/627 692/692
f 626/626 692/692 691/691
f 627/627 628/628 693/693
f 627/627 693/693 692/692
f 628/628 629/629 694/694
f 628/628 694/694 693/693
f 629/629 630/630 695/695
f 629/629 695/695 694/694
f 630/630 631/631 696/696
f 630/630 696/696 695/695
f 631/631 632/632 697/697
f 631/631 697/697 696/696
f 632/632 633/633 698/698
f 632/632 698/698 697/697
f 633/633 634/634 699/699
f 633/633 699/699 698/698
f 634/634 635/635 700/700
f 634/634 700/700 699/699
f 635/635 636/636 701/701
f 635/635 701/701 700/700
f 636/636 637/637 702/702
f 636/636 702/702 701/701
f 637/637 638/638 703/703
f 637/637 703/703 702/702
f 638/638 639/639 704/704
f 638/638 704/704 703/703
f 639/639 640/640 705/705
f 639/639 705/705 704/704
f 640/640 641/641 706/706
f 640/640 706/706 705/705
f 641/641 642/642 707/707
f 641/641 707/707 706/706
f 642/642 643/643 708/708
f 642/642 708/708 707/707
f 643/643 644/644 709/709
f 643/643 709/709 708/708
f 644/644 645/645 710/710
f 644/644 710/710 709/709
f 645/645 646/646 711/711
f 645/645 711/711 710/710
f 646/646 647/647 712/712
f 646/646 712/712 711/711
f 647/647 648/648 713/713
f 647/647 713/713 712/712
f 648/648 649/649 714/714
f 648/648 714/714 713/713
f 649/649 650/650 715/715
f 649/649 715/715 714/714
f 651/651 652/652 717/717
f 651/651 717/717 716/716
f 652/652 653/653 718/718
f 652/652 718/718 717/717
f 653/653 654/654 719/719
f 653/653 719/719 718/718
f 654/654 655/655 720/720
f 654/654 720/720 719/719
f 655/655 656/656 721/721
f 655/655 721/721 720/720
f 656/656 657/657 722/722
f 656/656 722/722 721/721
f 657/657 658/658 723/723
f 657/657 723/723 722/722
f 658/658 659/659 724/724
f 658/658 724/724 723/723
f 659/659 660/660 725/725
f 659/659 725/725 724/724
f 660/660 661/661 726/726
f 660/660 726/726 725/725
f 661/661 662/662 727/727
f 661/661 727/727 726/726
f 662/662 663/663 728/728
f 662/662 728/728 727/727
f 663/663 664/664 729/729
f 663/663 729/729 728/728
f 664/664 665/665 730/730
f 664/664 730/730 729/729
f 665/665 666/666 731/731
f 665/665 731/731 730/730
f 666/666 667/667 732/732
f 666/666 732/732 731/731
f 667/667 668/668 733/733
f 667/667 733/733 732/732
f 668/668 669/669 734/734
f 668/668 734/734 733/733
f 669/669 670/670 735/735
f 669/669 735/735 734/734
f 670/670 671/671 736/736
f 670/670 736/736 735/735
f 671/671 672/672 737/737
f 671/671 737/737 736/736
f 672/672 673/673 738/738
f 672/672 738/738 737/737
f 673/673 674/674 739/739
f 673/673 739/739 738/738
f 674/674 675/675 740/740
f 674/674 740/740 739/739
f 675/675 676/676 741/741
f 675/675 741/741 740/740
f 676/676 677/677 742/742
f 676/676 742/742 741/741
f 677/677 678/678 743/743
f 677/677 743/743 742/742
f 678/678 679/679 744/744
f 678/678 744/744 743/743
f 679/679 680/680 745/745
f 679/679 745/745 744/744
f 680/680 681/681 746/746
f 680/680 746/746 745/745
f 681/681 682/682 747/747
f 681/681 747/747 746/746
f 682/682 683/683 748/748
f 682/682 748/748 747/747
f 683/683 684/684 749/749
f 683/683 749/749 748/748
f 684/684 685/685 750/750
f 684/684 750/750 749/749
f 685/685 686/686 751/751
f 685/685 751/751 750/750
f 686/686 687/687 752/752
f 686/686 752/752 751/751
f 687/687 688/688 753/753
f 687/687 753/753 752/752
f 688/688 689/689 754/754
f 688/688 754/754 753/753
f 689/689 690/690 755/755
f 689/689 755/755 754/754
f 690/690 691/691 756/756
f 690/690 756/756 755/755
f 691/691 692/692 757/757
f 691/691 757/757 756/756
f 692/692 693/693 758/758
f 692/692 758/758 757/757
f 693/693 694/694 759/759
f 693/693 759/759 758/758
f 694/694 695/695 760/760
f 694/694 760/760 759/759
f 695/695 696/696 761/761
f 695/695 761/761 760/760
f 696/696 697/697 762/762
f 696/696 762/762 761/761
f 697/697 698/698 763/763
f 697/697 763/763 762/762
f 698/698 699/699 764/764
f 698/698 764/764 763/763
f 699/699 700/700 765/765
f 699/699 765/765 764/764
f 700/700 701/701 766/766
f 700/700 766/766 765/765
f 701/701 702/702 767/767
f 701/701 767/767 766/766
f 702/702 703/703 768/768
f 702/702 768/768 767/767
f 703/703 704/704 769/769
f 703/703 769/769 768/768
f 704/704 705/705 770/770
f 704/704 770/770 769/769
f 705/705 706/706 771/771
f 705/705 771/771 770/770
f 706/706 707/707 772/772
f 706/706 772/772 771/771
f 707/707 708/708 773/773
f 707/707 773/773 772/772
f 708/708 709/709 774/774
f 708/708 774/774 773/773
f 709/709 710/710 775/775
f 709/709 775/775 774/774
f 710/710 711/711 776/776
f 710/710 776/776 775/775
f 711/711 712/712 777/777
f 711/711 777/777 776/776
f 712/712 713/713 778/778
f 712/712 778/778 777/777
f 713/713 714/714 779/779
f 713/713 779/779 778/778
f 714/714 715/715 780/780
f 714/714 780/780 779/779
f 716/716 717/717 782/782
f 716/716 782/782 781/781
f 717/717 718/718 783/783
f 717/717 783/783 782/782
f 718/718 719/719 784/784
f 718/718 784/784 783/783
f 719/719 720/720 785/785
f 719/719 785/785 784/784
f 720/720 721/721 786/786
f 720/720 786/786 785/785
f 721/721 722/722 787/787
f 721/721 787/787 786/786
f 722/722 723/723 788/788
f 722/722 788/788 787/787
f 723/723 724/724 789/789
f 723/723 789/789 788/788
f 724/724 725/725 790/790
f 724/724 790/790 789/789
f 725/725 726/726 791/791
f 725/725 791/791 790/790
f 726/726 727/727 792/792
f 726/726 792/792 791/791
f 727/727 728/728 793/793
f 727/727 793/793 792/792
f 728/728 729/729 794/794
f 728/728 794/794 793/793
f 729/729 730/730 795/795
f 729/729 795/795 794/794
f 730/730 731/731 796/796
f 730/730 796/796 795/795
f 731/731 732/732 797/797
f 731/731 797/797 796/796
f 732/732 733/733 798/798
f 732/732 798/798 797/797
f 733/733 734/734 799/799
f 733/733 799/799 798/798
f 734/734 735/735 800/800
f 734/734 800/800 799/799
f 735/735 736/736 801/801
f 735/735 801/801 800/800
f 736/736 737/737 802/802
f 736/736 802/802 801/801
f 737/737 738/738 803/803
f 737/737 803/803 802/802
f 738/738 739/739 804/804
f 738/738 804/804 803/803
f 739/739 740/740 805/805
f 739/739 805/805 804/804
f 740/740 741/741 806/806
f 740/740 806/806 805/805
f 741/741 742/742 807/807
f 741/741 807/807 806/806
f 742/742 743/743 808/808
f 742/742 808/808 807/807
f 743/743 744/744 809/809
f 743/743 809/809 808/808
f 744/744 745/745 810/810
f 744/744 810/810 809/809
f 745/745 746/746 811/811
f 745/745 811/811 810/810
f 746/746 747/747 812/812
f 746/746 812/812 811/811
f 747/747 748/748 813/813
f 747/747 813/813 812/812
f 748/748 749/749 814/814
f 748/748 814/814 813/813
f 749/749 750/750 815/815
f 749/749 815/815 814/814
f 750/750 751/751 816/816
f 750/750 816/816 815/815
f 751/751 752/752 817/817
f 751/751 817/817 816/816
f 752/752 753/753 818/818
f 752/752 818/818 817/817
f 753/753 754/754 819/819
f 753/753 819/819 818/818
f 754/754 755/755 820/820
f 754/754 820/820 819/819
f 755/755 756/756 821/821
f 755/755 821/821 820/820
f 756/756 757/757 822/822
f 756/756 822/822 821/821
f 757/757 758/758 823/823
f 757/757 823/823 822/822
f 758/758 759/759 824/824
f 758/758 824/824 823/823
f 759/759 760/760 825/825
f 759/759 825/825 824/824
f 760/760 761/761 826/826
f 760/760 826/826 825/825
f 761/761 762/762 827/827
f 761/761 827/827 826/826
f 762/762 763/763 828/828
f 762/762 828/828 827/827
f 763/763 764/764 829/829
f 763/763 829/829 828/828
f 764/764 765/765 830/830
f 764/764 830/830 829/829
f 765/765 766/766 831/831
f 765/765 831/831 830/830
f 766/766 767/767 832/832
f 766/766 832/832 831/831
f 767/767 768/768 833/833
f 767/767 833/833 832/832
f 768/768 769/769 834/834
f 768/768 834/834 833/833
f 769/769 770/770 835/835
f 769/769 835/835 834/834
f 770/770 771/771 836/836
f 770/770 836/836 835/835
f 771/771 772/772 837/837
f 771/771 837/837 836/836
f 772/772 773/773 838/838
f 772/772 838/838 837/837
f 773/773 774/774 839/839
f 773/773 839/839 838/838
f 774/774 775/775 840/840
f 774/774 840/840 839/839
f 775/775 776/776 841/841
f 775/775 841/841 840/840
f 776/776 777/777 842/842
f 776/776 842/842 841/841
f 777/777 778/778 843/843
f 777/777 843/843 842/842
f 778/778 779/779 844/844
f 778/778 844/844 843/843
f 779/779 780/780 845/845
f 779/779 845/845 844/844
f 781/781 782/782 847/847
f 781/781 847/847 846/846
f 782/782 783/783 848/848
f 782/782 848/848 847/847
f 783/783 784/784 849/849
f 783/783 849/849 848/848
f 784/784 785/785 850/850
f 784/784 850/850 849/849
f 785/785 786/786 851/851
f 785/785 851/851 850/850
f 786/786 787/787 852/852
f 786/786 852/852 851/851
f 787/787 788/788 853/853
f 787/787 853/853 852/852
f 788/788 789/789 854/854
f 788/788 854/854 853/853
f 789/789 790/790 855/855
f 789/789 855/855 854/854
f 790/790 791/791 856/856
f 790/790 856/856 855/855
f 791/791 792/792 857/857
f 791/791 857/857 856/856
f 792/792 793/793 858/858
f 792/792 858/858 857/857
f 793/793 794/794 859/859
f 793/793 859/859 858/858
f 794/794 795/795 860/860
f 794/794 860/860 859/859
f 795/795 796/796 861/861
f 795/795 861/861 860/860
f 796/796 797/797 862/862
f 796/796 862/862 861/861
f 797/797 798/798 863/863
f 797/797 863/863 862/862
f 798/798 799/799 864/864
f 798/798 864/864 863/863
f 799/799 800/800 865/865
f 799/799 865/865 864/864
f 800/800 801/801 866/866
f 800/800 866/866 865/865
f 801/801 802/802 867/867
f 801/801 867/867 866/866
f 802/802 803/803 868/868
f 802/802 868/868 867/867
f 803/803 804/804 869/869
f 803/803 869/869 868/868
f 804/804 805/805 870/870
f 804/804 870/870 869/869
f 805/805 806/806 871/871
f 805/805 871/871 870/870
f 806/806 807/807 872/872
f 806/806 872/872 871/871
f 807/807 808/808 873/873
f 807/807 873/873 872/872
f 808/808 809/809 874/874
f 808/808 874/874 873/873
f 809/809 810/810 875/875
f 809/809 875/875 874/874
f 810/810 811/811 876/876
f 810/810 876/876 875/875
f 811/811 812/812 877/877
f 811/811 877/877 876/876
f 812/812 813/813 878/878
f 812/812 878/878 877/877
f 813/813 814/814 879/879
f 813/813 879/879 878/878
f 814/814 815/815 880/880
f 814/814 880/880 879/879
f 815/815 816/816 881/881
f 815/815 881/881 880/880
f 816/816 817/817 882/882
f 816/816 882/882 881/881
f 817/817 818/818 883/883
f 817/817 883/883 882/882
f 818/818 819/819 884/884
f 818/818 884/884 883/883
f 819/819 820/820 885/885
f 819/819 885/885 884/884
f 820/820 821/821 886/886
f 820/820 886/886 885/885
f 821/821 822/822 887/887
f 821/821 887/887 886/886
f 822/822 823/823 888/888
f 822/822 888/888 887/887
f 823/823 824/824 889/889
f 823/823 889/889 888/888
f 824/824 825/825 890/890
f 824/824 890/890 889/889
f 825/825 826/826 891/891
f 825/825 891/891 890/890
f 826/826 827/827 892/892
f 826/826 892/892 891/891
f 827/827 828/828 893/893
f 827/827 893/893 892/892
f 828/828 829/829 894/894
f 828/828 894/894 893/893
f 829/829 830/830 895/895
f 829/829 895/895 894/894
f 830/830 831/831 896/896
f 830/830 896/896 895/895
f 831/831 832/832 897/897
f 831/831 897/897 896/896
f 832/832 833/833 898/898
f 832/832 898/898 897/897
f 833/833 834/834 899/899
f 833/833 899/899 898/898
f 834/834 835/835 900/900
f 834/834 900/900 899/899
f 835/835 836/836 901/901
f 835/835 901/901 900/900
f 836/836 837/837 902/902
f 836/836 902/902 901/901
f 837/837 838/838 903/903
f 837/837 903/903 902/902
f 838/838 839/839 904/904
f 838/838 904/904 903/903
f 839/839 840/840 905/905
f 839/839 905/905 904/904
f 840/840 841/841 906/906
f 840/840 906/906 905/905
f 841/841 842/842 907/907
f 841/841 907/907 906/906
f 842/842 843/843 908/908
f 842/842 908/908 907/907
f 843/843 844/844 909/909
f 843/843 909/909 908/908
f 844/844 845/845 910/910
f 844/844 910/910 909/909
