mtllib weather_phase_field.mtl
o weather_phase_field
v 2.850000 -5.000000 0.000000
v 3.000000 -5.000000 0.000000
v 3.150000 -5.000000 0.000000
v 2.904546 -4.900000 0.219414
v 3.054120 -4.900000 0.230713
v 3.203694 -4.900000 0.242012
v 2.941813 -4.800000 0.447008
v 3.090111 -4.800000 0.469542
v 3.238409 -4.800000 0.492076
v 2.960824 -4.700000 0.681383
v 3.107003 -4.700000 0.715024
v 3.253182 -4.700000 0.748664
v 2.960716 -4.600000 0.921027
v 3.103946 -4.600000 0.965583
v 3.247176 -4.600000 1.010139
v 2.940761 -4.500000 1.164330
v 3.080228 -4.500000 1.219548
v 3.219694 -4.500000 1.274767
v 2.900368 -4.400000 1.409595
v 3.035279 -4.400000 1.475162
v 3.170190 -4.400000 1.540729
v 2.839100 -4.300000 1.655050
v 2.968688 -4.300000 1.730594
v 3.098277 -4.300000 1.806137
v 2.756676 -4.200000 1.898865
v 2.880206 -4.200000 1.983955
v 3.003736 -4.200000 2.069045
v 2.652986 -4.100000 2.139161
v 2.769755 -4.100000 2.233315
v 2.886524 -4.100000 2.327468
v 2.528088 -4.000000 2.374033
v 2.637433 -4.000000 2.476715
v 2.746779 -4.000000 2.579397
v 2.382220 -3.900000 2.601560
v 2.483520 -3.900000 2.712187
v 2.584820 -3.900000 2.822814
v 2.215798 -3.800000 2.819826
v 2.308477 -3.800000 2.937769
v 2.401156 -3.800000 3.055713
v 2.029419 -3.700000 3.026937
v 2.112951 -3.700000 3.151527
v 2.196482 -3.700000 3.276116
v 1.823859 -3.600000 3.221036
v 1.897768 -3.600000 3.351564
v 1.971677 -3.600000 3.482091
v 1.600070 -3.500000 3.400323
v 1.663937 -3.500000 3.536047
v 1.727804 -3.500000 3.671771
v 1.359179 -3.400000 3.563070
v 1.412641 -3.400000 3.703220
v 1.466103 -3.400000 3.843369
v 1.102478 -3.300000 3.707642
v 1.145231 -3.300000 3.851420
v 1.187984 -3.300000 3.995198
v 0.831418 -3.200000 3.832507
v 0.863220 -3.200000 3.979097
v 0.895021 -3.200000 4.125687
v 0.547602 -3.100000 3.936259
v 0.568270 -3.100000 4.084828
v 0.588939 -3.100000 4.233397
v 0.252768 -3.000000 4.017627
v 0.262186 -3.000000 4.167331
v 0.271605 -3.000000 4.317035
v -0.051217 -2.900000 4.075492
v -0.053102 -2.900000 4.225480
v -0.054987 -2.900000 4.375469
v -0.362373 -2.800000 4.108900
v -0.375551 -2.800000 4.258320
v -0.388728 -2.800000 4.407740
v -0.678624 -2.700000 4.117069
v -0.703019 -2.700000 4.265072
v -0.727415 -2.700000 4.413075
v -0.997812 -2.600000 4.099406
v -1.033286 -2.600000 4.245151
v -1.068761 -2.600000 4.390895
v -1.317714 -2.500000 4.055508
v -1.364067 -2.500000 4.198167
v -1.410420 -2.500000 4.340825
v -1.636065 -2.400000 3.985175
v -1.693031 -2.400000 4.123936
v -1.749998 -2.400000 4.262698
v -1.950567 -2.300000 3.888409
v -2.017824 -2.300000 4.022485
v -2.085082 -2.300000 4.156561
v -2.258918 -2.200000 3.765422
v -2.336084 -2.200000 3.894051
v -2.413249 -2.200000 4.022680
v -2.558826 -2.100000 3.616636
v -2.645462 -2.100000 3.739087
v -2.732098 -2.100000 3.861538
v -2.848032 -2.000000 3.442679
v -2.943646 -2.000000 3.558256
v -3.039259 -2.000000 3.673833
v -3.124326 -1.900000 3.244388
v -3.228374 -1.900000 3.352434
v -3.332422 -1.900000 3.460481
v -3.385570 -1.800000 3.022799
v -3.497461 -1.800000 3.122700
v -3.609352 -1.800000 3.222602
v -3.629714 -1.700000 2.779144
v -3.748813 -1.700000 2.870333
v -3.867912 -1.700000 2.961523
v -3.854818 -1.600000 2.514842
v -3.980447 -1.600000 2.596801
v -4.106076 -1.600000 2.678760
v -4.059064 -1.500000 2.231489
v -4.190510 -1.500000 2.303752
v -4.321956 -1.500000 2.376015
v -4.240779 -1.400000 1.930847
v -4.377295 -1.400000 1.993003
v -4.513811 -1.400000 2.055160
v -4.398446 -1.300000 1.614828
v -4.539256 -1.300000 1.666524
v -4.680066 -1.300000 1.718220
v -4.530720 -1.200000 1.285482
v -4.675024 -1.200000 1.326424
v -4.819329 -1.200000 1.367367
v -4.636440 -1.100000 0.944980
v -4.783419 -1.100000 0.974937
v -4.930397 -1.100000 1.004893
v -4.714641 -1.000000 0.595598
v -4.863458 -1.000000 0.614398
v -5.012276 -1.000000 0.633198
v -4.764562 -0.900000 0.239695
v -4.914372 -0.900000 0.247232
v -5.064183 -0.900000 0.254768
v -4.785654 -0.800000 -0.120302
v -4.935607 -0.800000 -0.124071
v -5.085560 -0.800000 -0.127841
v -4.777589 -0.700000 -0.481920
v -4.926832 -0.700000 -0.496975
v -5.076074 -0.700000 -0.512029
v -4.740258 -0.600000 -0.842662
v -4.887943 -0.600000 -0.868915
v -5.035628 -0.600000 -0.895168
v -4.673779 -0.500000 -1.200022
v -4.819066 -0.500000 -1.237326
v -4.964354 -0.500000 -1.274629
v -4.578490 -0.400000 -1.551515
v -4.720555 -0.400000 -1.599657
v -4.862620 -0.400000 -1.647798
v -4.454956 -0.300000 -1.894688
v -4.592991 -0.300000 -1.953394
v -4.731026 -0.300000 -2.012101
v -4.303957 -0.200000 -2.227149
v -4.437177 -0.200000 -2.296086
v -4.570398 -0.200000 -2.365023
v -4.126483 -0.100000 -2.546579
v -4.254133 -0.100000 -2.625355
v -4.381782 -0.100000 -2.704131
v -3.923732 0.000000 -2.850758
v -4.045085 0.000000 -2.938926
v -4.166438 0.000000 -3.027094
v -3.697094 0.100000 -3.137583
v -3.811460 0.100000 -3.234641
v -3.925826 0.100000 -3.331700
v -3.448140 0.200000 -3.405079
v -3.554870 0.200000 -3.510477
v -3.661601 0.200000 -3.615874
v -3.178613 0.300000 -3.651424
v -3.277101 0.300000 -3.764562
v -3.375589 0.300000 -3.877700
v -2.890410 0.400000 -3.874959
v -2.980096 0.400000 -3.995194
v -3.069781 0.400000 -4.115429
v -2.585566 0.500000 -4.074200
v -2.665940 0.500000 -4.200849
v -2.746314 0.500000 -4.327499
v -2.266239 0.600000 -4.247857
v -2.336845 0.600000 -4.380201
v -2.407450 0.600000 -4.512544
v -1.934690 0.700000 -4.394836
v -1.995126 0.700000 -4.532122
v -2.055562 0.700000 -4.669408
v -1.593263 0.800000 -4.514253
v -1.643185 0.800000 -4.655701
v -1.693108 0.800000 -4.797150
v -1.244367 0.900000 -4.605437
v -1.283493 0.900000 -4.750245
v -1.322620 0.900000 -4.895052
v -0.890457 1.000000 -4.667940
v -0.918564 1.000000 -4.815283
v -0.946672 1.000000 -4.962626
v -0.534010 1.100000 -4.701532
v -0.550938 1.100000 -4.850573
v -0.567866 1.100000 -4.999615
v -0.177504 1.200000 -4.706207
v -0.183157 1.200000 -4.856100
v -0.188811 1.200000 -5.005994
v 0.176598 1.300000 -4.682180
v 0.182251 1.300000 -4.832073
v 0.187905 1.300000 -4.981967
v 0.525872 1.400000 -4.629885
v 0.542800 1.400000 -4.778927
v 0.559729 1.400000 -4.927968
v 0.867953 1.500000 -4.549967
v 0.896060 1.500000 -4.697310
v 0.924167 1.500000 -4.844654
v 1.200553 1.600000 -4.443278
v 1.239679 1.600000 -4.588086
v 1.278805 1.600000 -4.732893
v 1.521479 1.700000 -4.310866
v 1.571402 1.700000 -4.452315
v 1.621325 1.700000 -4.593763
v 1.828654 1.800000 -4.153965
v 1.889090 1.800000 -4.291251
v 1.949526 1.800000 -4.428537
v 2.120126 1.900000 -3.973982
v 2.190732 1.900000 -4.106326
v 2.261338 1.900000 -4.238669
v 2.394092 2.000000 -3.772486
v 2.474466 2.000000 -3.899135
v 2.554840 2.000000 -4.025784
v 2.648904 2.100000 -3.551190
v 2.738590 2.100000 -3.671425
v 2.828276 2.100000 -3.791660
v 2.883085 2.200000 -3.311938
v 2.981573 2.200000 -3.425075
v 3.080061 2.200000 -3.538213
v 3.095338 2.300000 -3.056683
v 3.202069 2.300000 -3.162081
v 3.308799 2.300000 -3.267478
v 3.284554 2.400000 -2.787476
v 3.398921 2.400000 -2.884535
v 3.513287 2.400000 -2.981593
v 3.449821 2.500000 -2.506442
v 3.571174 2.500000 -2.594610
v 3.692526 2.500000 -2.682777
v 3.590426 2.600000 -2.215761
v 3.718075 2.600000 -2.294537
v 3.845724 2.600000 -2.373314
v 3.705859 2.700000 -1.917654
v 3.839080 2.700000 -1.986591
v 3.972300 2.700000 -2.055528
v 3.795816 2.800000 -1.614357
v 3.933851 2.800000 -1.673063
v 4.071886 2.800000 -1.731769
v 3.860197 2.900000 -1.308106
v 4.002261 2.900000 -1.356248
v 4.144326 2.900000 -1.404390
v 3.899100 3.000000 -1.001119
v 4.044387 3.000000 -1.038422
v 4.189675 3.000000 -1.075726
v 3.912823 3.100000 -0.695571
v 4.060507 3.100000 -0.721824
v 4.208192 3.100000 -0.748078
v 3.901853 3.200000 -0.393584
v 4.051096 3.200000 -0.408638
v 4.200339 3.200000 -0.423692
v 3.866861 3.300000 -0.097205
v 4.016814 3.300000 -0.100975
v 4.166767 3.300000 -0.104744
v 3.808691 3.400000 0.191607
v 3.958501 3.400000 0.199144
v 4.108312 3.400000 0.206680
v 3.728348 3.500000 0.471000
v 3.877165 3.500000 0.489800
v 4.025983 3.500000 0.508600
v 3.626991 3.600000 0.739238
v 3.773969 3.600000 0.769195
v 3.920947 3.600000 0.799151
v 3.505913 3.700000 0.994718
v 3.650218 3.700000 1.035660
v 3.794522 3.700000 1.076603
v 3.366533 3.800000 1.235975
v 3.507344 3.800000 1.287672
v 3.648154 3.800000 1.339368
v 3.210377 3.900000 1.461700
v 3.346893 3.900000 1.523856
v 3.483409 3.900000 1.586013
v 3.039061 4.000000 1.670738
v 3.170507 4.000000 1.743001
v 3.301953 4.000000 1.815264
v 2.854281 4.100000 1.862102
v 2.979910 4.100000 1.944061
v 3.105539 4.100000 2.026021
v 2.657787 4.200000 2.034974
v 2.776886 4.200000 2.126163
v 2.895985 4.200000 2.217353
v 2.451376 4.300000 2.188706
v 2.563267 4.300000 2.288608
v 2.675159 4.300000 2.388509
v 2.236867 4.400000 2.322826
v 2.340915 4.400000 2.430872
v 2.444963 4.400000 2.538918
v 2.016089 4.500000 2.437032
v 2.111702 4.500000 2.552609
v 2.207316 4.500000 2.668186
v 1.790860 4.600000 2.531196
v 1.877496 4.600000 2.653647
v 1.964132 4.600000 2.776098
v 1.562979 4.700000 2.605352
v 1.640145 4.700000 2.733981
v 1.717311 4.700000 2.862610
v 1.334201 4.800000 2.659698
v 1.401458 4.800000 2.793774
v 1.468716 4.800000 2.927850
v 1.106229 4.900000 2.694585
v 1.163196 4.900000 2.833346
v 1.220162 4.900000 2.972108
v 0.880698 5.000000 2.710511
v 0.927051 5.000000 2.853170
v 0.973404 5.000000 2.995828
v -1.425000 -5.000000 2.468172
v -1.500000 -5.000000 2.598076
v -1.575000 -5.000000 2.727980
v -1.642291 -4.900000 2.405704
v -1.726863 -4.900000 2.529589
v -1.811435 -4.900000 2.653474
v -1.858027 -4.800000 2.324181
v -1.951691 -4.800000 2.441344
v -2.045355 -4.800000 2.558506
v -2.070507 -4.700000 2.223457
v -2.172730 -4.700000 2.333231
v -2.274953 -4.700000 2.443006
v -2.277991 -4.600000 2.103542
v -2.388193 -4.600000 2.205305
v -2.498394 -4.600000 2.307067
v -2.478720 -4.500000 1.964609
v -2.596274 -4.500000 2.057781
v -2.713828 -4.500000 2.150953
v -2.670929 -4.400000 1.806995
v -2.795167 -4.400000 1.891048
v -2.919406 -4.400000 1.975100
v -2.852865 -4.300000 1.631208
v -2.983082 -4.300000 1.705663
v -3.113299 -4.300000 1.780118
v -3.022803 -4.200000 1.437919
v -3.158259 -4.200000 1.502354
v -3.293714 -4.200000 1.566789
v -3.179061 -4.100000 1.227972
v -3.318985 -4.100000 1.282021
v -3.458909 -4.100000 1.336069
v -3.320017 -4.000000 1.002372
v -3.463614 -4.000000 1.045727
v -3.607212 -4.000000 1.089082
v -3.444127 -3.900000 0.762283
v -3.590583 -3.900000 0.794698
v -3.737038 -3.900000 0.827113
v -3.549940 -3.800000 0.509025
v -3.698422 -3.800000 0.530315
v -3.846903 -3.800000 0.551606
v -3.636114 -3.700000 0.244060
v -3.785777 -3.700000 0.254106
v -3.935441 -3.700000 0.264151
v -3.701429 -3.600000 -0.031010
v -3.851423 -3.600000 -0.032266
v -4.001418 -3.600000 -0.033523
v -3.744801 -3.500000 -0.314460
v -3.894275 -3.500000 -0.327011
v -4.043749 -3.500000 -0.339563
v -3.765299 -3.400000 -0.604451
v -3.913403 -3.400000 -0.628227
v -4.061507 -3.400000 -0.652002
v -3.762151 -3.300000 -0.899047
v -3.908043 -3.300000 -0.933911
v -4.053935 -3.300000 -0.968775
v -3.734758 -3.200000 -1.196224
v -3.877609 -3.200000 -1.241979
v -4.020460 -3.200000 -1.287733
v -3.682701 -3.100000 -1.493893
v -3.821700 -3.100000 -1.550278
v -3.960699 -3.100000 -1.606663
v -3.605751 -3.000000 -1.789910
v -3.740108 -3.000000 -1.856606
v -3.874464 -3.000000 -1.923301
v -3.503871 -2.900000 -2.082101
v -3.632823 -2.900000 -2.158728
v -3.761774 -2.900000 -2.235354
v -3.377225 -2.800000 -2.368274
v -3.500038 -2.800000 -2.454396
v -3.622851 -2.800000 -2.540518
v -3.226175 -2.700000 -2.646240
v -3.342151 -2.700000 -2.741369
v -3.458128 -2.700000 -2.836497
v -3.051284 -2.600000 -2.913833
v -3.159765 -2.600000 -3.017428
v -3.268246 -2.600000 -3.121022
v -2.853316 -2.500000 -3.168928
v -2.953685 -2.500000 -3.280400
v -3.054055 -2.500000 -3.391872
v -2.633230 -2.400000 -3.409461
v -2.724918 -2.400000 -3.528176
v -2.816605 -2.400000 -3.646892
v -2.392177 -2.300000 -3.633445
v -2.474662 -2.300000 -3.758729
v -2.557147 -2.300000 -3.884014
v -2.131493 -2.200000 -3.838991
v -2.204306 -2.200000 -3.970133
v -2.277119 -2.200000 -4.101275
v -1.852686 -2.100000 -4.024326
v -1.915413 -2.100000 -4.160581
v -1.978141 -2.100000 -4.296835
v -1.557432 -2.000000 -4.187808
v -1.609718 -2.000000 -4.328400
v -1.662003 -2.000000 -4.468992
v -1.247559 -1.900000 -4.327940
v -1.289106 -1.900000 -4.472071
v -1.330653 -1.900000 -4.616203
v -0.925035 -1.800000 -4.443389
v -0.955607 -1.800000 -4.590241
v -0.986179 -1.800000 -4.737092
v -0.591952 -1.700000 -4.532997
v -0.611375 -1.700000 -4.681734
v -0.630798 -1.700000 -4.830471
v -0.250508 -1.600000 -4.595791
v -0.258672 -1.600000 -4.745569
v -0.266836 -1.600000 -4.895346
v 0.097006 -1.500000 -4.630997
v 0.100147 -1.500000 -4.780964
v 0.103288 -1.500000 -4.930931
v 0.448227 -1.400000 -4.638046
v 0.462656 -1.400000 -4.787350
v 0.477085 -1.400000 -4.936655
v 0.800741 -1.300000 -4.616580
v 0.826376 -1.300000 -4.764373
v 0.852011 -1.300000 -4.912167
v 1.152100 -1.200000 -4.566460
v 1.188795 -1.200000 -4.711902
v 1.225490 -1.200000 -4.857345
v 1.499844 -1.100000 -4.487765
v 1.547390 -1.100000 -4.630030
v 1.594936 -1.100000 -4.772296
v 1.841518 -1.000000 -4.380798
v 1.899645 -1.000000 -4.519077
v 1.957773 -1.000000 -4.657357
v 2.174699 -0.900000 -4.246079
v 2.243077 -0.900000 -4.379587
v 2.311456 -0.900000 -4.513095
v 2.497012 -0.800000 -4.084347
v 2.575253 -0.800000 -4.212325
v 2.653493 -0.800000 -4.340303
v 2.806150 -0.700000 -3.896553
v 2.893808 -0.700000 -4.018274
v 2.981467 -0.700000 -4.139995
v 3.099895 -0.600000 -3.683853
v 3.196474 -0.600000 -3.798625
v 3.293052 -0.600000 -3.913397
v 3.376139 -0.500000 -3.447600
v 3.481089 -0.500000 -3.554771
v 3.586038 -0.500000 -3.661942
v 3.632897 -0.400000 -3.189332
v 3.745621 -0.400000 -3.288292
v 3.858345 -0.400000 -3.387253
v 3.868327 -0.300000 -2.910761
v 3.988185 -0.300000 -3.000950
v 4.108043 -0.300000 -3.091138
v 4.080746 -0.200000 -2.613762
v 4.207057 -0.200000 -2.694665
v 4.333368 -0.200000 -2.775569
v 4.268644 -0.100000 -2.300350
v 4.400690 -0.100000 -2.371509
v 4.532737 -0.100000 -2.442669
v 4.430695 0.000000 -1.972673
v 4.567727 0.000000 -2.033683
v 4.704759 0.000000 -2.094694
v 4.565773 0.100000 -1.632986
v 4.707012 0.100000 -1.683501
v 4.848250 0.100000 -1.734016
v 4.672955 0.200000 -1.283637
v 4.817597 0.200000 -1.323370
v 4.962239 0.200000 -1.363102
v 4.751533 0.300000 -0.927047
v 4.898757 0.300000 -0.955772
v 5.045981 0.300000 -0.984496
v 4.801018 0.400000 -0.565689
v 4.949987 0.400000 -0.583242
v 5.098957 0.400000 -0.600794
v 4.821144 0.500000 -0.202066
v 4.971012 0.500000 -0.208347
v 5.120881 0.500000 -0.214628
v 4.811872 0.600000 0.161308
v 4.961787 0.600000 0.166333
v 5.111703 0.600000 0.171359
v 4.773384 0.700000 0.521928
v 4.922496 0.700000 0.538232
v 5.071607 0.700000 0.554536
v 4.706089 0.800000 0.877320
v 4.853548 0.800000 0.904810
v 5.001008 0.800000 0.932300
v 4.610609 0.900000 1.225065
v 4.755579 0.900000 1.263584
v 4.900549 0.900000 1.302104
v 4.487783 1.000000 1.562811
v 4.629440 1.000000 1.612141
v 4.771096 1.000000 1.661471
v 4.338651 1.100000 1.888300
v 4.476189 1.100000 1.948160
v 4.613727 1.100000 2.008021
v 4.164447 1.200000 2.199380
v 4.297085 1.200000 2.269431
v 4.429723 1.200000 2.339482
v 3.966588 1.300000 2.494028
v 4.093573 1.300000 2.573871
v 4.220558 1.300000 2.653714
v 3.746662 1.400000 2.770361
v 3.867272 1.400000 2.859542
v 3.987882 1.400000 2.948723
v 3.506411 1.500000 3.026653
v 3.619960 1.500000 3.124666
v 3.733509 1.500000 3.222679
v 3.247716 1.600000 3.261348
v 3.353559 1.600000 3.367636
v 3.459403 1.600000 3.473924
v 2.972580 1.700000 3.473073
v 3.070117 1.700000 3.587032
v 3.167653 1.700000 3.700990
v 2.683112 1.800000 3.660643
v 2.771787 1.800000 3.781625
v 2.860463 1.800000 3.902607
v 2.381506 1.900000 3.823074
v 2.460816 1.900000 3.950392
v 2.540126 1.900000 4.077710
v 2.070022 2.000000 3.959588
v 2.139517 2.000000 4.092518
v 2.209011 2.000000 4.225449
v 1.750969 2.100000 4.069614
v 1.810252 2.100000 4.207401
v 1.869536 2.100000 4.345189
v 1.426680 2.200000 4.152794
v 1.475416 2.200000 4.294656
v 1.524152 2.200000 4.436518
v 1.099496 2.300000 4.208983
v 1.137408 2.300000 4.354113
v 1.175320 2.300000 4.499243
v 0.771748 2.400000 4.238246
v 0.798620 2.400000 4.385819
v 0.825492 2.400000 4.533393
v 0.445732 2.500000 4.240854
v 0.461411 2.500000 4.390032
v 0.477090 2.500000 4.539210
v 0.123693 2.600000 4.217281
v 0.128090 2.600000 4.367216
v 0.132488 2.600000 4.517152
v -0.192193 2.700000 4.168195
v -0.199102 2.700000 4.318036
v -0.206011 2.700000 4.467877
v -0.499834 2.800000 4.094452
v -0.518011 2.800000 4.243347
v -0.536187 2.800000 4.392241
v -0.797245 2.900000 3.997082
v -0.826585 2.900000 4.144184
v -0.855926 2.900000 4.291286
v -1.082556 3.000000 3.877279
v -1.122894 3.000000 4.021753
v -1.163232 3.000000 4.166228
v -1.354029 3.100000 3.736389
v -1.405136 3.100000 3.877415
v -1.456242 3.100000 4.018440
v -1.610073 3.200000 3.575896
v -1.671657 3.200000 3.712671
v -1.733241 3.200000 3.849446
v -1.849248 3.300000 3.397403
v -1.920960 3.300000 3.529150
v -1.992672 3.300000 3.660898
v -2.070282 3.400000 3.202619
v -2.151714 3.400000 3.328591
v -2.233146 3.400000 3.454562
v -2.272072 3.500000 2.993344
v -2.362762 3.500000 3.112824
v -2.453452 3.500000 3.232303
v -2.453694 3.600000 2.771447
v -2.553127 3.600000 2.883756
v -2.652559 3.600000 2.996064
v -2.614407 3.700000 2.538851
v -2.722017 3.700000 2.643351
v -2.829627 3.700000 2.747851
v -2.753653 3.800000 2.297516
v -2.868828 3.800000 2.393613
v -2.984004 3.800000 2.489710
v -2.871058 3.900000 2.049418
v -2.993145 3.900000 2.136566
v -3.115231 3.900000 2.223714
v -2.966432 4.000000 1.796535
v -3.094737 4.000000 1.874239
v -3.223042 4.000000 1.951943
v -3.039768 4.100000 1.540828
v -3.173561 4.100000 1.608647
v -3.307355 4.100000 1.676465
v -3.091233 4.200000 1.284225
v -3.229754 4.200000 1.341772
v -3.368276 4.200000 1.399320
v -3.121163 4.300000 1.028601
v -3.263626 4.300000 1.075551
v -3.406089 4.300000 1.122501
v -3.130060 4.400000 0.775771
v -3.275655 4.400000 0.811856
v -3.421249 4.400000 0.847941
v -3.118576 4.500000 0.527468
v -3.266476 4.500000 0.552483
v -3.414375 4.500000 0.577498
v -3.087510 4.600000 0.285333
v -3.236874 4.600000 0.299136
v -3.386237 4.600000 0.312940
v -3.037790 4.700000 0.050903
v -3.187769 4.700000 0.053417
v -3.337748 4.700000 0.055930
v -2.970466 4.800000 -0.174397
v -3.120208 4.800000 -0.183189
v -3.269950 4.800000 -0.191980
v -2.886693 4.900000 -0.389270
v -3.035348 4.900000 -0.409316
v -3.184002 4.900000 -0.429362
v -2.787721 5.000000 -0.592548
v -2.934443 5.000000 -0.623735
v -3.081165 5.000000 -0.654922
v -1.425000 -5.000000 -2.468172
v -1.500000 -5.000000 -2.598076
v -1.575000 -5.000000 -2.727980
v -1.262255 -4.900000 -2.625117
v -1.327257 -4.900000 -2.760302
v -1.392259 -4.900000 -2.895486
v -1.083786 -4.800000 -2.771189
v -1.138420 -4.800000 -2.910886
v -1.193054 -4.800000 -3.050582
v -0.890317 -4.700000 -2.904840
v -0.934273 -4.700000 -3.048255
v -0.978229 -4.700000 -3.191670
v -0.682726 -4.600000 -3.024569
v -0.715754 -4.600000 -3.170888
v -0.748782 -4.600000 -3.317206
v -0.462041 -4.500000 -3.128939
v -0.483954 -4.500000 -3.277330
v -0.505866 -4.500000 -3.425720
v -0.229439 -4.400000 -3.216590
v -0.240112 -4.400000 -3.366210
v -0.250784 -4.400000 -3.515830
v 0.013766 -4.300000 -3.286258
v 0.014394 -4.300000 -3.436256
v 0.015022 -4.300000 -3.586255
v 0.266127 -4.200000 -3.336784
v 0.278052 -4.200000 -3.486309
v 0.289978 -4.200000 -3.635834
v 0.526075 -4.100000 -3.367133
v 0.549230 -4.100000 -3.515336
v 0.572385 -4.100000 -3.663538
v 0.791929 -4.000000 -3.376405
v 0.826181 -4.000000 -3.522442
v 0.860434 -4.000000 -3.668478
v 1.061907 -3.900000 -3.363843
v 1.107063 -3.900000 -3.506885
v 1.152218 -3.900000 -3.649927
v 1.334142 -3.800000 -3.328851
v 1.389944 -3.800000 -3.468085
v 1.445747 -3.800000 -3.607319
v 1.606695 -3.700000 -3.270997
v 1.672827 -3.700000 -3.405632
v 1.738959 -3.700000 -3.540267
v 1.877570 -3.600000 -3.190026
v 1.953655 -3.600000 -3.319297
v 2.029741 -3.600000 -3.448568
v 2.144731 -3.500000 -3.085863
v 2.230338 -3.500000 -3.209036
v 2.315945 -3.500000 -3.332208
v 2.406120 -3.400000 -2.958619
v 2.500762 -3.400000 -3.074993
v 2.595404 -3.400000 -3.191367
v 2.659673 -3.300000 -2.808595
v 2.762812 -3.300000 -2.917509
v 2.865951 -3.300000 -3.026423
v 2.903339 -3.200000 -2.636283
v 3.014390 -3.200000 -2.737119
v 3.125440 -3.200000 -2.837954
v 3.135099 -3.100000 -2.442366
v 3.253430 -3.100000 -2.534550
v 3.371760 -3.100000 -2.626735
v 3.352983 -3.000000 -2.227717
v 3.477921 -3.000000 -2.310725
v 3.602860 -3.000000 -2.393734
v 3.555088 -2.900000 -1.993391
v 3.685924 -2.900000 -2.066753
v 3.816760 -2.900000 -2.140114
v 3.739598 -2.800000 -1.740626
v 3.875588 -2.800000 -1.803924
v 4.011579 -2.800000 -1.867221
v 3.904798 -2.700000 -1.470829
v 4.045170 -2.700000 -1.523703
v 4.185542 -2.700000 -1.576578
v 4.049095 -2.600000 -1.185573
v 4.193051 -2.600000 -1.227723
v 4.337008 -2.600000 -1.269873
v 4.171030 -2.500000 -0.886580
v 4.317752 -2.500000 -0.917767
v 4.464475 -2.500000 -0.948953
v 4.269295 -2.400000 -0.575714
v 4.417949 -2.400000 -0.595760
v 4.566604 -2.400000 -0.615806
v 4.342744 -2.300000 -0.254964
v 4.492486 -2.300000 -0.263756
v 4.642228 -2.300000 -0.272547
v 4.390410 -2.200000 0.073569
v 4.540389 -2.200000 0.076082
v 4.690368 -2.200000 0.078595
v 4.411512 -2.100000 0.407690
v 4.560875 -2.100000 0.421494
v 4.710239 -2.100000 0.435297
v 4.405464 -2.000000 0.745128
v 4.553363 -2.000000 0.770144
v 4.701263 -2.000000 0.795159
v 4.371885 -1.900000 1.083552
v 4.517480 -1.900000 1.119637
v 4.663075 -1.900000 1.155722
v 4.310606 -1.800000 1.420590
v 4.453069 -1.800000 1.467540
v 4.595532 -1.800000 1.514490
v 4.221666 -1.700000 1.753853
v 4.360188 -1.700000 1.811401
v 4.498710 -1.700000 1.868948
v 4.105326 -1.600000 2.080949
v 4.239119 -1.600000 2.148768
v 4.372912 -1.600000 2.216586
v 3.962058 -1.500000 2.399508
v 4.090363 -1.500000 2.477212
v 4.218668 -1.500000 2.554916
v 3.792552 -1.400000 2.707199
v 3.914639 -1.400000 2.794347
v 4.036726 -1.400000 2.881495
v 3.597705 -1.300000 3.001752
v 3.712880 -1.300000 3.097849
v 3.828056 -1.300000 3.193946
v 3.378620 -1.200000 3.280978
v 3.486229 -1.200000 3.385478
v 3.593839 -1.200000 3.489977
v 3.136597 -1.100000 3.542785
v 3.236029 -1.100000 3.655094
v 3.335461 -1.100000 3.767403
v 2.873123 -1.000000 3.785200
v 2.963813 -1.000000 3.904680
v 3.054503 -1.000000 4.024159
v 2.589863 -0.900000 4.006384
v 2.671295 -0.900000 4.132356
v 2.752727 -0.900000 4.258327
v 2.288643 -0.800000 4.204649
v 2.360355 -0.800000 4.336397
v 2.432066 -0.800000 4.468144
v 1.971439 -0.700000 4.378474
v 2.033023 -0.700000 4.515249
v 2.094607 -0.700000 4.652024
v 1.640363 -0.600000 4.526515
v 1.691469 -0.600000 4.667540
v 1.742575 -0.600000 4.808566
v 1.297639 -0.500000 4.647622
v 1.337977 -0.500000 4.792097
v 1.378315 -0.500000 4.936571
v 0.945594 -0.400000 4.740847
v 0.974934 -0.400000 4.887949
v 1.004275 -0.400000 5.035051
v 0.586630 -0.300000 4.805450
v 0.604806 -0.300000 4.954344
v 0.622983 -0.300000 5.103239
v 0.223211 -0.200000 4.840910
v 0.230120 -0.200000 4.990751
v 0.237029 -0.200000 5.140592
v -0.142160 -0.100000 4.846929
v -0.146558 -0.100000 4.996864
v -0.150955 -0.100000 5.146800
v -0.506963 0.000000 4.823431
v -0.522642 0.000000 4.972609
v -0.538322 0.000000 5.121788
v -0.868680 0.100000 4.770569
v -0.895551 0.100000 4.918142
v -0.922423 0.100000 5.065715
v -1.224815 0.200000 4.688716
v -1.262727 0.200000 4.833846
v -1.300639 0.200000 4.978976
v -1.572920 0.300000 4.578472
v -1.621656 0.300000 4.720334
v -1.670392 0.300000 4.862196
v -1.910608 0.400000 4.440648
v -1.969891 0.400000 4.578435
v -2.029175 0.400000 4.716223
v -2.235578 0.500000 4.276266
v -2.305072 0.500000 4.409197
v -2.374567 0.500000 4.542127
v -2.545632 0.600000 4.086549
v -2.624943 0.600000 4.213867
v -2.704253 0.600000 4.341185
v -2.838695 0.700000 3.872908
v -2.927370 0.700000 3.993890
v -3.016045 0.700000 4.114873
v -3.112826 0.800000 3.636932
v -3.210363 0.800000 3.750891
v -3.307899 0.800000 3.864850
v -3.366242 0.900000 3.380372
v -3.472086 0.900000 3.486660
v -3.577930 0.900000 3.592948
v -3.597326 1.000000 3.105129
v -3.710875 1.000000 3.203142
v -3.824425 1.000000 3.301155
v -3.804641 1.100000 2.813232
v -3.925251 1.100000 2.902413
v -4.045861 1.100000 2.991594
v -3.986943 1.200000 2.506826
v -4.113927 1.200000 2.586669
v -4.240912 1.200000 2.666512
v -4.143186 1.300000 2.188152
v -4.275824 1.300000 2.258203
v -4.408462 1.300000 2.328253
v -4.272534 1.400000 1.859524
v -4.410072 1.400000 1.919385
v -4.547610 1.400000 1.979245
v -4.374364 1.500000 1.523315
v -4.516020 1.500000 1.572645
v -4.657677 1.500000 1.621975
v -4.448268 1.600000 1.181930
v -4.593238 1.600000 1.220449
v -4.738208 1.600000 1.258969
v -4.494059 1.700000 0.837793
v -4.641519 1.700000 0.865283
v -4.788978 1.700000 0.892773
v -4.511766 1.800000 0.493322
v -4.660877 1.800000 0.509626
v -4.809988 1.800000 0.525930
v -4.501632 1.900000 0.150908
v -4.651548 1.900000 0.155933
v -4.801464 1.900000 0.160959
v -4.464115 2.000000 -0.187102
v -4.613983 2.000000 -0.193383
v -4.763852 2.000000 -0.199665
v -4.399873 2.100000 -0.518423
v -4.548843 2.100000 -0.535976
v -4.697812 2.100000 -0.553529
v -4.309765 2.200000 -0.840856
v -4.456989 2.200000 -0.869580
v -4.604213 2.200000 -0.898305
v -4.194835 2.300000 -1.152300
v -4.339477 2.300000 -1.192032
v -4.484119 2.300000 -1.231765
v -4.056303 2.400000 -1.450769
v -4.197541 2.400000 -1.501284
v -4.338779 2.400000 -1.551799
v -3.895553 2.500000 -1.734412
v -4.032585 2.500000 -1.795422
v -4.169617 2.500000 -1.856433
v -3.714118 2.600000 -2.001519
v -3.846165 2.600000 -2.072679
v -3.978212 2.600000 -2.143838
v -3.513667 2.700000 -2.250541
v -3.639978 2.700000 -2.331445
v -3.766289 2.700000 -2.412349
v -3.295982 2.800000 -2.480095
v -3.415841 2.800000 -2.570284
v -3.535699 2.800000 -2.660472
v -3.062952 2.900000 -2.688975
v -3.175676 2.900000 -2.787936
v -3.288400 2.900000 -2.886897
v -2.816544 3.000000 -2.876160
v -2.921494 3.000000 -2.983331
v -3.026443 3.000000 -3.090502
v -2.558793 3.100000 -3.040819
v -2.655372 3.100000 -3.155591
v -2.751950 3.100000 -3.270362
v -2.291780 3.200000 -3.182312
v -2.379439 3.200000 -3.304033
v -2.467098 3.200000 -3.425754
v -2.017613 3.300000 -3.300197
v -2.095854 3.300000 -3.428175
v -2.174094 3.300000 -3.556153
v -1.738409 3.400000 -3.394226
v -1.806787 3.400000 -3.527735
v -1.875165 3.400000 -3.661243
v -1.456276 3.500000 -3.464344
v -1.514404 3.500000 -3.602624
v -1.572531 3.500000 -3.740903
v -1.173296 3.600000 -3.510685
v -1.220842 3.600000 -3.652950
v -1.268388 3.600000 -3.795216
v -0.891506 3.700000 -3.533569
v -0.928201 3.700000 -3.679011
v -0.964895 3.700000 -3.824454
v -0.612881 3.800000 -3.533491
v -0.638515 3.800000 -3.681285
v -0.664150 3.800000 -3.829078
v -0.339319 3.900000 -3.511118
v -0.353748 3.900000 -3.660422
v -0.368177 3.900000 -3.809727
v -0.072629 4.000000 -3.467273
v -0.075770 4.000000 -3.617240
v -0.078912 4.000000 -3.767208
v 0.185487 4.100000 -3.402931
v 0.193652 4.100000 -3.552708
v 0.201816 4.100000 -3.702486
v 0.433445 4.200000 -3.319198
v 0.452868 4.200000 -3.467935
v 0.472291 4.200000 -3.616673
v 0.669787 4.300000 -3.217307
v 0.700359 4.300000 -3.364159
v 0.730930 4.300000 -3.511010
v 0.893192 4.400000 -3.098597
v 0.934739 4.400000 -3.242728
v 0.976286 4.400000 -3.386859
v 1.102488 4.500000 -2.964500
v 1.154774 4.500000 -3.105092
v 1.207059 4.500000 -3.245685
v 1.296650 4.600000 -2.816528
v 1.359377 4.600000 -2.952783
v 1.422105 4.600000 -3.089037
v 1.474811 4.700000 -2.656255
v 1.547624 4.700000 -2.787397
v 1.620437 4.700000 -2.918539
v 1.636265 4.800000 -2.485300
v 1.718750 4.800000 -2.610585
v 1.801235 4.800000 -2.735870
v 1.780465 4.900000 -2.305315
v 1.872152 4.900000 -2.424030
v 1.963840 4.900000 -2.542746
v 1.907022 5.000000 -2.117963
v 2.007392 5.000000 -2.229434
v 2.107761 5.000000 -2.340906
vt 0.000000 0.000000
vt 0.500000 0.000000
vt 1.000000 0.000000
vt 0.000000 0.010000
vt 0.500000 0.010000
vt 1.000000 0.010000
vt 0.000000 0.020000
vt 0.500000 0.020000
vt 1.000000 0.020000
vt 0.000000 0.030000
vt 0.500000 0.030000
vt 1.000000 0.030000
vt 0.000000 0.040000
vt 0.500000 0.040000
vt 1.000000 0.040000
vt 0.000000 0.050000
vt 0.500000 0.050000
vt 1.000000 0.050000
vt 0.000000 0.060000
vt 0.500000 0.060000
vt 1.000000 0.060000
vt 0.000000 0.070000
vt 0.500000 0.070000
vt 1.000000 0.070000
vt 0.000000 0.080000
vt 0.500000 0.080000
vt 1.000000 0.080000
vt 0.000000 0.090000
vt 0.500000 0.090000
vt 1.000000 0.090000
vt 0.000000 0.100000
vt 0.500000 0.100000
vt 1.000000 0.100000
vt 0.000000 0.110000
vt 0.500000 0.110000
vt 1.000000 0.110000
vt 0.000000 0.120000
vt 0.500000 0.120000
vt 1.000000 0.120000
vt 0.000000 0.130000
vt 0.500000 0.130000
vt 1.000000 0.130000
vt 0.000000 0.140000
vt 0.500000 0.140000
vt 1.000000 0.140000
vt 0.000000 0.150000
vt 0.500000 0.150000
vt 1.000000 0.150000
vt 0.000000 0.160000
vt 0.500000 0.160000
vt 1.000000 0.160000
vt 0.000000 0.170000
vt 0.500000 0.170000
vt 1.000000 0.170000
vt 0.000000 0.180000
vt 0.500000 0.180000
vt 1.000000 0.180000
vt 0.000000 0.190000
vt 0.500000 0.190000
vt 1.000000 0.190000
vt 0.000000 0.200000
vt 0.500000 0.200000
vt 1.000000 0.200000
vt 0.000000 0.210000
vt 0.500000 0.210000
vt 1.000000 0.210000
vt 0.000000 0.220000
vt 0.500000 0.220000
vt 1.000000 0.220000
vt 0.000000 0.230000
vt 0.500000 0.230000
vt 1.000000 0.230000
vt 0.000000 0.240000
vt 0.500000 0.240000
vt 1.000000 0.240000
vt 0.000000 0.250000
vt 0.500000 0.250000
vt 1.000000 0.250000
vt 0.000000 0.260000
vt 0.500000 0.260000
vt 1.000000 0.260000
vt 0.000000 0.270000
vt 0.500000 0.270000
vt 1.000000 0.270000
vt 0.000000 0.280000
vt 0.500000 0.280000
vt 1.000000 0.280000
vt 0.000000 0.290000
vt 0.500000 0.290000
vt 1.000000 0.290000
vt 0.000000 0.300000
vt 0.500000 0.300000
vt 1.000000 0.300000
vt 0.000000 0.310000
vt 0.500000 0.310000
vt 1.000000 0.310000
vt 0.000000 0.320000
vt 0.500000 0.320000
vt 1.000000 0.320000
vt 0.000000 0.330000
vt 0.500000 0.330000
vt 1.000000 0.330000
vt 0.000000 0.340000
vt 0.500000 0.340000
vt 1.000000 0.340000
vt 0.000000 0.350000
vt 0.500000 0.350000
vt 1.000000 0.350000
vt 0.000000 0.360000
vt 0.500000 0.360000
vt 1.000000 0.360000
vt 0.000000 0.370000
vt 0.500000 0.370000
vt 1.000000 0.370000
vt 0.000000 0.380000
vt 0.500000 0.380000
vt 1.000000 0.380000
vt 0.000000 0.390000
vt 0.500000 0.390000
vt 1.000000 0.390000
vt 0.000000 0.400000
vt 0.500000 0.400000
vt 1.000000 0.400000
vt 0.000000 0.410000
vt 0.500000 0.410000
vt 1.000000 0.410000
vt 0.000000 0.420000
vt 0.500000 0.420000
vt 1.000000 0.420000
vt 0.000000 0.430000
vt 0.500000 0.430000
vt 1.000000 0.430000
vt 0.000000 0.440000
vt 0.500000 0.440000
vt 1.000000 0.440000
vt 0.000000 0.450000
vt 0.500000 0.450000
vt 1.000000 0.450000
vt 0.000000 0.460000
vt 0.500000 0.460000
vt 1.000000 0.460000
vt 0.000000 0.470000
vt 0.500000 0.470000
vt 1.000000 0.470000
vt 0.000000 0.480000
vt 0.500000 0.480000
vt 1.000000 0.480000
vt 0.000000 0.490000
vt 0.500000 0.490000
vt 1.000000 0.490000
vt 0.000000 0.500000
vt 0.500000 0.500000
vt 1.000000 0.500000
vt 0.000000 0.510000
vt 0.500000 0.510000
vt 1.000000 0.510000
vt 0.000000 0.520000
vt 0.500000 0.520000
vt 1.000000 0.520000
vt 0.000000 0.530000
vt 0.500000 0.530000
vt 1.000000 0.530000
vt 0.000000 0.540000
vt 0.500000 0.540000
vt 1.000000 0.540000
vt 0.000000 0.550000
vt 0.500000 0.550000
vt 1.000000 0.550000
vt 0.000000 0.560000
vt 0.500000 0.560000
vt 1.000000 0.560000
vt 0.000000 0.570000
vt 0.500000 0.570000
vt 1.000000 0.570000
vt 0.000000 0.580000
vt 0.500000 0.580000
vt 1.000000 0.580000
vt 0.000000 0.590000
vt 0.500000 0.590000
vt 1.000000 0.590000
vt 0.000000 0.600000
vt 0.500000 0.600000
vt 1.000000 0.600000
vt 0.000000 0.610000
vt 0.500000 0.610000
vt 1.000000 0.610000
vt 0.000000 0.620000
vt 0.500000 0.620000
vt 1.000000 0.620000
vt 0.000000 0.630000
vt 0.500000 0.630000
vt 1.000000 0.630000
vt 0.000000 0.640000
vt 0.500000 0.640000
vt 1.000000 0.640000
vt 0.000000 0.650000
vt 0.500000 0.650000
vt 1.000000 0.650000
vt 0.000000 0.660000
vt 0.500000 0.660000
vt 1.000000 0.660000
vt 0.000000 0.670000
vt 0.500000 0.670000
vt 1.000000 0.670000
vt 0.000000 0.680000
vt 0.500000 0.680000
vt 1.000000 0.680000
vt 0.000000 0.690000
vt 0.500000 0.690000
vt 1.000000 0.690000
vt 0.000000 0.700000
vt 0.500000 0.700000
vt 1.000000 0.700000
vt 0.000000 0.710000
vt 0.500000 0.710000
vt 1.000000 0.710000
vt 0.000000 0.720000
vt 0.500000 0.720000
vt 1.000000 0.720000
vt 0.000000 0.730000
vt 0.500000 0.730000
vt 1.000000 0.730000
vt 0.000000 0.740000
vt 0.500000 0.740000
vt 1.000000 0.740000
vt 0.000000 0.750000
vt 0.500000 0.750000
vt 1.000000 0.750000
vt 0.000000 0.760000
vt 0.500000 0.760000
vt 1.000000 0.760000
vt 0.000000 0.770000
vt 0.500000 0.770000
vt 1.000000 0.770000
vt 0.000000 0.780000
vt 0.500000 0.780000
vt 1.000000 0.780000
vt 0.000000 0.790000
vt 0.500000 0.790000
vt 1.000000 0.790000
vt 0.000000 0.800000
vt 0.500000 0.800000
vt 1.000000 0.800000
vt 0.000000 0.810000
vt 0.500000 0.810000
vt 1.000000 0.810000
vt 0.000000 0.820000
vt 0.500000 0.820000
vt 1.000000 0.820000
vt 0.000000 0.830000
vt 0.500000 0.830000
vt 1.000000 0.830000
vt 0.000000 0.840000
vt 0.500000 0.840000
vt 1.000000 0.840000
vt 0.000000 0.850000
vt 0.500000 0.850000
vt 1.000000 0.850000
vt 0.000000 0.860000
vt 0.500000 0.860000
vt 1.000000 0.860000
vt 0.000000 0.870000
vt 0.500000 0.870000
vt 1.000000 0.870000
vt 0.000000 0.880000
vt 0.500000 0.880000
vt 1.000000 0.880000
vt 0.000000 0.890000
vt 0.500000 0.890000
vt 1.000000 0.890000
vt 0.000000 0.900000
vt 0.500000 0.900000
vt 1.000000 0.900000
vt 0.000000 0.910000
vt 0.500000 0.910000
vt 1.000000 0.910000
vt 0.000000 0.920000
vt 0.500000 0.920000
vt 1.000000 0.920000
vt 0.000000 0.930000
vt 0.500000 0.930000
vt 1.000000 0.930000
vt 0.000000 0.940000
vt 0.500000 0.940000
vt 1.000000 0.940000
vt 0.000000 0.950000
vt 0.500000 0.950000
vt 1.000000 0.950000
vt 0.000000 0.960000
vt 0.500000 0.960000
vt 1.000000 0.960000
vt 0.000000 0.970000
vt 0.500000 0.970000
vt 1.000000 0.970000
vt 0.000000 0.980000
vt 0.500000 0.980000
vt 1.000000 0.980000
vt 0.000000 0.990000
vt 0.500000 0.990000
vt 1.000000 0.990000
vt 0.000000 1.000000
vt 0.500000 1.000000
vt 1.000000 1.000000
vt 0.000000 0.000000
vt 0.500000 0.000000
vt 1.000000 0.000000
vt 0.000000 0.010000
vt 0.500000 0.010000
vt 1.000000 0.010000
vt 0.000000 0.020000
vt 0.500000 0.020000
vt 1.000000 0.020000
vt 0.000000 0.030000
vt 0.500000 0.030000
vt 1.000000 0.030000
vt 0.000000 0.040000
vt 0.500000 0.040000
vt 1.000000 0.040000
vt 0.000000 0.050000
vt 0.500000 0.050000
vt 1.000000 0.050000
vt 0.000000 0.060000
vt 0.500000 0.060000
vt 1.000000 0.060000
vt 0.000000 0.070000
vt 0.500000 0.070000
vt 1.000000 0.070000
vt 0.000000 0.080000
vt 0.500000 0.080000
vt 1.000000 0.080000
vt 0.000000 0.090000
vt 0.500000 0.090000
vt 1.000000 0.090000
vt 0.000000 0.100000
vt 0.500000 0.100000
vt 1.000000 0.100000
vt 0.000000 0.110000
vt 0.500000 0.110000
vt 1.000000 0.110000
vt 0.000000 0.120000
vt 0.500000 0.120000
vt 1.000000 0.120000
vt 0.000000 0.130000
vt 0.500000 0.130000
vt 1.000000 0.130000
vt 0.000000 0.140000
vt 0.500000 0.140000
vt 1.000000 0.140000
vt 0.000000 0.150000
vt 0.500000 0.150000
vt 1.000000 0.150000
vt 0.000000 0.160000
vt 0.500000 0.160000
vt 1.000000 0.160000
vt 0.000000 0.170000
vt 0.500000 0.170000
vt 1.000000 0.170000
vt 0.000000 0.180000
vt 0.500000 0.180000
vt 1.000000 0.180000
vt 0.000000 0.190000
vt 0.500000 0.190000
vt 1.000000 0.190000
vt 0.000000 0.200000
vt 0.500000 0.200000
vt 1.000000 0.200000
vt 0.000000 0.210000
vt 0.500000 0.210000
vt 1.000000 0.210000
vt 0.000000 0.220000
vt 0.500000 0.220000
vt 1.000000 0.220000
vt 0.000000 0.230000
vt 0.500000 0.230000
vt 1.000000 0.230000
vt 0.000000 0.240000
vt 0.500000 0.240000
vt 1.000000 0.240000
vt 0.000000 0.250000
vt 0.500000 0.250000
vt 1.000000 0.250000
vt 0.000000 0.260000
vt 0.500000 0.260000
vt 1.000000 0.260000
vt 0.000000 0.270000
vt 0.500000 0.270000
vt 1.000000 0.270000
vt 0.000000 0.280000
vt 0.500000 0.280000
vt 1.000000 0.280000
vt 0.000000 0.290000
vt 0.500000 0.290000
vt 1.000000 0.290000
vt 0.000000 0.300000
vt 0.500000 0.300000
vt 1.000000 0.300000
vt 0.000000 0.310000
vt 0.500000 0.310000
vt 1.000000 0.310000
vt 0.000000 0.320000
vt 0.500000 0.320000
vt 1.000000 0.320000
vt 0.000000 0.330000
vt 0.500000 0.330000
vt 1.000000 0.330000
vt 0.000000 0.340000
vt 0.500000 0.340000
vt 1.000000 0.340000
vt 0.000000 0.350000
vt 0.500000 0.350000
vt 1.000000 0.350000
vt 0.000000 0.360000
vt 0.500000 0.360000
vt 1.000000 0.360000
vt 0.000000 0.370000
vt 0.500000 0.370000
vt 1.000000 0.370000
vt 0.000000 0.380000
vt 0.500000 0.380000
vt 1.000000 0.380000
vt 0.000000 0.390000
vt 0.500000 0.390000
vt 1.000000 0.390000
vt 0.000000 0.400000
vt 0.500000 0.400000
vt 1.000000 0.400000
vt 0.000000 0.410000
vt 0.500000 0.410000
vt 1.000000 0.410000
vt 0.000000 0.420000
vt 0.500000 0.420000
vt 1.000000 0.420000
vt 0.000000 0.430000
vt 0.500000 0.430000
vt 1.000000 0.430000
vt 0.000000 0.440000
vt 0.500000 0.440000
vt 1.000000 0.440000
vt 0.000000 0.450000
vt 0.500000 0.450000
vt 1.000000 0.450000
vt 0.000000 0.460000
vt 0.500000 0.460000
vt 1.000000 0.460000
vt 0.000000 0.470000
vt 0.500000 0.470000
vt 1.000000 0.470000
vt 0.000000 0.480000
vt 0.500000 0.480000
vt 1.000000 0.480000
vt 0.000000 0.490000
vt 0.500000 0.490000
vt 1.000000 0.490000
vt 0.000000 0.500000
vt 0.500000 0.500000
vt 1.000000 0.500000
vt 0.000000 0.510000
vt 0.500000 0.510000
vt 1.000000 0.510000
vt 0.000000 0.520000
vt 0.500000 0.520000
vt 1.000000 0.520000
vt 0.000000 0.530000
vt 0.500000 0.530000
vt 1.000000 0.530000
vt 0.000000 0.540000
vt 0.500000 0.540000
vt 1.000000 0.540000
vt 0.000000 0.550000
vt 0.500000 0.550000
vt 1.000000 0.550000
vt 0.000000 0.560000
vt 0.500000 0.560000
vt 1.000000 0.560000
vt 0.000000 0.570000
vt 0.500000 0.570000
vt 1.000000 0.570000
vt 0.000000 0.580000
vt 0.500000 0.580000
vt 1.000000 0.580000
vt 0.000000 0.590000
vt 0.500000 0.590000
vt 1.000000 0.590000
vt 0.000000 0.600000
vt 0.500000 0.600000
vt 1.000000 0.600000
vt 0.000000 0.610000
vt 0.500000 0.610000
vt 1.000000 0.610000
vt 0.000000 0.620000
vt 0.500000 0.620000
vt 1.000000 0.620000
vt 0.000000 0.630000
vt 0.500000 0.630000
vt 1.000000 0.630000
vt 0.000000 0.640000
vt 0.500000 0.640000
vt 1.000000 0.640000
vt 0.000000 0.650000
vt 0.500000 0.650000
vt 1.000000 0.650000
vt 0.000000 0.660000
vt 0.500000 0.660000
vt 1.000000 0.660000
vt 0.000000 0.670000
vt 0.500000 0.670000
vt 1.000000 0.670000
vt 0.000000 0.680000
vt 0.500000 0.680000
vt 1.000000 0.680000
vt 0.000000 0.690000
vt 0.500000 0.690000
vt 1.000000 0.690000
vt 0.000000 0.700000
vt 0.500000 0.700000
vt 1.000000 0.700000
vt 0.000000 0.710000
vt 0.500000 0.710000
vt 1.000000 0.710000
vt 0.000000 0.720000
vt 0.500000 0.720000
vt 1.000000 0.720000
vt 0.000000 0.730000
vt 0.500000 0.730000
vt 1.000000 0.730000
vt 0.000000 0.740000
vt 0.500000 0.740000
vt 1.000000 0.740000
vt 0.000000 0.750000
vt 0.500000 0.750000
vt 1.000000 0.750000
vt 0.000000 0.760000
vt 0.500000 0.760000
vt 1.000000 0.760000
vt 0.000000 0.770000
vt 0.500000 0.770000
vt 1.000000 0.770000
vt 0.000000 0.780000
vt 0.500000 0.780000
vt 1.000000 0.780000
vt 0.000000 0.790000
vt 0.500000 0.790000
vt 1.000000 0.790000
vt 0.000000 0.800000
vt 0.500000 0.800000
vt 1.000000 0.800000
vt 0.000000 0.810000
vt 0.500000 0.810000
vt 1.000000 0.810000
vt 0.000000 0.820000
vt 0.500000 0.820000
vt 1.000000 0.820000
vt 0.000000 0.830000
vt 0.500000 0.830000
vt 1.000000 0.830000
vt 0.000000 0.840000
vt 0.500000 0.840000
vt 1.000000 0.840000
vt 0.000000 0.850000
vt 0.500000 0.850000
vt 1.000000 0.850000
vt 0.000000 0.860000
vt 0.500000 0.860000
vt 1.000000 0.860000
vt 0.000000 0.870000
vt 0.500000 0.870000
vt 1.000000 0.870000
vt 0.000000 0.880000
vt 0.500000 0.880000
vt 1.000000 0.880000
vt 0.000000 0.890000
vt 0.500000 0.890000
vt 1.000000 0.890000
vt 0.000000 0.900000
vt 0.500000 0.900000
vt 1.000000 0.900000
vt 0.000000 0.910000
vt 0.500000 0.910000
vt 1.000000 0.910000
vt 0.000000 0.920000
vt 0.500000 0.920000
vt 1.000000 0.920000
vt 0.000000 0.930000
vt 0.500000 0.930000
vt 1.000000 0.930000
vt 0.000000 0.940000
vt 0.500000 0.940000
vt 1.000000 0.940000
vt 0.000000 0.950000
vt 0.500000 0.950000
vt 1.000000 0.950000
vt 0.000000 0.960000
vt 0.500000 0.960000
vt 1.000000 0.960000
vt 0.000000 0.970000
vt 0.500000 0.970000
vt 1.000000 0.970000
vt 0.000000 0.980000
vt 0.500000 0.980000
vt 1.000000 0.980000
vt 0.000000 0.990000
vt 0.500000 0.990000
vt 1.000000 0.990000
vt 0.000000 1.000000
vt 0.500000 1.000000
vt 1.000000 1.000000
vt 0.000000 0.000000
vt 0.500000 0.000000
vt 1.000000 0.000000
vt 0.000000 0.010000
vt 0.500000 0.010000
vt 1.000000 0.010000
vt 0.000000 0.020000
vt 0.500000 0.020000
vt 1.000000 0.020000
vt 0.000000 0.030000
vt 0.500000 0.030000
vt 1.000000 0.030000
vt 0.000000 0.040000
vt 0.500000 0.040000
vt 1.000000 0.040000
vt 0.000000 0.050000
vt 0.500000 0.050000
vt 1.000000 0.050000
vt 0.000000 0.060000
vt 0.500000 0.060000
vt 1.000000 0.060000
vt 0.000000 0.070000
vt 0.500000 0.070000
vt 1.000000 0.070000
vt 0.000000 0.080000
vt 0.500000 0.080000
vt 1.000000 0.080000
vt 0.000000 0.090000
vt 0.500000 0.090000
vt 1.000000 0.090000
vt 0.000000 0.100000
vt 0.500000 0.100000
vt 1.000000 0.100000
vt 0.000000 0.110000
vt 0.500000 0.110000
vt 1.000000 0.110000
vt 0.000000 0.120000
vt 0.500000 0.120000
vt 1.000000 0.120000
vt 0.000000 0.130000
vt 0.500000 0.130000
vt 1.000000 0.130000
vt 0.000000 0.140000
vt 0.500000 0.140000
vt 1.000000 0.140000
vt 0.000000 0.150000
vt 0.500000 0.150000
vt 1.000000 0.150000
vt 0.000000 0.160000
vt 0.500000 0.160000
vt 1.000000 0.160000
vt 0.000000 0.170000
vt 0.500000 0.170000
vt 1.000000 0.170000
vt 0.000000 0.180000
vt 0.500000 0.180000
vt 1.000000 0.180000
vt 0.000000 0.190000
vt 0.500000 0.190000
vt 1.000000 0.190000
vt 0.000000 0.200000
vt 0.500000 0.200000
vt 1.000000 0.200000
vt 0.000000 0.210000
vt 0.500000 0.210000
vt 1.000000 0.210000
vt 0.000000 0.220000
vt 0.500000 0.220000
vt 1.000000 0.220000
vt 0.000000 0.230000
vt 0.500000 0.230000
vt 1.000000 0.230000
vt 0.000000 0.240000
vt 0.500000 0.240000
vt 1.000000 0.240000
vt 0.000000 0.250000
vt 0.500000 0.250000
vt 1.000000 0.250000
vt 0.000000 0.260000
vt 0.500000 0.260000
vt 1.000000 0.260000
vt 0.000000 0.270000
vt 0.500000 0.270000
vt 1.000000 0.270000
vt 0.000000 0.280000
vt 0.500000 0.280000
vt 1.000000 0.280000
vt 0.000000 0.290000
vt 0.500000 0.290000
vt 1.000000 0.290000
vt 0.000000 0.300000
vt 0.500000 0.300000
vt 1.000000 0.300000
vt 0.000000 0.310000
vt 0.500000 0.310000
vt 1.000000 0.310000
vt 0.000000 0.320000
vt 0.500000 0.320000
vt 1.000000 0.320000
vt 0.000000 0.330000
vt 0.500000 0.330000
vt 1.000000 0.330000
vt 0.000000 0.340000
vt 0.500000 0.340000
vt 1.000000 0.340000
vt 0.000000 0.350000
vt 0.500000 0.350000
vt 1.000000 0.350000
vt 0.000000 0.360000
vt 0.500000 0.360000
vt 1.000000 0.360000
vt 0.000000 0.370000
vt 0.500000 0.370000
vt 1.000000 0.370000
vt 0.000000 0.380000
vt 0.500000 0.380000
vt 1.000000 0.380000
vt 0.000000 0.390000
vt 0.500000 0.390000
vt 1.000000 0.390000
vt 0.000000 0.400000
vt 0.500000 0.400000
vt 1.000000 0.400000
vt 0.000000 0.410000
vt 0.500000 0.410000
vt 1.000000 0.410000
vt 0.000000 0.420000
vt 0.500000 0.420000
vt 1.000000 0.420000
vt 0.000000 0.430000
vt 0.500000 0.430000
vt 1.000000 0.430000
vt 0.000000 0.440000
vt 0.500000 0.440000
vt 1.000000 0.440000
vt 0.000000 0.450000
vt 0.500000 0.450000
vt 1.000000 0.450000
vt 0.000000 0.460000
vt 0.500000 0.460000
vt 1.000000 0.460000
vt 0.000000 0.470000
vt 0.500000 0.470000
vt 1.000000 0.470000
vt 0.000000 0.480000
vt 0.500000 0.480000
vt 1.000000 0.480000
vt 0.000000 0.490000
vt 0.500000 0.490000
vt 1.000000 0.490000
vt 0.000000 0.500000
vt 0.500000 0.500000
vt 1.000000 0.500000
vt 0.000000 0.510000
vt 0.500000 0.510000
vt 1.000000 0.510000
vt 0.000000 0.520000
vt 0.500000 0.520000
vt 1.000000 0.520000
vt 0.000000 0.530000
vt 0.500000 0.530000
vt 1.000000 0.530000
vt 0.000000 0.540000
vt 0.500000 0.540000
vt 1.000000 0.540000
vt 0.000000 0.550000
vt 0.500000 0.550000
vt 1.000000 0.550000
vt 0.000000 0.560000
vt 0.500000 0.560000
vt 1.000000 0.560000
vt 0.000000 0.570000
vt 0.500000 0.570000
vt 1.000000 0.570000
vt 0.000000 0.580000
vt 0.500000 0.580000
vt 1.000000 0.580000
vt 0.000000 0.590000
vt 0.500000 0.590000
vt 1.000000 0.590000
vt 0.000000 0.600000
vt 0.500000 0.600000
vt 1.000000 0.600000
vt 0.000000 0.610000
vt 0.500000 0.610000
vt 1.000000 0.610000
vt 0.000000 0.620000
vt 0.500000 0.620000
vt 1.000000 0.620000
vt 0.000000 0.630000
vt 0.500000 0.630000
vt 1.000000 0.630000
vt 0.000000 0.640000
vt 0.500000 0.640000
vt 1.000000 0.640000
vt 0.000000 0.650000
vt 0.500000 0.650000
vt 1.000000 0.650000
vt 0.000000 0.660000
vt 0.500000 0.660000
vt 1.000000 0.660000
vt 0.000000 0.670000
vt 0.500000 0.670000
vt 1.000000 0.670000
vt 0.000000 0.680000
vt 0.500000 0.680000
vt 1.000000 0.680000
vt 0.000000 0.690000
vt 0.500000 0.690000
vt 1.000000 0.690000
vt 0.000000 0.700000
vt 0.500000 0.700000
vt 1.000000 0.700000
vt 0.000000 0.710000
vt 0.500000 0.710000
vt 1.000000 0.710000
vt 0.000000 0.720000
vt 0.500000 0.720000
vt 1.000000 0.720000
vt 0.000000 0.730000
vt 0.500000 0.730000
vt 1.000000 0.730000
vt 0.000000 0.740000
vt 0.500000 0.740000
vt 1.000000 0.740000
vt 0.000000 0.750000
vt 0.500000 0.750000
vt 1.000000 0.750000
vt 0.000000 0.760000
vt 0.500000 0.760000
vt 1.000000 0.760000
vt 0.000000 0.770000
vt 0.500000 0.770000
vt 1.000000 0.770000
vt 0.000000 0.780000
vt 0.500000 0.780000
vt 1.000000 0.780000
vt 0.000000 0.790000
vt 0.500000 0.790000
vt 1.000000 0.790000
vt 0.000000 0.800000
vt 0.500000 0.800000
vt 1.000000 0.800000
vt 0.000000 0.810000
vt 0.500000 0.810000
vt 1.000000 0.810000
vt 0.000000 0.820000
vt 0.500000 0.820000
vt 1.000000 0.820000
vt 0.000000 0.830000
vt 0.500000 0.830000
vt 1.000000 0.830000
vt 0.000000 0.840000
vt 0.500000 0.840000
vt 1.000000 0.840000
vt 0.000000 0.850000
vt 0.500000 0.850000
vt 1.000000 0.850000
vt 0.000000 0.860000
vt 0.500000 0.860000
vt 1.000000 0.860000
vt 0.000000 0.870000
vt 0.500000 0.870000
vt 1.000000 0.870000
vt 0.000000 0.880000
vt 0.500000 0.880000
vt 1.000000 0.880000
vt 0.000000 0.890000
vt 0.500000 0.890000
vt 1.000000 0.890000
vt 0.000000 0.900000
vt 0.500000 0.900000
vt 1.000000 0.900000
vt 0.000000 0.910000
vt 0.500000 0.910000
vt 1.000000 0.910000
vt 0.000000 0.920000
vt 0.500000 0.920000
vt 1.000000 0.920000
vt 0.000000 0.930000
vt 0.500000 0.930000
vt 1.000000 0.930000
vt 0.000000 0.940000
vt 0.500000 0.940000
vt 1.000000 0.940000
vt 0.000000 0.950000
vt 0.500000 0.950000
vt 1.000000 0.950000
vt 0.000000 0.960000
vt 0.500000 0.960000
vt 1.000000 0.960000
vt 0.000000 0.970000
vt 0.500000 0.970000
vt 1.000000 0.970000
vt 0.000000 0.980000
vt 0.500000 0.980000
vt 1.000000 0.980000
vt 0.000000 0.990000
vt 0.500000 0.990000
vt 1.000000 0.990000
vt 0.000000 1.000000
vt 0.500000 1.000000
vt 1.000000 1.000000
usemtl weather_phase_field
s off
f 1/1 2/2 5/5
f 1/1 5/5 4/4
f 2/2 3/3 6/6
f 2/2 6/6 5/5
f 4/4 5/5 8/8
f 4/4 8/8 7/7
f 5/5 6/6 9/9
f 5/5 9/9 8/8
f 7/7 8/8 11/11
f 7/7 11/11 10/10
f 8/8 9/9 12/12
f 8/8 12/12 11/11
f 10/10 11/11 14/14
f 10/10 14/14 13/13
f 11/11 12/12 15/15
f 11/11 15/15 14/14
f 13/13 14/14 17/17
f 13/13 17/17 16/16
f 14/14 15/15 18/18
f 14/14 18/18 17/17
f 16/16 17/17 20/20
f 16/16 20/20 19/19
f 17/17 18/18 21/21
f 17/17 21/21 20/20
f 19/19 20/20 23/23
f 19/19 23/23 22/22
f 20/20 21/21 24/24
f 20/20 24/24 23/23
f 22/22 23/23 26/26
f 22/22 26/26 25/25
f 23/23 24/24 27/27
f 23/23 27/27 26/26
f 25/25 26/26 29/29
f 25/25 29/29 28/28
f 26/26 27/27 30/30
f 26/26 30/30 29/29
f 28/28 29/29 32/32
f 28/28 32/32 31/31
f 29/29 30/30 33/33
f 29/29 33/33 32/32
f 31/31 32/32 35/35
f 31/31 35/35 34/34
f 32/32 33/33 36/36
f 32/32 36/36 35/35
f 34/34 35/35 38/38
f 34/34 38/38 37/37
f 35/35 36/36 39/39
f 35/35 39/39 38/38
f 37/37 38/38 41/41
f 37/37 41/41 40/40
f 38/38 39/39 42/42
f 38/38 42/42 41/41
f 40/40 41/41 44/44
f 40/40 44/44 43/43
f 41/41 42/42 45/45
f 41/41 45/45 44/44
f 43/43 44/44 47/47
f 43/43 47/47 46/46
f 44/44 45/45 48/48
f 44/44 48/48 47/47
f 46/46 47/47 50/50
f 46/46 50/50 49/49
f 47/47 48/48 51/51
f 47/47 51/51 50/50
f 49/49 50/50 53/53
f 49/49 53/53 52/52
f 50/50 51/51 54/54
f 50/50 54/54 53/53
f 52/52 53/53 56/56
f 52/52 56/56 55/55
f 53/53 54/54 57/57
f 53/53 57/57 56/56
f 55/55 56/56 59/59
f 55/55 59/59 58/58
f 56/56 57/57 60/60
f 56/56 60/60 59/59
f 58/58 59/59 62/62
f 58/58 62/62 61/61
f 59/59 60/60 63/63
f 59/59 63/63 62/62
f 61/61 62/62 65/65
f 61/61 65/65 64/64
f 62/62 63/63 66/66
f 62/62 66/66 65/65
f 64/64 65/65 68/68
f 64/64 68/68 67/67
f 65/65 66/66 69/69
f 65/65 69/69 68/68
f 67/67 68/68 71/71
f 67/67 71/71 70/70
f 68/68 69/69 72/72
f 68/68 72/72 71/71
f 70/70 71/71 74/74
f 70/70 74/74 73/73
f 71/71 72/72 75/75
f 71/71 75/75 74/74
f 73/73 74/74 77/77
f 73/73 77/77 76/76
f 74/74 75/75 78/78
f 74/74 78/78 77/77
f 76/76 77/77 80/80
f 76/76 80/80 79/79
f 77/77 78/78 81/81
f 77/77 81/81 80/80
f 79/79 80/80 83/83
f 79/79 83/83 82/82
f 80/80 81/81 84/84
f 80/80 84/84 83/83
f 82/82 83/83 86/86
f 82/82 86/86 85/85
f 83/83 84/84 87/87
f 83/83 87/87 86/86
f 85/85 86/86 89/89
f 85/85 89/89 88/88
f 86/86 87/87 90/90
f 86/86 90/90 89/89
f 88/88 89/89 92/92
f 88/88 92/92 91/91
f 89/89 90/90 93/93
f 89/89 93/93 92/92
f 91/91 92/92 95/95
f 91/91 95/95 94/94
f 92/92 93/93 96/96
f 92/92 96/96 95/95
f 94/94 95/95 98/98
f 94/94 98/98 97/97
f 95/95 96/96 99/99
f 95/95 99/99 98/98
f 97/97 98/98 101/101
f 97/97 101/101 100/100
f 98/98 99/99 102/102
f 98/98 102/102 101/101
f 100/100 101/101 104/104
f 100/100 104/104 103/103
f 101/101 102/102 105/105
f 101/101 105/105 104/104
f 103/103 104/104 107/107
f 103/103 107/107 106/106
f 104/104 105/105 108/108
f 104/104 108/108 107/107
f 106/106 107/107 110/110
f 106/106 110/110 109/109
f 107/107 108/108 111/111
f 107/107 111/111 110/110
f 109/109 110/110 113/113
f 109/109 113/113 112/112
f 110/110 111/111 114/114
f 110/110 114/114 113/113
f 112/112 113/113 116/116
f 112/112 116/116 115/115
f 113/113 114/114 117/117
f 113/113 117/117 116/116
f 115/115 116/116 119/119
f 115/115 119/119 118/118
f 116/116 117/117 120/120
f 116/116 120/120 119/119
f 118/118 119/119 122/122
f 118/118 122/122 121/121
f 119/119 120/120 123/123
f 119/119 123/123 122/122
f 121/121 122/122 125/125
f 121/121 125/125 124/124
f 122/122 123/123 126/126
f 122/122 126/126 125/125
f 124/124 125/125 128/128
f 124/124 128/128 127/127
f 125/125 126/126 129/129
f 125/125 129/129 128/128
f 127/127 128/128 131/131
f 127/127 131/131 130/130
f 128/128 129/129 132/132
f 128/128 132/132 131/131
f 130/130 131/131 134/134
f 130/130 134/134 133/133
f 131/131 132/132 135/135
f 131/131 135/135 134/134
f 133/133 134/134 137/137
f 133/133 137/137 136/136
f 134/134 135/135 138/138
f 134/134 138/138 137/137
f 136/136 137/137 140/140
f 136/136 140/140 139/139
f 137/137 138/138 141/141
f 137/137 141/141 140/140
f 139/139 140/140 143/143
f 139/139 143/143 142/142
f 140/140 141/141 144/144
f 140/140 144/144 143/143
f 142/142 143/143 146/146
f 142/142 146/146 145/145
f 143/143 144/144 147/147
f 143/143 147/147 146/146
f 145/145 146/146 149/149
f 145/145 149/149 148/148
f 146/146 147/147 150/150
f 146/146 150/150 149/149
f 148/148 149/149 152/152
f 148/148 152/152 151/151
f 149/149 150/150 153/153
f 149/149 153/153 152/152
f 151/151 152/152 155/155
f 151/151 155/155 154/154
f 152/152 153/153 156/156
f 152/152 156/156 155/155
f 154/154 155/155 158/158
f 154/154 158/158 157/157
f 155/155 156/156 159/159
f 155/155 159/159 158/158
f 157/157 158/158 161/161
f 157/157 161/161 160/160
f 158/158 159/159 162/162
f 158/158 162/162 161/161
f 160/160 161/161 164/164
f 160/160 164/164 163/163
f 161/161 162/162 165/165
f 161/161 165/165 164/164
f 163/163 164/164 167/167
f 163/163 167/167 166/166
f 164/164 165/165 168/168
f 164/164 168/168 167/167
f 166/166 167/167 170/170
f 166/166 170/170 169/169
f 167/167 168/168 171/171
f 167/167 171/171 170/170
f 169/169 170/170 173/173
f 169/169 173/173 172/172
f 170/170 171/171 174/174
f 170/170 174/174 173/173
f 172/172 173/173 176/176
f 172/172 176/176 175/175
f 173/173 174/174 177/177
f 173/173 177/177 176/176
f 175/175 176/176 179/179
f 175/175 179/179 178/178
f 176/176 177/177 180/180
f 176/176 180/180 179/179
f 178/178 179/179 182/182
f 178/178 182/182 181/181
f 179/179 180/180 183/183
f 179/179 183/183 182/182
f 181/181 182/182 185/185
f 181/181 185/185 184/184
f 182/182 183/183 186/186
f 182/182 186/186 185/185
f 184/184 185/185 188/188
f 184/184 188/188 187/187
f 185/185 186/186 189/189
f 185/185 189/189 188/188
f 187/187 188/188 191/191
f 187/187 191/191 190/190
f 188/188 189/189 192/192
f 188/188 192/192 191/191
f 190/190 191/191 194/194
f 190/190 194/194 193/193
f 191/191 192/192 195/195
f 191/191 195/195 194/194
f 193/193 194/194 197/197
f 193/193 197/197 196/196
f 194/194 195/195 198/198
f 194/194 198/198 197/197
f 196/196 197/197 200/200
f 196/196 200/200 199/199
f 197/197 198/198 201/201
f 197/197 201/201 200/200
f 199/199 200/200 203/203
f 199/199 203/203 202/202
f 200/200 201/201 204/204
f 200/200 204/204 203/203
f 202/202 203/203 206/206
f 202/202 206/206 205/205
f 203/203 204/204 207/207
f 203/203 207/207 206/206
f 205/205 206/206 209/209
f 205/205 209/209 208/208
f 206/206 207/207 210/210
f 206/206 210/210 209/209
f 208/208 209/209 212/212
f 208/208 212/212 211/211
f 209/209 210/210 213/213
f 209/209 213/213 212/212
f 211/211 212/212 215/215
f 211/211 215/215 214/214
f 212/212 213/213 216/216
f 212/212 216/216 215/215
f 214/214 215/215 218/218
f 214/214 218/218 217/217
f 215/215 216/216 219/219
f 215/215 219/219 218/218
f 217/217 218/218 221/221
f 217/217 221/221 220/220
f 218/218 219/219 222/222
f 218/218 222/222 221/221
f 220/220 221/221 224/224
f 220/220 224/224 223/223
f 221/221 222/222 225/225
f 221/221 225/225 224/224
f 223/223 224/224 227/227
f 223/223 227/227 226/226
f 224/224 225/225 228/228
f 224/224 228/228 227/227
f 226/226 227/227 230/230
f 226/226 230/230 229/229
f 227/227 228/228 231/231
f 227/227 231/231 230/230
f 229/229 230/230 233/233
f 229/229 233/233 232/232
f 230/230 231/231 234/234
f 230/230 234/234 233/233
f 232/232 233/233 236/236
f 232/232 236/236 235/235
f 233/233 234/234 237/237
f 233/233 237/237 236/236
f 235/235 236/236 239/239
f 235/235 239/239 238/238
f 236/236 237/237 240/240
f 236/236 240/240 239/239
f 238/238 239/239 242/242
f 238/238 242/242 241/241
f 239/239 240/240 243/243
f 239/239 243/243 242/242
f 241/241 242/242 245/245
f 241/241 245/245 244/244
f 242/242 243/243 246/246
f 242/242 246/246 245/245
f 244/244 245/245 248/248
f 244/244 248/248 247/247
f 245/245 246/246 249/249
f 245/245 249/249 248/248
f 247/247 248/248 251/251
f 247/247 251/251 250/250
f 248/248 249/249 252/252
f 248/248 252/252 251/251
f 250/250 251/251 254/254
f 250/250 254/254 253/253
f 251/251 252/252 255/255
f 251/251 255/255 254/254
f 253/253 254/254 257/257
f 253/253 257/257 256/256
f 254/254 255/255 258/258
f 254/254 258/258 257/257
f 256/256 257/257 260/260
f 256/256 260/260 259/259
f 257/257 258/258 261/261
f 257/257 261/261 260/260
f 259/259 260/260 263/263
f 259/259 263/263 262/262
f 260/260 261/261 264/264
f 260/260 264/264 263/263
f 262/262 263/263 266/266
f 262/262 266/266 265/265
f 263/263 264/264 267/267
f 263/263 267/267 266/266
f 265/265 266/266 269/269
f 265/265 269/269 268/268
f 266/266 267/267 270/270
f 266/266 270/270 269/269
f 268/268 269/269 272/272
f 268/268 272/272 271/271
f 269/269 270/270 273/273
f 269/269 273/273 272/272
f 271/271 272/272 275/275
f 271/271 275/275 274/274
f 272/272 273/273 276/276
f 272/272 276/276 275/275
f 274/274 275/275 278/278
f 274/274 278/278 277/277
f 275/275 276/276 279/279
f 275/275 279/279 278/278
f 277/277 278/278 281/281
f 277/277 281/281 280/280
f 278/278 279/279 282/282
f 278/278 282/282 281/281
f 280/280 281/281 284/284
f 280/280 284/284 283/283
f 281/281 282/282 285/285
f 281/281 285/285 284/284
f 283/283 284/284 287/287
f 283/283 287/287 286/286
f 284/284 285/285 288/288
f 284/284 288/288 287/287
f 286/286 287/287 290/290
f 286/286 290/290 289/289
f 287/287 288/288 291/291
f 287/287 291/291 290/290
f 289/289 290/290 293/293
f 289/289 293/293 292/292
f 290/290 291/291 294/294
f 290/290 294/294 293/293
f 292/292 293/293 296/296
f 292/292 296/296 295/295
f 293/293 294/294 297/297
f 293/293 297/297 296/296
f 295/295 296/296 299/299
f 295/295 299/299 298/298
f 296/296 297/297 300/300
f 296/296 300/300 299/299
f 298/298 299/299 302/302
f 298/298 302/302 301/301
f 299/299 300/300 303/303
f 299/299 303/303 302/302
f 304/304 305/305 308/308
f 304/304 308/308 307/307
f 305/305 306/306 309/309
f 305/305 309/309 308/308
f 307/307 308/308 311/311
f 307/307 311/311 310/310
f 308/308 309/309 312/312
f 308/308 312/312 311/311
f 310/310 311/311 314/314
f 310/310 314/314 313/313
f 311/311 312/312 315/315
f 311/311 315/315 314/314
f 313/313 314/314 317/317
f 313/313 317/317 316/316
f 314/314 315/315 318/318
f 314/314 318/318 317/317
f 316/316 317/317 320/320
f 316/316 320/320 319/319
f 317/317 318/318 321/321
f 317/317 321/321 320/320
f 319/319 320/320 323/323
f 319/319 323/323 322/322
f 320/320 321/321 324/324
f 320/320 324/324 323/323
f 322/322 323/323 326/326
f 322/322 326/326 325/325
f 323/323 324/324 327/327
f 323/323 327/327 326/326
f 325/325 326/326 329/329
f 325/325 329/329 328/328
f 326/326 327/327 330/330
f 326/326 330/330 329/329
f 328/328 329/329 332/332
f 328/328 332/332 331/331
f 329/329 330/330 333/333
f 329/329 333/333 332/332
f 331/331 332/332 335/335
f 331/331 335/335 334/334
f 332/332 333/333 336/336
f 332/332 336/336 335/335
f 334/334 335/335 338/338
f 334/334 338/338 337/337
f 335/335 336/336 339/339
f 335/335 339/339 338/338
f 337/337 338/338 341/341
f 337/337 341/341 340/340
f 338/338 339/339 342/342
f 338/338 342/342 341/341
f 340/340 341/341 344/344
f 340/340 344/344 343/343
f 341/341 342/342 345/345
f 341/341 345/345 344/344
f 343/343 344/344 347/347
f 343/343 347/347 346/346
f 344/344 345/345 348/348
f 344/344 348/348 347/347
f 346/346 347/347 350/350
f 346/346 350/350 349/349
f 347/347 348/348 351/351
f 347/347 351/351 350/350
f 349/349 350/350 353/353
f 349/349 353/353 352/352
f 350/350 351/351 354/354
f 350/350 354/354 353/353
f 352/352 353/353 356/356
f 352/352 356/356 355/355
f 353/353 354/354 357/357
f 353/353 357/357 356/356
f 355/355 356/356 359/359
f 355/355 359/359 358/358
f 356/356 357/357 360/360
f 356/356 360/360 359/359
f 358/358 359/359 362/362
f 358/358 362/362 361/361
f 359/359 360/360 363/363
f 359/359 363/363 362/362
f 361/361 362/362 365/365
f 361/361 365/365 364/364
f 362/362 363/363 366/366
f 362/362 366/366 365/365
f 364/364 365/365 368/368
f 364/364 368/368 367/367
f 365/365 366/366 369/369
f 365/365 369/369 368/368
f 367/367 368/368 371/371
f 367/367 371/371 370/370
f 368/368 369/369 372/372
f 368/368 372/372 371/371
f 370/370 371/371 374/374
f 370/370 374/374 373/373
f 371/371 372/372 375/375
f 371/371 375/375 374/374
f 373/373 374/374 377/377
f 373/373 377/377 376/376
f 374/374 375/375 378/378
f 374/374 378/378 377/377
f 376/376 377/377 380/380
f 376/376 380/380 379/379
f 377/377 378/378 381/381
f 377/377 381/381 380/380
f 379/379 380/380 383/383
f 379/379 383/383 382/382
f 380/380 381/381 384/384
f 380/380 384/384 383/383
f 382/382 383/383 386/386
f 382/382 386/386 385/385
f 383/383 384/384 387/387
f 383/383 387/387 386/386
f 385/385 386/386 389/389
f 385/385 389/389 388/388
f 386/386 387/387 390/390
f 386/386 390/390 389/389
f 388/388 389/389 392/392
f 388/388 392/392 391/391
f 389/389 390/390 393/393
f 389/389 393/393 392/392
f 391/391 392/392 395/395
f 391/391 395/395 394/394
f 392/392 393/393 396/396
f 392/392 396/396 395/395
f 394/394 395/395 398/398
f 394/394 398/398 397/397
f 395/395 396/396 399/399
f 395/395 399/399 398/398
f 397/397 398/398 401/401
f 397/397 401/401 400/400
f 398/398 399/399 402/402
f 398/398 402/402 401/401
f 400/400 401/401 404/404
f 400/400 404/404 403/403
f 401/401 402/402 405/405
f 401/401 405/405 404/404
f 403/403 404/404 407/407
f 403/403 407/407 406/406
f 404/404 405/405 408/408
f 404/404 408/408 407/407
f 406/406 407/407 410/410
f 406/406 410/410 409/409
f 407/407 408/408 411/411
f 407/407 411/411 410/410
f 409/409 410/410 413/413
f 409/409 413/413 412/412
f 410/410 411/411 414/414
f 410/410 414/414 413/413
f 412/412 413/413 416/416
f 412/412 416/416 415/415
f 413/413 414/414 417/417
f 413/413 417/417 416/416
f 415/415 416/416 419/419
f 415/415 419/419 418/418
f 416/416 417/417 420/420
f 416/416 420/420 419/419
f 418/418 419/419 422/422
f 418/418 422/422 421/421
f 419/419 420/420 423/423
f 419/419 423/423 422/422
f 421/421 422/422 425/425
f 421/421 425/425 424/424
f 422/422 423/423 426/426
f 422/422 426/426 425/425
f 424/424 425/425 428/428
f 424/424 428/428 427/427
f 425/425 426/426 429/429
f 425/425 429/429 428/428
f 427/427 428/428 431/431
f 427/427 431/431 430/430
f 428/428 429/429 432/432
f 428/428 432/432 431/431
f 430/430 431/431 434/434
f 430/430 434/434 433/433
f 431/431 432/432 435/435
f 431/431 435/435 434/434
f 433/433 434/434 437/437
f 433/433 437/437 436/436
f 434/434 435/435 438/438
f 434/434 438/438 437/437
f 436/436 437/437 440/440
f 436/436 440/440 439/439
f 437/437 438/438 441/441
f 437/437 441/441 440/440
f 439/439 440/440 443/443
f 439/439 443/443 442/442
f 440/440 441/441 444/444
f 440/440 444/444 443/443
f 442/442 443/443 446/446
f 442/442 446/446 445/445
f 443/443 444/444 447/447
f 443/443 447/447 446/446
f 445/445 446/446 449/449
f 445/445 449/449 448/448
f 446/446 447/447 450/450
f 446/446 450/450 449/449
f 448/448 449/449 452/452
f 448/448 452/452 451/451
f 449/449 450/450 453/453
f 449/449 453/453 452/452
f 451/451 452/452 455/455
f 451/451 455/455 454/454
f 452/452 453/453 456/456
f 452/452 456/456 455/455
f 454/454 455/455 458/458
f 454/454 458/458 457/457
f 455/455 456/456 459/459
f 455/455 459/459 458/458
f 457/457 458/458 461/461
f 457/457 461/461 460/460
f 458/458 459/459 462/462
f 458/458 462/462 461/461
f 460/460 461/461 464/464
f 460/460 464/464 463/463
f 461/461 462/462 465/465
f 461/461 465/465 464/464
f 463/463 464/464 467/467
f 463/463 467/467 466/466
f 464/464 465/465 468/468
f 464/464 468/468 467/467
f 466/466 467/467 470/470
f 466/466 470/470 469/469
f 467/467 468/468 471/471
f 467/467 471/471 470/470
f 469/469 470/470 473/473
f 469/469 473/473 472/472
f 470/470 471/471 474/474
f 470/470 474/474 473/473
f 472/472 473/473 476/476
f 472/472 476/476 475/475
f 473/473 474/474 477/477
f 473/473 477/477 476/476
f 475/475 476/476 479/479
f 475/475 479/479 478/478
f 476/476 477/477 480/480
f 476/476 480/480 479/479
f 478/478 479/479 482/482
f 478/478 482/482 481/481
f 479/479 480/480 483/483
f 479/479 483/483 482/482
f 481/481 482/482 485/485
f 481/481 485/485 484/484
f 482/482 483/483 486/486
f 482/482 486/486 485/485
f 484/484 485/485 488/488
f 484/484 488/488 487/487
f 485/485 486/486 489/489
f 485/485 489/489 488/488
f 487/487 488/488 491/491
f 487/487 491/491 490/490
f 488/488 489/489 492/492
f 488/488 492/492 491/491
f 490/490 491/491 494/494
f 490/490 494/494 493/493
f 491/491 492/492 495/495
f 491/491 495/495 494/494
f 493/493 494/494 497/497
f 493/493 497/497 496/496
f 494/494 495/495 498/498
f 494/494 498/498 497/497
f 496/496 497/497 500/500
f 496/496 500/500 499/499
f 497/497 498/498 501/501
f 497/497 501/501 500/500
f 499/499 500/500 503/503
f 499/499 503/503 502/502
f 500/500 501/501 504/504
f 500/500 504/504 503/503
f 502/502 503/503 506/506
f 502/502 506/506 505/505
f 503/503 504/504 507/507
f 503/503 507/507 506/506
f 505/505 506/506 509/509
f 505/505 509/509 508/508
f 506/506 507/507 510/510
f 506/506 510/510 509/509
f 508/508 509/509 512/512
f 508/508 512/512 511/511
f 509/509 510/510 513/513
f 509/509 513/513 512/512
f 511/511 512/512 515/515
f 511/511 515/515 514/514
f 512/512 513/513 516/516
f 512/512 516/516 515/515
f 514/514 515/515 518/518
f 514/514 518/518 517/517
f 515/515 516/516 519/519
f 515/515 519/519 518/518
f 517/517 518/518 521/521
f 517/517 521/521 520/520
f 518/518 519/519 522/522
f 518/518 522/522 521/521
f 520/520 521/521 524/524
f 520/520 524/524 523/523
f 521/521 522/522 525/525
f 521/521 525/525 524/524
f 523/523 524/524 527/527
f 523/523 527/527 526/526
f 524/524 525/525 528/528
f 524/524 528/528 527/527
f 526/526 527/527 530/530
f 526/526 530/530 529/529
f 527/527 528/528 531/531
f 527/527 531/531 530/530
f 529/529 530/530 533/533
f 529/529 533/533 532/532
f 530/530 531/531 534/534
f 530/530 534/534 533/533
f 532/532 533/533 536/536
f 532/532 536/536 535/535
f 533/533 534/534 537/537
f 533/533 537/537 536/536
f 535/535 536/536 539/539
f 535/535 539/539 538/538
f 536/536 537/537 540/540
f 536/536 540/540 539/539
f 538/538 539/539 542/542
f 538/538 542/542 541/541
f 539/539 540/540 543/543
f 539/539 543/543 542/542
f 541/541 542/542 545/545
f 541/541 545/545 544/544
f 542/542 543/543 546/546
f 542/542 546/546 545/545
f 544/544 545/545 548/548
f 544/544 548/548 547/547
f 545/545 546/546 549/549
f 545/545 549/549 548/548
f 547/547 548/548 551/551
f 547/547 551/551 550/550
f 548/548 549/549 552/552
f 548/548 552/552 551/551
f 550/550 551/551 554/554
f 550/550 554/554 553/553
f 551/551 552/552 555/555
f 551/551 555/555 554/554
f 553/553 554/554 557/557
f 553/553 557/557 556/556
f 554/554 555/555 558/558
f 554/554 558/558 557/557
f 556/556 557/557 560/560
f 556/556 560/560 559/559
f 557/557 558/558 561/561
f 557/557 561/561 560/560
f 559/559 560/560 563/563
f 559/559 563/563 562/562
f 560/560 561/561 564/564
f 560/560 564/564 563/563
f 562/562 563/563 566/566
f 562/562 566/566 565/565
f 563/563 564/564 567/567
f 563/563 567/567 566/566
f 565/565 566/566 569/569
f 565/565 569/569 568/568
f 566/566 567/567 570/570
f 566/566 570/570 569/569
f 568/568 569/569 572/572
f 568/568 572/572 571/571
f 569/569 570/570 573/573
f 569/569 573/573 572/572
f 571/571 572/572 575/575
f 571/571 575/575 574/574
f 572/572 573/573 576/576
f 572/572 576/576 575/575
f 574/574 575/575 578/578
f 574/574 578/578 577/577
f 575/575 576/576 579/579
f 575/575 579/579 578/578
f 577/577 578/578 581/581
f 577/577 581/581 580/580
f 578/578 579/579 582/582
f 578/578 582/582 581/581
f 580/580 581/581 584/584
f 580/580 584/584 583/583
f 581/581 582/582 585/585
f 581/581 585/585 584/584
f 583/583 584/584 587/587
f 583/583 587/587 586/586
f 584/584 585/585 588/588
f 584/584 588/588 587/587
f 586/586 587/587 590/590
f 586/586 590/590 589/589
f 587/587 588/588 591/591
f 587/587 591/591 590/590
f 589/589 590/590 593/593
f 589/589 593/593 592/592
f 590/590 591/591 594/594
f 590/590 594/594 593/593
f 592/592 593/593 596/596
f 592/592 596/596 595/595
f 593/593 594/594 597/597
f 593/593 597/597 596/596
f 595/595 596/596 599/599
f 595/595 599/599 598/598
f 596/596 597/597 600/600
f 596/596 600/600 599/599
f 598/598 599/599 602/602
f 598/598 602/602 601/601
f 599/599 600/600 603/603
f 599/599 603/603 602/602
f 601/601 602/602 605/605
f 601/601 605/605 604/604
f 602/602 603/603 606/606
f 602/602 606/606 605/605
f 607/607 608/608 611/611
f 607/607 611/611 610/610
f 608/608 609/609 612/612
f 608/608 612/612 611/611
f 610/610 611/611 614/614
f 610/610 614/614 613/613
f 611/611 612/612 615/615
f 611/611 615/615 614/614
f 613/613 614/614 617/617
f 613/613 617/617 616/616
f 614/614 615/615 618/618
f 614/614 618/618 617/617
f 616/616 617/617 620/620
f 616/616 620/620 619/619
f 617/617 618/618 621/621
f 617/617 621/621 620/620
f 619/619 620/620 623/623
f 619/619 623/623 622/622
f 620/620 621/621 624/624
f 620/620 624/624 623/623
f 622/622 623/623 626/626
f 622/622 626/626 625/625
f 623/623 624/624 627/627
f 623/623 627/627 626/626
f 625/625 626/626 629/629
f 625/625 629/629 628/628
f 626/626 627/627 630/630
f 626/626 630/630 629/629
f 628/628 629/629 632/632
f 628/628 632/632 631/631
f 629/629 630/630 633/633
f 629/629 633/633 632/632
f 631/631 632/632 635/635
f 631/631 635/635 634/634
f 632/632 633/633 636/636
f 632/632 636/636 635/635
f 634/634 635/635 638/638
f 634/634 638/638 637/637
f 635/635 636/636 639/639
f 635/635 639/639 638/638
f 637/637 638/638 641/641
f 637/637 641/641 640/640
f 638/638 639/639 642/642
f 638/638 642/642 641/641
f 640/640 641/641 644/644
f 640/640 644/644 643/643
f 641/641 642/642 645/645
f 641/641 645/645 644/644
f 643/643 644/644 647/647
f 643/643 647/647 646/646
f 644/644 645/645 648/648
f 644/644 648/648 647/647
f 646/646 647/647 650/650
f 646/646 650/650 649/649
f 647/647 648/648 651/651
f 647/647 651/651 650/650
f 649/649 650/650 653/653
f 649/649 653/653 652/652
f 650/650 651/651 654/654
f 650/650 654/654 653/653
f 652/652 653/653 656/656
f 652/652 656/656 655/655
f 653/653 654/654 657/657
f 653/653 657/657 656/656
f 655/655 656/656 659/659
f 655/655 659/659 658/658
f 656/656 657/657 660/660
f 656/656 660/660 659/659
f 658/658 659/659 662/662
f 658/658 662/662 661/661
f 659/659 660/660 663/663
f 659/659 663/663 662/662
f 661/661 662/662 665/665
f 661/661 665/665 664/664
f 662/662 663/663 666/666
f 662/662 666/666 665/665
f 664/664 665/665 668/668
f 664/664 668/668 667/667
f 665/665 666/666 669/669
f 665/665 669/669 668/668
f 667/667 668/668 671/671
f 667/667 671/671 670/670
f 668/668 669/669 672/672
f 668/668 672/672 671/671
f 670/670 671/671 674/674
f 670/670 674/674 673/673
f 671/671 672/672 675/675
f 671/671 675/675 674/674
f 673/673 674/674 677/677
f 673/673 677/677 676/676
f 674/674 675/675 678/678
f 674/674 678/678 677/677
f 676/676 677/677 680/680
f 676/676 680/680 679/679
f 677/677 678/678 681/681
f 677/677 681/681 680/680
f 679/679 680/680 683/683
f 679/679 683/683 682/682
f 680/680 681/681 684/684
f 680/680 684/684 683/683
f 682/682 683/683 686/686
f 682/682 686/686 685/685
f 683/683 684/684 687/687
f 683/683 687/687 686/686
f 685/685 686/686 689/689
f 685/685 689/689 688/688
f 686/686 687/687 690/690
f 686/686 690/690 689/689
f 688/688 689/689 692/692
f 688/688 692/692 691/691
f 689/689 690/690 693/693
f 689/689 693/693 692/692
f 691/691 692/692 695/695
f 691/691 695/695 694/694
f 692/692 693/693 696/696
f 692/692 696/696 695/695
f 694/694 695/695 698/698
f 694/694 698/698 697/697
f 695/695 696/696 699/699
f 695/695 699/699 698/698
f 697/697 698/698 701/701
f 697/697 701/701 700/700
f 698/698 699/699 702/702
f 698/698 702/702 701/701
f 700/700 701/701 704/704
f 700/700 704/704 703/703
f 701/701 702/702 705/705
f 701/701 705/705 704/704
f 703/703 704/704 707/707
f 703/703 707/707 706/706
f 704/704 705/705 708/708
f 704/704 708/708 707/707
f 706/706 707/707 710/710
f 706/706 710/710 709/709
f 707/707 708/708 711/711
f 707/707 711/711 710/710
f 709/709 710/710 713/713
f 709/709 713/713 712/712
f 710/710 711/711 714/714
f 710/710 714/714 713/713
f 712/712 713/713 716/716
f 712/712 716/716 715/715
f 713/713 714/714 717/717
f 713/713 717/717 716/716
f 715/715 716/716 719/719
f 715/715 719/719 718/718
f 716/716 717/717 720/720
f 716/716 720/720 719/719
f 718/718 719/719 722/722
f 718/718 722/722 721/721
f 719/719 720/720 723/723
f 719/719 723/723 722/722
f 721/721 722/722 725/725
f 721/721 725/725 724/724
f 722/722 723/723 726/726
f 722/722 726/726 725/725
f 724/724 725/725 728/728
f 724/724 728/728 727/727
f 725/725 726/726 729/729
f 725/725 729/729 728/728
f 727/727 728/728 731/731
f 727/727 731/731 730/730
f 728/728 729/729 732/732
f 728/728 732/732 731/731
f 730/730 731/731 734/734
f 730/730 734/734 733/733
f 731/731 732/732 735/735
f 731/731 735/735 734/734
f 733/733 734/734 737/737
f 733/733 737/737 736/736
f 734/734 735/735 738/738
f 734/734 738/738 737/737
f 736/736 737/737 740/740
f 736/736 740/740 739/739
f 737/737 738/738 741/741
f 737/737 741/741 740/740
f 739/739 740/740 743/743
f 739/739 743/743 742/742
f 740/740 741/741 744/744
f 740/740 744/744 743/743
f 742/742 743/743 746/746
f 742/742 746/746 745/745
f 743/743 744/744 747/747
f 743/743 747/747 746/746
f 745/745 746/746 749/749
f 745/745 749/749 748/748
f 746/746 747/747 750/750
f 746/746 750/750 749/749
f 748/748 749/749 752/752
f 748/748 752/752 751/751
f 749/749 750/750 753/753
f 749/749 753/753 752/752
f 751/751 752/752 755/755
f 751/751 755/755 754/754
f 752/752 753/753 756/756
f 752/752 756/756 755/755
f 754/754 755/755 758/758
f 754/754 758/758 757/757
f 755/755 756/756 759/759
f 755/755 759/759 758/758
f 757/757 758/758 761/761
f 757/757 761/761 760/760
f 758/758 759/759 762/762
f 758/758 762/762 761/761
f 760/760 761/761 764/764
f 760/760 764/764 763/763
f 761/761 762/762 765/765
f 761/761 765/765 764/764
f 763/763 764/764 767/767
f 763/763 767/767 766/766
f 764/764 765/765 768/768
f 764/764 768/768 767/767
f 766/766 767/767 770/770
f 766/766 770/770 769/769
f 767/767 768/768 771/771
f 767/767 771/771 770/770
f 769/769 770/770 773/773
f 769/769 773/773 772/772
f 770/770 771/771 774/774
f 770/770 774/774 773/773
f 772/772 773/773 776/776
f 772/772 776/776 775/775
f 773/773 774/774 777/777
f 773/773 777/777 776/776
f 775/775 776/776 779/779
f 775/775 779/779 778/778
f 776/776 777/777 780/780
f 776/776 780/780 779/779
f 778/778 779/779 782/782
f 778/778 782/782 781/781
f 779/779 780/780 783/783
f 779/779 783/783 782/782
f 781/781 782/782 785/785
f 781/781 785/785 784/784
f 782/782 783/783 786/786
f 782/782 786/786 785/785
f 784/784 785/785 788/788
f 784/784 788/788 787/787
f 785/785 786/786 789/789
f 785/785 789/789 788/788
f 787/787 788/788 791/791
f 787/787 791/791 790/790
f 788/788 789/789 792/792
f 788/788 792/792 791/791
f 790/790 791/791 794/794
f 790/790 794/794 793/793
f 791/791 792/792 795/795
f 791/791 795/795 794/794
f 793/793 794/794 797/797
f 793/793 797/797 796/796
f 794/794 795/795 798/798
f 794/794 798/798 797/797
f 796/796 797/797 800/800
f 796/796 800/800 799/799
f 797/797 798/798 801/801
f 797/797 801/801 800/800
f 799/799 800/800 803/803
f 799/799 803/803 802/802
f 800/800 801/801 804/804
f 800/800 804/804 803/803
f 802/802 803/803 806/806
f 802/802 806/806 805/805
f 803/803 804/804 807/807
f 803/803 807/807 806/806
f 805/805 806/806 809/809
f 805/805 809/809 808/808
f 806/806 807/807 810/810
f 806/806 810/810 809/809
f 808/808 809/809 812/812
f 808/808 812/812 811/811
f 809/809 810/810 813/813
f 809/809 813/813 812/812
f 811/811 812/812 815/815
f 811/811 815/815 814/814
f 812/812 813/813 816/816
f 812/812 816/816 815/815
f 814/814 815/815 818/818
f 814/814 818/818 817/817
f 815/815 816/816 819/819
f 815/815 819/819 818/818
f 817/817 818/818 821/821
f 817/817 821/821 820/820
f 818/818 819/819 822/822
f 818/818 822/822 821/821
f 820/820 821/821 824/824
f 820/820 824/824 823/823
f 821/821 822/822 825/825
f 821/821 825/825 824/824
f 823/823 824/824 827/827
f 823/823 827/827 826/826
f 824/824 825/825 828/828
f 824/824 828/828 827/827
f 826/826 827/827 830/830
f 826/826 830/830 829/829
f 827/827 828/828 831/831
f 827/827 831/831 830/830
f 829/829 830/830 833/833
f 829/829 833/833 832/832
f 830/830 831/831 834/834
f 830/830 834/834 833/833
f 832/832 833/833 836/836
f 832/832 836/836 835/835
f 833/833 834/834 837/837
f 833/833 837/837 836/836
f 835/835 836/836 839/839
f 835/835 839/839 838/838
f 836/836 837/837 840/840
f 836/836 840/840 839/839
f 838/838 839/839 842/842
f 838/838 842/842 841/841
f 839/839 840/840 843/843
f 839/839 843/843 842/842
f 841/841 842/842 845/845
f 841/841 845/845 844/844
f 842/842 843/843 846/846
f 842/842 846/846 845/845
f 844/844 845/845 848/848
f 844/844 848/848 847/847
f 845/845 846/846 849/849
f 845/845 849/849 848/848
f 847/847 848/848 851/851
f 847/847 851/851 850/850
f 848/848 849/849 852/852
f 848/848 852/852 851/851
f 850/850 851/851 854/854
f 850/850 854/854 853/853
f 851/851 852/852 855/855
f 851/851 855/855 854/854
f 853/853 854/854 857/857
f 853/853 857/857 856/856
f 854/854 855/855 858/858
f 854/854 858/858 857/857
f 856/856 857/857 860/860
f 856/856 860/860 859/859
f 857/857 858/858 861/861
f 857/857 861/861 860/860
f 859/859 860/860 863/863
f 859/859 863/863 862/862
f 860/860 861/861 864/864
f 860/860 864/864 863/863
f 862/862 863/863 866/866
f 862/862 866/866 865/865
f 863/863 864/864 867/867
f 863/863 867/867 866/866
f 865/865 866/866 869/869
f 865/865 869/869 868/868
f 866/866 867/867 870/870
f 866/866 870/870 869/869
f 868/868 869/869 872/872
f 868/868 872/872 871/871
f 869/869 870/870 873/873
f 869/869 873/873 872/872
f 871/871 872/872 875/875
f 871/871 875/875 874/874
f 872/872 873/873 876/876
f 872/872 876/876 875/875
f 874/874 875/875 878/878
f 874/874 878/878 877/877
f 875/875 876/876 879/879
f 875/875 879/879 878/878
f 877/877 878/878 881/881
f 877/877 881/881 880/880
f 878/878 879/879 882/882
f 878/878 882/882 881/881
f 880/880 881/881 884/884
f 880/880 884/884 883/883
f 881/881 882/882 885/885
f 881/881 885/885 884/884
f 883/883 884/884 887/887
f 883/883 887/887 886/886
f 884/884 885/885 888/888
f 884/884 888/888 887/887
f 886/886 887/887 890/890
f 886/886 890/890 889/889
f 887/887 888/888 891/891
f 887/887 891/891 890/890
f 889/889 890/890 893/893
f 889/889 893/893 892/892
f 890/890 891/891 894/894
f 890/890 894/894 893/893
f 892/892 893/893 896/896
f 892/892 896/896 895/895
f 893/893 894/894 897/897
f 893/893 897/897 896/896
f 895/895 896/896 899/899
f 895/895 899/899 898/898
f 896/896 897/897 900/900
f 896/896 900/900 899/899
f 898/898 899/899 902/902
f 898/898 902/902 901/901
f 899/899 900/900 903/903
f 899/899 903/903 902/902
f 901/901 902/902 905/905
f 901/901 905/905 904/904
f 902/902 903/903 906/906
f 902/902 906/906 905/905
f 904/904 905/905 908/908
f 904/904 908/908 907/907
f 905/905 906/906 909/909
f 905/905 909/909 908/908
