mtllib weather_phase_core.mtl
o weather_phase_core
v 0.000000 2.300000 0.000000
v 0.000000 2.300000 0.000000
v 0.000000 2.300000 0.000000
v 0.000000 2.300000 0.000000
v 0.000000 2.300000 0.000000
v 0.000000 2.300000 0.000000
v 0.000000 2.300000 0.000000
v 0.000000 2.300000 0.000000
v 0.000000 2.300000 0.000000
v 0.000000 2.300000 0.000000
v 0.000000 2.300000 0.000000
v 0.000000 2.300000 0.000000
v 0.000000 2.300000 0.000000
v -0.000000 2.300000 0.000000
v -0.000000 2.300000 0.000000
v -0.000000 2.300000 0.000000
v -0.000000 2.300000 0.000000
v -0.000000 2.300000 0.000000
v -0.000000 2.300000 0.000000
v -0.000000 2.300000 0.000000
v -0.000000 2.300000 0.000000
v -0.000000 2.300000 0.000000
v -0.000000 2.300000 0.000000
v -0.000000 2.300000 0.000000
v -0.000000 2.300000 0.000000
v -0.000000 2.300000 -0.000000
v -0.000000 2.300000 -0.000000
v -0.000000 2.300000 -0.000000
v -0.000000 2.300000 -0.000000
v -0.000000 2.300000 -0.000000
v -0.000000 2.300000 -0.000000
v -0.000000 2.300000 -0.000000
v -0.000000 2.300000 -0.000000
v -0.000000 2.300000 -0.000000
v -0.000000 2.300000 -0.000000
v -0.000000 2.300000 -0.000000
v -0.000000 2.300000 -0.000000
v 0.000000 2.300000 -0.000000
v 0.000000 2.300000 -0.000000
v 0.000000 2.300000 -0.000000
v 0.000000 2.300000 -0.000000
v 0.000000 2.300000 -0.000000
v 0.000000 2.300000 -0.000000
v 0.000000 2.300000 -0.000000
v 0.000000 2.300000 -0.000000
v 0.000000 2.300000 -0.000000
v 0.000000 2.300000 -0.000000
v 0.000000 2.300000 -0.000000
v 0.000000 2.300000 -0.000000
v 0.359799 2.271683 0.000000
v 0.356721 2.271683 0.046963
v 0.347539 2.271683 0.093123
v 0.332411 2.271683 0.137689
v 0.311595 2.271683 0.179900
v 0.285448 2.271683 0.219032
v 0.254417 2.271683 0.254417
v 0.219032 2.271683 0.285448
v 0.179900 2.271683 0.311595
v 0.137689 2.271683 0.332411
v 0.093123 2.271683 0.347539
v 0.046963 2.271683 0.356721
v 0.000000 2.271683 0.359799
v -0.046963 2.271683 0.356721
v -0.093123 2.271683 0.347539
v -0.137689 2.271683 0.332411
v -0.179900 2.271683 0.311595
v -0.219032 2.271683 0.285448
v -0.254417 2.271683 0.254417
v -0.285448 2.271683 0.219032
v -0.311595 2.271683 0.179900
v -0.332411 2.271683 0.137689
v -0.347539 2.271683 0.093123
v -0.356721 2.271683 0.046963
v -0.359799 2.271683 0.000000
v -0.356721 2.271683 -0.046963
v -0.347539 2.271683 -0.093123
v -0.332411 2.271683 -0.137689
v -0.311595 2.271683 -0.179900
v -0.285448 2.271683 -0.219032
v -0.254417 2.271683 -0.254417
v -0.219032 2.271683 -0.285448
v -0.179900 2.271683 -0.311595
v -0.137689 2.271683 -0.332411
v -0.093123 2.271683 -0.347539
v -0.046963 2.271683 -0.356721
v -0.000000 2.271683 -0.359799
v 0.046963 2.271683 -0.356721
v 0.093123 2.271683 -0.347539
v 0.137689 2.271683 -0.332411
v 0.179900 2.271683 -0.311595
v 0.219032 2.271683 -0.285448
v 0.254417 2.271683 -0.254417
v 0.285448 2.271683 -0.219032
v 0.311595 2.271683 -0.179900
v 0.332411 2.271683 -0.137689
v 0.347539 2.271683 -0.093123
v 0.356721 2.271683 -0.046963
v 0.359799 2.271683 -0.000000
v 0.710739 2.187430 0.000000
v 0.704659 2.187430 0.092770
v 0.686521 2.187430 0.183953
v 0.656637 2.187430 0.271988
v 0.615518 2.187430 0.355370
v 0.563867 2.187430 0.432671
v 0.502568 2.187430 0.502568
v 0.432671 2.187430 0.563867
v 0.355370 2.187430 0.615518
v 0.271988 2.187430 0.656637
v 0.183953 2.187430 0.686521
v 0.092770 2.187430 0.704659
v 0.000000 2.187430 0.710739
v -0.092770 2.187430 0.704659
v -0.183953 2.187430 0.686521
v -0.271988 2.187430 0.656637
v -0.355370 2.187430 0.615518
v -0.432671 2.187430 0.563867
v -0.502568 2.187430 0.502568
v -0.563867 2.187430 0.432671
v -0.615518 2.187430 0.355370
v -0.656637 2.187430 0.271988
v -0.686521 2.187430 0.183953
v -0.704659 2.187430 0.092770
v -0.710739 2.187430 0.000000
v -0.704659 2.187430 -0.092770
v -0.686521 2.187430 -0.183953
v -0.656637 2.187430 -0.271988
v -0.615518 2.187430 -0.355370
v -0.563867 2.187430 -0.432671
v -0.502568 2.187430 -0.502568
v -0.432671 2.187430 -0.563867
v -0.355370 2.187430 -0.615518
v -0.271988 2.187430 -0.656637
v -0.183953 2.187430 -0.686521
v -0.092770 2.187430 -0.704659
v -0.000000 2.187430 -0.710739
v 0.092770 2.187430 -0.704659
v 0.183953 2.187430 -0.686521
v 0.271988 2.187430 -0.656637
v 0.355370 2.187430 -0.615518
v 0.432671 2.187430 -0.563867
v 0.502568 2.187430 -0.502568
v 0.563867 2.187430 -0.432671
v 0.615518 2.187430 -0.355370
v 0.656637 2.187430 -0.271988
v 0.686521 2.187430 -0.183953
v 0.704659 2.187430 -0.092770
v 0.710739 2.187430 -0.000000
v 1.044178 2.049315 0.000000
v 1.035245 2.049315 0.136293
v 1.008599 2.049315 0.270253
v 0.964695 2.049315 0.399590
v 0.904285 2.049315 0.522089
v 0.828402 2.049315 0.635655
v 0.738345 2.049315 0.738345
v 0.635655 2.049315 0.828402
v 0.522089 2.049315 0.904285
v 0.399590 2.049315 0.964695
v 0.270253 2.049315 1.008599
v 0.136293 2.049315 1.035245
v 0.000000 2.049315 1.044178
v -0.136293 2.049315 1.035245
v -0.270253 2.049315 1.008599
v -0.399590 2.049315 0.964695
v -0.522089 2.049315 0.904285
v -0.635655 2.049315 0.828402
v -0.738345 2.049315 0.738345
v -0.828402 2.049315 0.635655
v -0.904285 2.049315 0.522089
v -0.964695 2.049315 0.399590
v -1.008599 2.049315 0.270253
v -1.035245 2.049315 0.136293
v -1.044178 2.049315 0.000000
v -1.035245 2.049315 -0.136293
v -1.008599 2.049315 -0.270253
v -0.964695 2.049315 -0.399590
v -0.904285 2.049315 -0.522089
v -0.828402 2.049315 -0.635655
v -0.738345 2.049315 -0.738345
v -0.635655 2.049315 -0.828402
v -0.522089 2.049315 -0.904285
v -0.399590 2.049315 -0.964695
v -0.270253 2.049315 -1.008599
v -0.136293 2.049315 -1.035245
v -0.000000 2.049315 -1.044178
v 0.136293 2.049315 -1.035245
v 0.270253 2.049315 -1.008599
v 0.399590 2.049315 -0.964695
v 0.522089 2.049315 -0.904285
v 0.635655 2.049315 -0.828402
v 0.738345 2.049315 -0.738345
v 0.828402 2.049315 -0.635655
v 0.904285 2.049315 -0.522089
v 0.964695 2.049315 -0.399590
v 1.008599 2.049315 -0.270253
v 1.035245 2.049315 -0.136293
v 1.044178 2.049315 -0.000000
v 1.351906 1.860739 0.000000
v 1.340340 1.860739 0.176459
v 1.305841 1.860739 0.349899
v 1.248998 1.860739 0.517352
v 1.170785 1.860739 0.675953
v 1.072539 1.860739 0.822988
v 0.955942 1.860739 0.955942
v 0.822988 1.860739 1.072539
v 0.675953 1.860739 1.170785
v 0.517352 1.860739 1.248998
v 0.349899 1.860739 1.305841
v 0.176459 1.860739 1.340340
v 0.000000 1.860739 1.351906
v -0.176459 1.860739 1.340340
v -0.349899 1.860739 1.305841
v -0.517352 1.860739 1.248998
v -0.675953 1.860739 1.170785
v -0.822988 1.860739 1.072539
v -0.955942 1.860739 0.955942
v -1.072539 1.860739 0.822988
v -1.170785 1.860739 0.675953
v -1.248998 1.860739 0.517352
v -1.305841 1.860739 0.349899
v -1.340340 1.860739 0.176459
v -1.351906 1.860739 0.000000
v -1.340340 1.860739 -0.176459
v -1.305841 1.860739 -0.349899
v -1.248998 1.860739 -0.517352
v -1.170785 1.860739 -0.675953
v -1.072539 1.860739 -0.822988
v -0.955942 1.860739 -0.955942
v -0.822988 1.860739 -1.072539
v -0.675953 1.860739 -1.170785
v -0.517352 1.860739 -1.248998
v -0.349899 1.860739 -1.305841
v -0.176459 1.860739 -1.340340
v -0.000000 1.860739 -1.351906
v 0.176459 1.860739 -1.340340
v 0.349899 1.860739 -1.305841
v 0.517352 1.860739 -1.248998
v 0.675953 1.860739 -1.170785
v 0.822988 1.860739 -1.072539
v 0.955942 1.860739 -0.955942
v 1.072539 1.860739 -0.822988
v 1.170785 1.860739 -0.675953
v 1.248998 1.860739 -0.517352
v 1.305841 1.860739 -0.349899
v 1.340340 1.860739 -0.176459
v 1.351906 1.860739 -0.000000
v 1.626346 1.626346 0.000000
v 1.612432 1.626346 0.212281
v 1.570929 1.626346 0.420929
v 1.502547 1.626346 0.622376
v 1.408457 1.626346 0.813173
v 1.290267 1.626346 0.990056
v 1.150000 1.626346 1.150000
v 0.990056 1.626346 1.290267
v 0.813173 1.626346 1.408457
v 0.622376 1.626346 1.502547
v 0.420929 1.626346 1.570929
v 0.212281 1.626346 1.612432
v 0.000000 1.626346 1.626346
v -0.212281 1.626346 1.612432
v -0.420929 1.626346 1.570929
v -0.622376 1.626346 1.502547
v -0.813173 1.626346 1.408457
v -0.990056 1.626346 1.290267
v -1.150000 1.626346 1.150000
v -1.290267 1.626346 0.990056
v -1.408457 1.626346 0.813173
v -1.502547 1.626346 0.622376
v -1.570929 1.626346 0.420929
v -1.612432 1.626346 0.212281
v -1.626346 1.626346 0.000000
v -1.612432 1.626346 -0.212281
v -1.570929 1.626346 -0.420929
v -1.502547 1.626346 -0.622376
v -1.408457 1.626346 -0.813173
v -1.290267 1.626346 -0.990056
v -1.150000 1.626346 -1.150000
v -0.990056 1.626346 -1.290267
v -0.813173 1.626346 -1.408457
v -0.622376 1.626346 -1.502547
v -0.420929 1.626346 -1.570929
v -0.212281 1.626346 -1.612432
v -0.000000 1.626346 -1.626346
v 0.212281 1.626346 -1.612432
v 0.420929 1.626346 -1.570929
v 0.622376 1.626346 -1.502547
v 0.813173 1.626346 -1.408457
v 0.990056 1.626346 -1.290267
v 1.150000 1.626346 -1.150000
v 1.290267 1.626346 -0.990056
v 1.408457 1.626346 -0.813173
v 1.502547 1.626346 -0.622376
v 1.570929 1.626346 -0.420929
v 1.612432 1.626346 -0.212281
v 1.626346 1.626346 -0.000000
v 1.860739 1.351906 0.000000
v 1.844820 1.351906 0.242875
v 1.797336 1.351906 0.481595
v 1.719099 1.351906 0.712074
v 1.611447 1.351906 0.930370
v 1.476224 1.351906 1.132746
v 1.315741 1.351906 1.315741
v 1.132746 1.351906 1.476224
v 0.930370 1.351906 1.611447
v 0.712074 1.351906 1.719099
v 0.481595 1.351906 1.797336
v 0.242875 1.351906 1.844820
v 0.000000 1.351906 1.860739
v -0.242875 1.351906 1.844820
v -0.481595 1.351906 1.797336
v -0.712074 1.351906 1.719099
v -0.930370 1.351906 1.611447
v -1.132746 1.351906 1.476224
v -1.315741 1.351906 1.315741
v -1.476224 1.351906 1.132746
v -1.611447 1.351906 0.930370
v -1.719099 1.351906 0.712074
v -1.797336 1.351906 0.481595
v -1.844820 1.351906 0.242875
v -1.860739 1.351906 0.000000
v -1.844820 1.351906 -0.242875
v -1.797336 1.351906 -0.481595
v -1.719099 1.351906 -0.712074
v -1.611447 1.351906 -0.930370
v -1.476224 1.351906 -1.132746
v -1.315741 1.351906 -1.315741
v -1.132746 1.351906 -1.476224
v -0.930370 1.351906 -1.611447
v -0.712074 1.351906 -1.719099
v -0.481595 1.351906 -1.797336
v -0.242875 1.351906 -1.844820
v -0.000000 1.351906 -1.860739
v 0.242875 1.351906 -1.844820
v 0.481595 1.351906 -1.797336
v 0.712074 1.351906 -1.719099
v 0.930370 1.351906 -1.611447
v 1.132746 1.351906 -1.476224
v 1.315741 1.351906 -1.315741
v 1.476224 1.351906 -1.132746
v 1.611447 1.351906 -0.930370
v 1.719099 1.351906 -0.712074
v 1.797336 1.351906 -0.481595
v 1.844820 1.351906 -0.242875
v 1.860739 1.351906 -0.000000
v 2.049315 1.044178 0.000000
v 2.031783 1.044178 0.267489
v 1.979486 1.044178 0.530402
v 1.893320 1.044178 0.784239
v 1.774759 1.044178 1.024658
v 1.625831 1.044178 1.247544
v 1.449085 1.044178 1.449085
v 1.247544 1.044178 1.625831
v 1.024658 1.044178 1.774759
v 0.784239 1.044178 1.893320
v 0.530402 1.044178 1.979486
v 0.267489 1.044178 2.031783
v 0.000000 1.044178 2.049315
v -0.267489 1.044178 2.031783
v -0.530402 1.044178 1.979486
v -0.784239 1.044178 1.893320
v -1.024658 1.044178 1.774759
v -1.247544 1.044178 1.625831
v -1.449085 1.044178 1.449085
v -1.625831 1.044178 1.247544
v -1.774759 1.044178 1.024658
v -1.893320 1.044178 0.784239
v -1.979486 1.044178 0.530402
v -2.031783 1.044178 0.267489
v -2.049315 1.044178 0.000000
v -2.031783 1.044178 -0.267489
v -1.979486 1.044178 -0.530402
v -1.893320 1.044178 -0.784239
v -1.774759 1.044178 -1.024658
v -1.625831 1.044178 -1.247544
v -1.449085 1.044178 -1.449085
v -1.247544 1.044178 -1.625831
v -1.024658 1.044178 -1.774759
v -0.784239 1.044178 -1.893320
v -0.530402 1.044178 -1.979486
v -0.267489 1.044178 -2.031783
v -0.000000 1.044178 -2.049315
v 0.267489 1.044178 -2.031783
v 0.530402 1.044178 -1.979486
v 0.784239 1.044178 -1.893320
v 1.024658 1.044178 -1.774759
v 1.247544 1.044178 -1.625831
v 1.449085 1.044178 -1.449085
v 1.625831 1.044178 -1.247544
v 1.774759 1.044178 -1.024658
v 1.893320 1.044178 -0.784239
v 1.979486 1.044178 -0.530402
v 2.031783 1.044178 -0.267489
v 2.049315 1.044178 -0.000000
v 2.187430 0.710739 0.000000
v 2.168716 0.710739 0.285517
v 2.112895 0.710739 0.566149
v 2.020922 0.710739 0.837093
v 1.894370 0.710739 1.093715
v 1.735405 0.710739 1.331623
v 1.546747 0.710739 1.546747
v 1.331623 0.710739 1.735405
v 1.093715 0.710739 1.894370
v 0.837093 0.710739 2.020922
v 0.566149 0.710739 2.112895
v 0.285517 0.710739 2.168716
v 0.000000 0.710739 2.187430
v -0.285517 0.710739 2.168716
v -0.566149 0.710739 2.112895
v -0.837093 0.710739 2.020922
v -1.093715 0.710739 1.894370
v -1.331623 0.710739 1.735405
v -1.546747 0.710739 1.546747
v -1.735405 0.710739 1.331623
v -1.894370 0.710739 1.093715
v -2.020922 0.710739 0.837093
v -2.112895 0.710739 0.566149
v -2.168716 0.710739 0.285517
v -2.187430 0.710739 0.000000
v -2.168716 0.710739 -0.285517
v -2.112895 0.710739 -0.566149
v -2.020922 0.710739 -0.837093
v -1.894370 0.710739 -1.093715
v -1.735405 0.710739 -1.331623
v -1.546747 0.710739 -1.546747
v -1.331623 0.710739 -1.735405
v -1.093715 0.710739 -1.894370
v -0.837093 0.710739 -2.020922
v -0.566149 0.710739 -2.112895
v -0.285517 0.710739 -2.168716
v -0.000000 0.710739 -2.187430
v 0.285517 0.710739 -2.168716
v 0.566149 0.710739 -2.112895
v 0.837093 0.710739 -2.020922
v 1.093715 0.710739 -1.894370
v 1.331623 0.710739 -1.735405
v 1.546747 0.710739 -1.546747
v 1.735405 0.710739 -1.331623
v 1.894370 0.710739 -1.093715
v 2.020922 0.710739 -0.837093
v 2.112895 0.710739 -0.566149
v 2.168716 0.710739 -0.285517
v 2.187430 0.710739 -0.000000
v 2.271683 0.359799 0.000000
v 2.252249 0.359799 0.296514
v 2.194277 0.359799 0.587955
v 2.098762 0.359799 0.869336
v 1.967335 0.359799 1.135842
v 1.802247 0.359799 1.382913
v 1.606323 0.359799 1.606323
v 1.382913 0.359799 1.802247
v 1.135842 0.359799 1.967335
v 0.869336 0.359799 2.098762
v 0.587955 0.359799 2.194277
v 0.296514 0.359799 2.252249
v 0.000000 0.359799 2.271683
v -0.296514 0.359799 2.252249
v -0.587955 0.359799 2.194277
v -0.869336 0.359799 2.098762
v -1.135842 0.359799 1.967335
v -1.382913 0.359799 1.802247
v -1.606323 0.359799 1.606323
v -1.802247 0.359799 1.382913
v -1.967335 0.359799 1.135842
v -2.098762 0.359799 0.869336
v -2.194277 0.359799 0.587955
v -2.252249 0.359799 0.296514
v -2.271683 0.359799 0.000000
v -2.252249 0.359799 -0.296514
v -2.194277 0.359799 -0.587955
v -2.098762 0.359799 -0.869336
v -1.967335 0.359799 -1.135842
v -1.802247 0.359799 -1.382913
v -1.606323 0.359799 -1.606323
v -1.382913 0.359799 -1.802247
v -1.135842 0.359799 -1.967335
v -0.869336 0.359799 -2.098762
v -0.587955 0.359799 -2.194277
v -0.296514 0.359799 -2.252249
v -0.000000 0.359799 -2.271683
v 0.296514 0.359799 -2.252249
v 0.587955 0.359799 -2.194277
v 0.869336 0.359799 -2.098762
v 1.135842 0.359799 -1.967335
v 1.382913 0.359799 -1.802247
v 1.606323 0.359799 -1.606323
v 1.802247 0.359799 -1.382913
v 1.967335 0.359799 -1.135842
v 2.098762 0.359799 -0.869336
v 2.194277 0.359799 -0.587955
v 2.252249 0.359799 -0.296514
v 2.271683 0.359799 -0.000000
v 2.300000 0.000000 0.000000
v 2.280323 0.000000 0.300210
v 2.221629 0.000000 0.595284
v 2.124923 0.000000 0.880172
v 1.991858 0.000000 1.150000
v 1.824713 0.000000 1.400151
v 1.626346 0.000000 1.626346
v 1.400151 0.000000 1.824713
v 1.150000 0.000000 1.991858
v 0.880172 0.000000 2.124923
v 0.595284 0.000000 2.221629
v 0.300210 0.000000 2.280323
v 0.000000 0.000000 2.300000
v -0.300210 0.000000 2.280323
v -0.595284 0.000000 2.221629
v -0.880172 0.000000 2.124923
v -1.150000 0.000000 1.991858
v -1.400151 0.000000 1.824713
v -1.626346 0.000000 1.626346
v -1.824713 0.000000 1.400151
v -1.991858 0.000000 1.150000
v -2.124923 0.000000 0.880172
v -2.221629 0.000000 0.595284
v -2.280323 0.000000 0.300210
v -2.300000 0.000000 0.000000
v -2.280323 0.000000 -0.300210
v -2.221629 0.000000 -0.595284
v -2.124923 0.000000 -0.880172
v -1.991858 0.000000 -1.150000
v -1.824713 0.000000 -1.400151
v -1.626346 0.000000 -1.626346
v -1.400151 0.000000 -1.824713
v -1.150000 0.000000 -1.991858
v -0.880172 0.000000 -2.124923
v -0.595284 0.000000 -2.221629
v -0.300210 0.000000 -2.280323
v -0.000000 0.000000 -2.300000
v 0.300210 0.000000 -2.280323
v 0.595284 0.000000 -2.221629
v 0.880172 0.000000 -2.124923
v 1.150000 0.000000 -1.991858
v 1.400151 0.000000 -1.824713
v 1.626346 0.000000 -1.626346
v 1.824713 0.000000 -1.400151
v 1.991858 0.000000 -1.150000
v 2.124923 0.000000 -0.880172
v 2.221629 0.000000 -0.595284
v 2.280323 0.000000 -0.300210
v 2.300000 0.000000 -0.000000
v 2.271683 -0.359799 0.000000
v 2.252249 -0.359799 0.296514
v 2.194277 -0.359799 0.587955
v 2.098762 -0.359799 0.869336
v 1.967335 -0.359799 1.135842
v 1.802247 -0.359799 1.382913
v 1.606323 -0.359799 1.606323
v 1.382913 -0.359799 1.802247
v 1.135842 -0.359799 1.967335
v 0.869336 -0.359799 2.098762
v 0.587955 -0.359799 2.194277
v 0.296514 -0.359799 2.252249
v 0.000000 -0.359799 2.271683
v -0.296514 -0.359799 2.252249
v -0.587955 -0.359799 2.194277
v -0.869336 -0.359799 2.098762
v -1.135842 -0.359799 1.967335
v -1.382913 -0.359799 1.802247
v -1.606323 -0.359799 1.606323
v -1.802247 -0.359799 1.382913
v -1.967335 -0.359799 1.135842
v -2.098762 -0.359799 0.869336
v -2.194277 -0.359799 0.587955
v -2.252249 -0.359799 0.296514
v -2.271683 -0.359799 0.000000
v -2.252249 -0.359799 -0.296514
v -2.194277 -0.359799 -0.587955
v -2.098762 -0.359799 -0.869336
v -1.967335 -0.359799 -1.135842
v -1.802247 -0.359799 -1.382913
v -1.606323 -0.359799 -1.606323
v -1.382913 -0.359799 -1.802247
v -1.135842 -0.359799 -1.967335
v -0.869336 -0.359799 -2.098762
v -0.587955 -0.359799 -2.194277
v -0.296514 -0.359799 -2.252249
v -0.000000 -0.359799 -2.271683
v 0.296514 -0.359799 -2.252249
v 0.587955 -0.359799 -2.194277
v 0.869336 -0.359799 -2.098762
v 1.135842 -0.359799 -1.967335
v 1.382913 -0.359799 -1.802247
v 1.606323 -0.359799 -1.606323
v 1.802247 -0.359799 -1.382913
v 1.967335 -0.359799 -1.135842
v 2.098762 -0.359799 -0.869336
v 2.194277 -0.359799 -0.587955
v 2.252249 -0.359799 -0.296514
v 2.271683 -0.359799 -0.000000
v 2.187430 -0.710739 0.000000
v 2.168716 -0.710739 0.285517
v 2.112895 -0.710739 0.566149
v 2.020922 -0.710739 0.837093
v 1.894370 -0.710739 1.093715
v 1.735405 -0.710739 1.331623
v 1.546747 -0.710739 1.546747
v 1.331623 -0.710739 1.735405
v 1.093715 -0.710739 1.894370
v 0.837093 -0.710739 2.020922
v 0.566149 -0.710739 2.112895
v 0.285517 -0.710739 2.168716
v 0.000000 -0.710739 2.187430
v -0.285517 -0.710739 2.168716
v -0.566149 -0.710739 2.112895
v -0.837093 -0.710739 2.020922
v -1.093715 -0.710739 1.894370
v -1.331623 -0.710739 1.735405
v -1.546747 -0.710739 1.546747
v -1.735405 -0.710739 1.331623
v -1.894370 -0.710739 1.093715
v -2.020922 -0.710739 0.837093
v -2.112895 -0.710739 0.566149
v -2.168716 -0.710739 0.285517
v -2.187430 -0.710739 0.000000
v -2.168716 -0.710739 -0.285517
v -2.112895 -0.710739 -0.566149
v -2.020922 -0.710739 -0.837093
v -1.894370 -0.710739 -1.093715
v -1.735405 -0.710739 -1.331623
v -1.546747 -0.710739 -1.546747
v -1.331623 -0.710739 -1.735405
v -1.093715 -0.710739 -1.894370
v -0.837093 -0.710739 -2.020922
v -0.566149 -0.710739 -2.112895
v -0.285517 -0.710739 -2.168716
v -0.000000 -0.710739 -2.187430
v 0.285517 -0.710739 -2.168716
v 0.566149 -0.710739 -2.112895
v 0.837093 -0.710739 -2.020922
v 1.093715 -0.710739 -1.894370
v 1.331623 -0.710739 -1.735405
v 1.546747 -0.710739 -1.546747
v 1.735405 -0.710739 -1.331623
v 1.894370 -0.710739 -1.093715
v 2.020922 -0.710739 -0.837093
v 2.112895 -0.710739 -0.566149
v 2.168716 -0.710739 -0.285517
v 2.187430 -0.710739 -0.000000
v 2.049315 -1.044178 0.000000
v 2.031783 -1.044178 0.267489
v 1.979486 -1.044178 0.530402
v 1.893320 -1.044178 0.784239
v 1.774759 -1.044178 1.024658
v 1.625831 -1.044178 1.247544
v 1.449085 -1.044178 1.449085
v 1.247544 -1.044178 1.625831
v 1.024658 -1.044178 1.774759
v 0.784239 -1.044178 1.893320
v 0.530402 -1.044178 1.979486
v 0.267489 -1.044178 2.031783
v 0.000000 -1.044178 2.049315
v -0.267489 -1.044178 2.031783
v -0.530402 -1.044178 1.979486
v -0.784239 -1.044178 1.893320
v -1.024658 -1.044178 1.774759
v -1.247544 -1.044178 1.625831
v -1.449085 -1.044178 1.449085
v -1.625831 -1.044178 1.247544
v -1.774759 -1.044178 1.024658
v -1.893320 -1.044178 0.784239
v -1.979486 -1.044178 0.530402
v -2.031783 -1.044178 0.267489
v -2.049315 -1.044178 0.000000
v -2.031783 -1.044178 -0.267489
v -1.979486 -1.044178 -0.530402
v -1.893320 -1.044178 -0.784239
v -1.774759 -1.044178 -1.024658
v -1.625831 -1.044178 -1.247544
v -1.449085 -1.044178 -1.449085
v -1.247544 -1.044178 -1.625831
v -1.024658 -1.044178 -1.774759
v -0.784239 -1.044178 -1.893320
v -0.530402 -1.044178 -1.979486
v -0.267489 -1.044178 -2.031783
v -0.000000 -1.044178 -2.049315
v 0.267489 -1.044178 -2.031783
v 0.530402 -1.044178 -1.979486
v 0.784239 -1.044178 -1.893320
v 1.024658 -1.044178 -1.774759
v 1.247544 -1.044178 -1.625831
v 1.449085 -1.044178 -1.449085
v 1.625831 -1.044178 -1.247544
v 1.774759 -1.044178 -1.024658
v 1.893320 -1.044178 -0.784239
v 1.979486 -1.044178 -0.530402
v 2.031783 -1.044178 -0.267489
v 2.049315 -1.044178 -0.000000
v 1.860739 -1.351906 0.000000
v 1.844820 -1.351906 0.242875
v 1.797336 -1.351906 0.481595
v 1.719099 -1.351906 0.712074
v 1.611447 -1.351906 0.930370
v 1.476224 -1.351906 1.132746
v 1.315741 -1.351906 1.315741
v 1.132746 -1.351906 1.476224
v 0.930370 -1.351906 1.611447
v 0.712074 -1.351906 1.719099
v 0.481595 -1.351906 1.797336
v 0.242875 -1.351906 1.844820
v 0.000000 -1.351906 1.860739
v -0.242875 -1.351906 1.844820
v -0.481595 -1.351906 1.797336
v -0.712074 -1.351906 1.719099
v -0.930370 -1.351906 1.611447
v -1.132746 -1.351906 1.476224
v -1.315741 -1.351906 1.315741
v -1.476224 -1.351906 1.132746
v -1.611447 -1.351906 0.930370
v -1.719099 -1.351906 0.712074
v -1.797336 -1.351906 0.481595
v -1.844820 -1.351906 0.242875
v -1.860739 -1.351906 0.000000
v -1.844820 -1.351906 -0.242875
v -1.797336 -1.351906 -0.481595
v -1.719099 -1.351906 -0.712074
v -1.611447 -1.351906 -0.930370
v -1.476224 -1.351906 -1.132746
v -1.315741 -1.351906 -1.315741
v -1.132746 -1.351906 -1.476224
v -0.930370 -1.351906 -1.611447
v -0.712074 -1.351906 -1.719099
v -0.481595 -1.351906 -1.797336
v -0.242875 -1.351906 -1.844820
v -0.000000 -1.351906 -1.860739
v 0.242875 -1.351906 -1.844820
v 0.481595 -1.351906 -1.797336
v 0.712074 -1.351906 -1.719099
v 0.930370 -1.351906 -1.611447
v 1.132746 -1.351906 -1.476224
v 1.315741 -1.351906 -1.315741
v 1.476224 -1.351906 -1.132746
v 1.611447 -1.351906 -0.930370
v 1.719099 -1.351906 -0.712074
v 1.797336 -1.351906 -0.481595
v 1.844820 -1.351906 -0.242875
v 1.860739 -1.351906 -0.000000
v 1.626346 -1.626346 0.000000
v 1.612432 -1.626346 0.212281
v 1.570929 -1.626346 0.420929
v 1.502547 -1.626346 0.622376
v 1.408457 -1.626346 0.813173
v 1.290267 -1.626346 0.990056
v 1.150000 -1.626346 1.150000
v 0.990056 -1.626346 1.290267
v 0.813173 -1.626346 1.408457
v 0.622376 -1.626346 1.502547
v 0.420929 -1.626346 1.570929
v 0.212281 -1.626346 1.612432
v 0.000000 -1.626346 1.626346
v -0.212281 -1.626346 1.612432
v -0.420929 -1.626346 1.570929
v -0.622376 -1.626346 1.502547
v -0.813173 -1.626346 1.408457
v -0.990056 -1.626346 1.290267
v -1.150000 -1.626346 1.150000
v -1.290267 -1.626346 0.990056
v -1.408457 -1.626346 0.813173
v -1.502547 -1.626346 0.622376
v -1.570929 -1.626346 0.420929
v -1.612432 -1.626346 0.212281
v -1.626346 -1.626346 0.000000
v -1.612432 -1.626346 -0.212281
v -1.570929 -1.626346 -0.420929
v -1.502547 -1.626346 -0.622376
v -1.408457 -1.626346 -0.813173
v -1.290267 -1.626346 -0.990056
v -1.150000 -1.626346 -1.150000
v -0.990056 -1.626346 -1.290267
v -0.813173 -1.626346 -1.408457
v -0.622376 -1.626346 -1.502547
v -0.420929 -1.626346 -1.570929
v -0.212281 -1.626346 -1.612432
v -0.000000 -1.626346 -1.626346
v 0.212281 -1.626346 -1.612432
v 0.420929 -1.626346 -1.570929
v 0.622376 -1.626346 -1.502547
v 0.813173 -1.626346 -1.408457
v 0.990056 -1.626346 -1.290267
v 1.150000 -1.626346 -1.150000
v 1.290267 -1.626346 -0.990056
v 1.408457 -1.626346 -0.813173
v 1.502547 -1.626346 -0.622376
v 1.570929 -1.626346 -0.420929
v 1.612432 -1.626346 -0.212281
v 1.626346 -1.626346 -0.000000
v 1.351906 -1.860739 0.000000
v 1.340340 -1.860739 0.176459
v 1.305841 -1.860739 0.349899
v 1.248998 -1.860739 0.517352
v 1.170785 -1.860739 0.675953
v 1.072539 -1.860739 0.822988
v 0.955942 -1.860739 0.955942
v 0.822988 -1.860739 1.072539
v 0.675953 -1.860739 1.170785
v 0.517352 -1.860739 1.248998
v 0.349899 -1.860739 1.305841
v 0.176459 -1.860739 1.340340
v 0.000000 -1.860739 1.351906
v -0.176459 -1.860739 1.340340
v -0.349899 -1.860739 1.305841
v -0.517352 -1.860739 1.248998
v -0.675953 -1.860739 1.170785
v -0.822988 -1.860739 1.072539
v -0.955942 -1.860739 0.955942
v -1.072539 -1.860739 0.822988
v -1.170785 -1.860739 0.675953
v -1.248998 -1.860739 0.517352
v -1.305841 -1.860739 0.349899
v -1.340340 -1.860739 0.176459
v -1.351906 -1.860739 0.000000
v -1.340340 -1.860739 -0.176459
v -1.305841 -1.860739 -0.349899
v -1.248998 -1.860739 -0.517352
v -1.170785 -1.860739 -0.675953
v -1.072539 -1.860739 -0.822988
v -0.955942 -1.860739 -0.955942
v -0.822988 -1.860739 -1.072539
v -0.675953 -1.860739 -1.170785
v -0.517352 -1.860739 -1.248998
v -0.349899 -1.860739 -1.305841
v -0.176459 -1.860739 -1.340340
v -0.000000 -1.860739 -1.351906
v 0.176459 -1.860739 -1.340340
v 0.349899 -1.860739 -1.305841
v 0.517352 -1.860739 -1.248998
v 0.675953 -1.860739 -1.170785
v 0.822988 -1.860739 -1.072539
v 0.955942 -1.860739 -0.955942
v 1.072539 -1.860739 -0.822988
v 1.170785 -1.860739 -0.675953
v 1.248998 -1.860739 -0.517352
v 1.305841 -1.860739 -0.349899
v 1.340340 -1.860739 -0.176459
v 1.351906 -1.860739 -0.000000
v 1.044178 -2.049315 0.000000
v 1.035245 -2.049315 0.136293
v 1.008599 -2.049315 0.270253
v 0.964695 -2.049315 0.399590
v 0.904285 -2.049315 0.522089
v 0.828402 -2.049315 0.635655
v 0.738345 -2.049315 0.738345
v 0.635655 -2.049315 0.828402
v 0.522089 -2.049315 0.904285
v 0.399590 -2.049315 0.964695
v 0.270253 -2.049315 1.008599
v 0.136293 -2.049315 1.035245
v 0.000000 -2.049315 1.044178
v -0.136293 -2.049315 1.035245
v -0.270253 -2.049315 1.008599
v -0.399590 -2.049315 0.964695
v -0.522089 -2.049315 0.904285
v -0.635655 -2.049315 0.828402
v -0.738345 -2.049315 0.738345
v -0.828402 -2.049315 0.635655
v -0.904285 -2.049315 0.522089
v -0.964695 -2.049315 0.399590
v -1.008599 -2.049315 0.270253
v -1.035245 -2.049315 0.136293
v -1.044178 -2.049315 0.000000
v -1.035245 -2.049315 -0.136293
v -1.008599 -2.049315 -0.270253
v -0.964695 -2.049315 -0.399590
v -0.904285 -2.049315 -0.522089
v -0.828402 -2.049315 -0.635655
v -0.738345 -2.049315 -0.738345
v -0.635655 -2.049315 -0.828402
v -0.522089 -2.049315 -0.904285
v -0.399590 -2.049315 -0.964695
v -0.270253 -2.049315 -1.008599
v -0.136293 -2.049315 -1.035245
v -0.000000 -2.049315 -1.044178
v 0.136293 -2.049315 -1.035245
v 0.270253 -2.049315 -1.008599
v 0.399590 -2.049315 -0.964695
v 0.522089 -2.049315 -0.904285
v 0.635655 -2.049315 -0.828402
v 0.738345 -2.049315 -0.738345
v 0.828402 -2.049315 -0.635655
v 0.904285 -2.049315 -0.522089
v 0.964695 -2.049315 -0.399590
v 1.008599 -2.049315 -0.270253
v 1.035245 -2.049315 -0.136293
v 1.044178 -2.049315 -0.000000
v 0.710739 -2.187430 0.000000
v 0.704659 -2.187430 0.092770
v 0.686521 -2.187430 0.183953
v 0.656637 -2.187430 0.271988
v 0.615518 -2.187430 0.355370
v 0.563867 -2.187430 0.432671
v 0.502568 -2.187430 0.502568
v 0.432671 -2.187430 0.563867
v 0.355370 -2.187430 0.615518
v 0.271988 -2.187430 0.656637
v 0.183953 -2.187430 0.686521
v 0.092770 -2.187430 0.704659
v 0.000000 -2.187430 0.710739
v -0.092770 -2.187430 0.704659
v -0.183953 -2.187430 0.686521
v -0.271988 -2.187430 0.656637
v -0.355370 -2.187430 0.615518
v -0.432671 -2.187430 0.563867
v -0.502568 -2.187430 0.502568
v -0.563867 -2.187430 0.432671
v -0.615518 -2.187430 0.355370
v -0.656637 -2.187430 0.271988
v -0.686521 -2.187430 0.183953
v -0.704659 -2.187430 0.092770
v -0.710739 -2.187430 0.000000
v -0.704659 -2.187430 -0.092770
v -0.686521 -2.187430 -0.183953
v -0.656637 -2.187430 -0.271988
v -0.615518 -2.187430 -0.355370
v -0.563867 -2.187430 -0.432671
v -0.502568 -2.187430 -0.502568
v -0.432671 -2.187430 -0.563867
v -0.355370 -2.187430 -0.615518
v -0.271988 -2.187430 -0.656637
v -0.183953 -2.187430 -0.686521
v -0.092770 -2.187430 -0.704659
v -0.000000 -2.187430 -0.710739
v 0.092770 -2.187430 -0.704659
v 0.183953 -2.187430 -0.686521
v 0.271988 -2.187430 -0.656637
v 0.355370 -2.187430 -0.615518
v 0.432671 -2.187430 -0.563867
v 0.502568 -2.187430 -0.502568
v 0.563867 -2.187430 -0.432671
v 0.615518 -2.187430 -0.355370
v 0.656637 -2.187430 -0.271988
v 0.686521 -2.187430 -0.183953
v 0.704659 -2.187430 -0.092770
v 0.710739 -2.187430 -0.000000
v 0.359799 -2.271683 0.000000
v 0.356721 -2.271683 0.046963
v 0.347539 -2.271683 0.093123
v 0.332411 -2.271683 0.137689
v 0.311595 -2.271683 0.179900
v 0.285448 -2.271683 0.219032
v 0.254417 -2.271683 0.254417
v 0.219032 -2.271683 0.285448
v 0.179900 -2.271683 0.311595
v 0.137689 -2.271683 0.332411
v 0.093123 -2.271683 0.347539
v 0.046963 -2.271683 0.356721
v 0.000000 -2.271683 0.359799
v -0.046963 -2.271683 0.356721
v -0.093123 -2.271683 0.347539
v -0.137689 -2.271683 0.332411
v -0.179900 -2.271683 0.311595
v -0.219032 -2.271683 0.285448
v -0.254417 -2.271683 0.254417
v -0.285448 -2.271683 0.219032
v -0.311595 -2.271683 0.179900
v -0.332411 -2.271683 0.137689
v -0.347539 -2.271683 0.093123
v -0.356721 -2.271683 0.046963
v -0.359799 -2.271683 0.000000
v -0.356721 -2.271683 -0.046963
v -0.347539 -2.271683 -0.093123
v -0.332411 -2.271683 -0.137689
v -0.311595 -2.271683 -0.179900
v -0.285448 -2.271683 -0.219032
v -0.254417 -2.271683 -0.254417
v -0.219032 -2.271683 -0.285448
v -0.179900 -2.271683 -0.311595
v -0.137689 -2.271683 -0.332411
v -0.093123 -2.271683 -0.347539
v -0.046963 -2.271683 -0.356721
v -0.000000 -2.271683 -0.359799
v 0.046963 -2.271683 -0.356721
v 0.093123 -2.271683 -0.347539
v 0.137689 -2.271683 -0.332411
v 0.179900 -2.271683 -0.311595
v 0.219032 -2.271683 -0.285448
v 0.254417 -2.271683 -0.254417
v 0.285448 -2.271683 -0.219032
v 0.311595 -2.271683 -0.179900
v 0.332411 -2.271683 -0.137689
v 0.347539 -2.271683 -0.093123
v 0.356721 -2.271683 -0.046963
v 0.359799 -2.271683 -0.000000
v 0.000000 -2.300000 0.000000
v 0.000000 -2.300000 0.000000
v 0.000000 -2.300000 0.000000
v 0.000000 -2.300000 0.000000
v 0.000000 -2.300000 0.000000
v 0.000000 -2.300000 0.000000
v 0.000000 -2.300000 0.000000
v 0.000000 -2.300000 0.000000
v 0.000000 -2.300000 0.000000
v 0.000000 -2.300000 0.000000
v 0.000000 -2.300000 0.000000
v 0.000000 -2.300000 0.000000
v 0.000000 -2.300000 0.000000
v -0.000000 -2.300000 0.000000
v -0.000000 -2.300000 0.000000
v -0.000000 -2.300000 0.000000
v -0.000000 -2.300000 0.000000
v -0.000000 -2.300000 0.000000
v -0.000000 -2.300000 0.000000
v -0.000000 -2.300000 0.000000
v -0.000000 -2.300000 0.000000
v -0.000000 -2.300000 0.000000
v -0.000000 -2.300000 0.000000
v -0.000000 -2.300000 0.000000
v -0.000000 -2.300000 0.000000
v -0.000000 -2.300000 -0.000000
v -0.000000 -2.300000 -0.000000
v -0.000000 -2.300000 -0.000000
v -0.000000 -2.300000 -0.000000
v -0.000000 -2.300000 -0.000000
v -0.000000 -2.300000 -0.000000
v -0.000000 -2.300000 -0.000000
v -0.000000 -2.300000 -0.000000
v -0.000000 -2.300000 -0.000000
v -0.000000 -2.300000 -0.000000
v -0.000000 -2.300000 -0.000000
v -0.000000 -2.300000 -0.000000
v 0.000000 -2.300000 -0.000000
v 0.000000 -2.300000 -0.000000
v 0.000000 -2.300000 -0.000000
v 0.000000 -2.300000 -0.000000
v 0.000000 -2.300000 -0.000000
v 0.000000 -2.300000 -0.000000
v 0.000000 -2.300000 -0.000000
v 0.000000 -2.300000 -0.000000
v 0.000000 -2.300000 -0.000000
v 0.000000 -2.300000 -0.000000
v 0.000000 -2.300000 -0.000000
v 0.000000 -2.300000 -0.000000
vt 0.000000 0.000000
vt 0.020833 0.000000
vt 0.041667 0.000000
vt 0.062500 0.000000
vt 0.083333 0.000000
vt 0.104167 0.000000
vt 0.125000 0.000000
vt 0.145833 0.000000
vt 0.166667 0.000000
vt 0.187500 0.000000
vt 0.208333 0.000000
vt 0.229167 0.000000
vt 0.250000 0.000000
vt 0.270833 0.000000
vt 0.291667 0.000000
vt 0.312500 0.000000
vt 0.333333 0.000000
vt 0.354167 0.000000
vt 0.375000 0.000000
vt 0.395833 0.000000
vt 0.416667 0.000000
vt 0.437500 0.000000
vt 0.458333 0.000000
vt 0.479167 0.000000
vt 0.500000 0.000000
vt 0.520833 0.000000
vt 0.541667 0.000000
vt 0.562500 0.000000
vt 0.583333 0.000000
vt 0.604167 0.000000
vt 0.625000 0.000000
vt 0.645833 0.000000
vt 0.666667 0.000000
vt 0.687500 0.000000
vt 0.708333 0.000000
vt 0.729167 0.000000
vt 0.750000 0.000000
vt 0.770833 0.000000
vt 0.791667 0.000000
vt 0.812500 0.000000
vt 0.833333 0.000000
vt 0.854167 0.000000
vt 0.875000 0.000000
vt 0.895833 0.000000
vt 0.916667 0.000000
vt 0.937500 0.000000
vt 0.958333 0.000000
vt 0.979167 0.000000
vt 1.000000 0.000000
vt 0.000000 0.050000
vt 0.020833 0.050000
vt 0.041667 0.050000
vt 0.062500 0.050000
vt 0.083333 0.050000
vt 0.104167 0.050000
vt 0.125000 0.050000
vt 0.145833 0.050000
vt 0.166667 0.050000
vt 0.187500 0.050000
vt 0.208333 0.050000
vt 0.229167 0.050000
vt 0.250000 0.050000
vt 0.270833 0.050000
vt 0.291667 0.050000
vt 0.312500 0.050000
vt 0.333333 0.050000
vt 0.354167 0.050000
vt 0.375000 0.050000
vt 0.395833 0.050000
vt 0.416667 0.050000
vt 0.437500 0.050000
vt 0.458333 0.050000
vt 0.479167 0.050000
vt 0.500000 0.050000
vt 0.520833 0.050000
vt 0.541667 0.050000
vt 0.562500 0.050000
vt 0.583333 0.050000
vt 0.604167 0.050000
vt 0.625000 0.050000
vt 0.645833 0.050000
vt 0.666667 0.050000
vt 0.687500 0.050000
vt 0.708333 0.050000
vt 0.729167 0.050000
vt 0.750000 0.050000
vt 0.770833 0.050000
vt 0.791667 0.050000
vt 0.812500 0.050000
vt 0.833333 0.050000
vt 0.854167 0.050000
vt 0.875000 0.050000
vt 0.895833 0.050000
vt 0.916667 0.050000
vt 0.937500 0.050000
vt 0.958333 0.050000
vt 0.979167 0.050000
vt 1.000000 0.050000
vt 0.000000 0.100000
vt 0.020833 0.100000
vt 0.041667 0.100000
vt 0.062500 0.100000
vt 0.083333 0.100000
vt 0.104167 0.100000
vt 0.125000 0.100000
vt 0.145833 0.100000
vt 0.166667 0.100000
vt 0.187500 0.100000
vt 0.208333 0.100000
vt 0.229167 0.100000
vt 0.250000 0.100000
vt 0.270833 0.100000
vt 0.291667 0.100000
vt 0.312500 0.100000
vt 0.333333 0.100000
vt 0.354167 0.100000
vt 0.375000 0.100000
vt 0.395833 0.100000
vt 0.416667 0.100000
vt 0.437500 0.100000
vt 0.458333 0.100000
vt 0.479167 0.100000
vt 0.500000 0.100000
vt 0.520833 0.100000
vt 0.541667 0.100000
vt 0.562500 0.100000
vt 0.583333 0.100000
vt 0.604167 0.100000
vt 0.625000 0.100000
vt 0.645833 0.100000
vt 0.666667 0.100000
vt 0.687500 0.100000
vt 0.708333 0.100000
vt 0.729167 0.100000
vt 0.750000 0.100000
vt 0.770833 0.100000
vt 0.791667 0.100000
vt 0.812500 0.100000
vt 0.833333 0.100000
vt 0.854167 0.100000
vt 0.875000 0.100000
vt 0.895833 0.100000
vt 0.916667 0.100000
vt 0.937500 0.100000
vt 0.958333 0.100000
vt 0.979167 0.100000
vt 1.000000 0.100000
vt 0.000000 0.150000
vt 0.020833 0.150000
vt 0.041667 0.150000
vt 0.062500 0.150000
vt 0.083333 0.150000
vt 0.104167 0.150000
vt 0.125000 0.150000
vt 0.145833 0.150000
vt 0.166667 0.150000
vt 0.187500 0.150000
vt 0.208333 0.150000
vt 0.229167 0.150000
vt 0.250000 0.150000
vt 0.270833 0.150000
vt 0.291667 0.150000
vt 0.312500 0.150000
vt 0.333333 0.150000
vt 0.354167 0.150000
vt 0.375000 0.150000
vt 0.395833 0.150000
vt 0.416667 0.150000
vt 0.437500 0.150000
vt 0.458333 0.150000
vt 0.479167 0.150000
vt 0.500000 0.150000
vt 0.520833 0.150000
vt 0.541667 0.150000
vt 0.562500 0.150000
vt 0.583333 0.150000
vt 0.604167 0.150000
vt 0.625000 0.150000
vt 0.645833 0.150000
vt 0.666667 0.150000
vt 0.687500 0.150000
vt 0.708333 0.150000
vt 0.729167 0.150000
vt 0.750000 0.150000
vt 0.770833 0.150000
vt 0.791667 0.150000
vt 0.812500 0.150000
vt 0.833333 0.150000
vt 0.854167 0.150000
vt 0.875000 0.150000
vt 0.895833 0.150000
vt 0.916667 0.150000
vt 0.937500 0.150000
vt 0.958333 0.150000
vt 0.979167 0.150000
vt 1.000000 0.150000
vt 0.000000 0.200000
vt 0.020833 0.200000
vt 0.041667 0.200000
vt 0.062500 0.200000
vt 0.083333 0.200000
vt 0.104167 0.200000
vt 0.125000 0.200000
vt 0.145833 0.200000
vt 0.166667 0.200000
vt 0.187500 0.200000
vt 0.208333 0.200000
vt 0.229167 0.200000
vt 0.250000 0.200000
vt 0.270833 0.200000
vt 0.291667 0.200000
vt 0.312500 0.200000
vt 0.333333 0.200000
vt 0.354167 0.200000
vt 0.375000 0.200000
vt 0.395833 0.200000
vt 0.416667 0.200000
vt 0.437500 0.200000
vt 0.458333 0.200000
vt 0.479167 0.200000
vt 0.500000 0.200000
vt 0.520833 0.200000
vt 0.541667 0.200000
vt 0.562500 0.200000
vt 0.583333 0.200000
vt 0.604167 0.200000
vt 0.625000 0.200000
vt 0.645833 0.200000
vt 0.666667 0.200000
vt 0.687500 0.200000
vt 0.708333 0.200000
vt 0.729167 0.200000
vt 0.750000 0.200000
vt 0.770833 0.200000
vt 0.791667 0.200000
vt 0.812500 0.200000
vt 0.833333 0.200000
vt 0.854167 0.200000
vt 0.875000 0.200000
vt 0.895833 0.200000
vt 0.916667 0.200000
vt 0.937500 0.200000
vt 0.958333 0.200000
vt 0.979167 0.200000
vt 1.000000 0.200000
vt 0.000000 0.250000
vt 0.020833 0.250000
vt 0.041667 0.250000
vt 0.062500 0.250000
vt 0.083333 0.250000
vt 0.104167 0.250000
vt 0.125000 0.250000
vt 0.145833 0.250000
vt 0.166667 0.250000
vt 0.187500 0.250000
vt 0.208333 0.250000
vt 0.229167 0.250000
vt 0.250000 0.250000
vt 0.270833 0.250000
vt 0.291667 0.250000
vt 0.312500 0.250000
vt 0.333333 0.250000
vt 0.354167 0.250000
vt 0.375000 0.250000
vt 0.395833 0.250000
vt 0.416667 0.250000
vt 0.437500 0.250000
vt 0.458333 0.250000
vt 0.479167 0.250000
vt 0.500000 0.250000
vt 0.520833 0.250000
vt 0.541667 0.250000
vt 0.562500 0.250000
vt 0.583333 0.250000
vt 0.604167 0.250000
vt 0.625000 0.250000
vt 0.645833 0.250000
vt 0.666667 0.250000
vt 0.687500 0.250000
vt 0.708333 0.250000
vt 0.729167 0.250000
vt 0.750000 0.250000
vt 0.770833 0.250000
vt 0.791667 0.250000
vt 0.812500 0.250000
vt 0.833333 0.250000
vt 0.854167 0.250000
vt 0.875000 0.250000
vt 0.895833 0.250000
vt 0.916667 0.250000
vt 0.937500 0.250000
vt 0.958333 0.250000
vt 0.979167 0.250000
vt 1.000000 0.250000
vt 0.000000 0.300000
vt 0.020833 0.300000
vt 0.041667 0.300000
vt 0.062500 0.300000
vt 0.083333 0.300000
vt 0.104167 0.300000
vt 0.125000 0.300000
vt 0.145833 0.300000
vt 0.166667 0.300000
vt 0.187500 0.300000
vt 0.208333 0.300000
vt 0.229167 0.300000
vt 0.250000 0.300000
vt 0.270833 0.300000
vt 0.291667 0.300000
vt 0.312500 0.300000
vt 0.333333 0.300000
vt 0.354167 0.300000
vt 0.375000 0.300000
vt 0.395833 0.300000
vt 0.416667 0.300000
vt 0.437500 0.300000
vt 0.458333 0.300000
vt 0.479167 0.300000
vt 0.500000 0.300000
vt 0.520833 0.300000
vt 0.541667 0.300000
vt 0.562500 0.300000
vt 0.583333 0.300000
vt 0.604167 0.300000
vt 0.625000 0.300000
vt 0.645833 0.300000
vt 0.666667 0.300000
vt 0.687500 0.300000
vt 0.708333 0.300000
vt 0.729167 0.300000
vt 0.750000 0.300000
vt 0.770833 0.300000
vt 0.791667 0.300000
vt 0.812500 0.300000
vt 0.833333 0.300000
vt 0.854167 0.300000
vt 0.875000 0.300000
vt 0.895833 0.300000
vt 0.916667 0.300000
vt 0.937500 0.300000
vt 0.958333 0.300000
vt 0.979167 0.300000
vt 1.000000 0.300000
vt 0.000000 0.350000
vt 0.020833 0.350000
vt 0.041667 0.350000
vt 0.062500 0.350000
vt 0.083333 0.350000
vt 0.104167 0.350000
vt 0.125000 0.350000
vt 0.145833 0.350000
vt 0.166667 0.350000
vt 0.187500 0.350000
vt 0.208333 0.350000
vt 0.229167 0.350000
vt 0.250000 0.350000
vt 0.270833 0.350000
vt 0.291667 0.350000
vt 0.312500 0.350000
vt 0.333333 0.350000
vt 0.354167 0.350000
vt 0.375000 0.350000
vt 0.395833 0.350000
vt 0.416667 0.350000
vt 0.437500 0.350000
vt 0.458333 0.350000
vt 0.479167 0.350000
vt 0.500000 0.350000
vt 0.520833 0.350000
vt 0.541667 0.350000
vt 0.562500 0.350000
vt 0.583333 0.350000
vt 0.604167 0.350000
vt 0.625000 0.350000
vt 0.645833 0.350000
vt 0.666667 0.350000
vt 0.687500 0.350000
vt 0.708333 0.350000
vt 0.729167 0.350000
vt 0.750000 0.350000
vt 0.770833 0.350000
vt 0.791667 0.350000
vt 0.812500 0.350000
vt 0.833333 0.350000
vt 0.854167 0.350000
vt 0.875000 0.350000
vt 0.895833 0.350000
vt 0.916667 0.350000
vt 0.937500 0.350000
vt 0.958333 0.350000
vt 0.979167 0.350000
vt 1.000000 0.350000
vt 0.000000 0.400000
vt 0.020833 0.400000
vt 0.041667 0.400000
vt 0.062500 0.400000
vt 0.083333 0.400000
vt 0.104167 0.400000
vt 0.125000 0.400000
vt 0.145833 0.400000
vt 0.166667 0.400000
vt 0.187500 0.400000
vt 0.208333 0.400000
vt 0.229167 0.400000
vt 0.250000 0.400000
vt 0.270833 0.400000
vt 0.291667 0.400000
vt 0.312500 0.400000
vt 0.333333 0.400000
vt 0.354167 0.400000
vt 0.375000 0.400000
vt 0.395833 0.400000
vt 0.416667 0.400000
vt 0.437500 0.400000
vt 0.458333 0.400000
vt 0.479167 0.400000
vt 0.500000 0.400000
vt 0.520833 0.400000
vt 0.541667 0.400000
vt 0.562500 0.400000
vt 0.583333 0.400000
vt 0.604167 0.400000
vt 0.625000 0.400000
vt 0.645833 0.400000
vt 0.666667 0.400000
vt 0.687500 0.400000
vt 0.708333 0.400000
vt 0.729167 0.400000
vt 0.750000 0.400000
vt 0.770833 0.400000
vt 0.791667 0.400000
vt 0.812500 0.400000
vt 0.833333 0.400000
vt 0.854167 0.400000
vt 0.875000 0.400000
vt 0.895833 0.400000
vt 0.916667 0.400000
vt 0.937500 0.400000
vt 0.958333 0.400000
vt 0.979167 0.400000
vt 1.000000 0.400000
vt 0.000000 0.450000
vt 0.020833 0.450000
vt 0.041667 0.450000
vt 0.062500 0.450000
vt 0.083333 0.450000
vt 0.104167 0.450000
vt 0.125000 0.450000
vt 0.145833 0.450000
vt 0.166667 0.450000
vt 0.187500 0.450000
vt 0.208333 0.450000
vt 0.229167 0.450000
vt 0.250000 0.450000
vt 0.270833 0.450000
vt 0.291667 0.450000
vt 0.312500 0.450000
vt 0.333333 0.450000
vt 0.354167 0.450000
vt 0.375000 0.450000
vt 0.395833 0.450000
vt 0.416667 0.450000
vt 0.437500 0.450000
vt 0.458333 0.450000
vt 0.479167 0.450000
vt 0.500000 0.450000
vt 0.520833 0.450000
vt 0.541667 0.450000
vt 0.562500 0.450000
vt 0.583333 0.450000
vt 0.604167 0.450000
vt 0.625000 0.450000
vt 0.645833 0.450000
vt 0.666667 0.450000
vt 0.687500 0.450000
vt 0.708333 0.450000
vt 0.729167 0.450000
vt 0.750000 0.450000
vt 0.770833 0.450000
vt 0.791667 0.450000
vt 0.812500 0.450000
vt 0.833333 0.450000
vt 0.854167 0.450000
vt 0.875000 0.450000
vt 0.895833 0.450000
vt 0.916667 0.450000
vt 0.937500 0.450000
vt 0.958333 0.450000
vt 0.979167 0.450000
vt 1.000000 0.450000
vt 0.000000 0.500000
vt 0.020833 0.500000
vt 0.041667 0.500000
vt 0.062500 0.500000
vt 0.083333 0.500000
vt 0.104167 0.500000
vt 0.125000 0.500000
vt 0.145833 0.500000
vt 0.166667 0.500000
vt 0.187500 0.500000
vt 0.208333 0.500000
vt 0.229167 0.500000
vt 0.250000 0.500000
vt 0.270833 0.500000
vt 0.291667 0.500000
vt 0.312500 0.500000
vt 0.333333 0.500000
vt 0.354167 0.500000
vt 0.375000 0.500000
vt 0.395833 0.500000
vt 0.416667 0.500000
vt 0.437500 0.500000
vt 0.458333 0.500000
vt 0.479167 0.500000
vt 0.500000 0.500000
vt 0.520833 0.500000
vt 0.541667 0.500000
vt 0.562500 0.500000
vt 0.583333 0.500000
vt 0.604167 0.500000
vt 0.625000 0.500000
vt 0.645833 0.500000
vt 0.666667 0.500000
vt 0.687500 0.500000
vt 0.708333 0.500000
vt 0.729167 0.500000
vt 0.750000 0.500000
vt 0.770833 0.500000
vt 0.791667 0.500000
vt 0.812500 0.500000
vt 0.833333 0.500000
vt 0.854167 0.500000
vt 0.875000 0.500000
vt 0.895833 0.500000
vt 0.916667 0.500000
vt 0.937500 0.500000
vt 0.958333 0.500000
vt 0.979167 0.500000
vt 1.000000 0.500000
vt 0.000000 0.550000
vt 0.020833 0.550000
vt 0.041667 0.550000
vt 0.062500 0.550000
vt 0.083333 0.550000
vt 0.104167 0.550000
vt 0.125000 0.550000
vt 0.145833 0.550000
vt 0.166667 0.550000
vt 0.187500 0.550000
vt 0.208333 0.550000
vt 0.229167 0.550000
vt 0.250000 0.550000
vt 0.270833 0.550000
vt 0.291667 0.550000
vt 0.312500 0.550000
vt 0.333333 0.550000
vt 0.354167 0.550000
vt 0.375000 0.550000
vt 0.395833 0.550000
vt 0.416667 0.550000
vt 0.437500 0.550000
vt 0.458333 0.550000
vt 0.479167 0.550000
vt 0.500000 0.550000
vt 0.520833 0.550000
vt 0.541667 0.550000
vt 0.562500 0.550000
vt 0.583333 0.550000
vt 0.604167 0.550000
vt 0.625000 0.550000
vt 0.645833 0.550000
vt 0.666667 0.550000
vt 0.687500 0.550000
vt 0.708333 0.550000
vt 0.729167 0.550000
vt 0.750000 0.550000
vt 0.770833 0.550000
vt 0.791667 0.550000
vt 0.812500 0.550000
vt 0.833333 0.550000
vt 0.854167 0.550000
vt 0.875000 0.550000
vt 0.895833 0.550000
vt 0.916667 0.550000
vt 0.937500 0.550000
vt 0.958333 0.550000
vt 0.979167 0.550000
vt 1.000000 0.550000
vt 0.000000 0.600000
vt 0.020833 0.600000
vt 0.041667 0.600000
vt 0.062500 0.600000
vt 0.083333 0.600000
vt 0.104167 0.600000
vt 0.125000 0.600000
vt 0.145833 0.600000
vt 0.166667 0.600000
vt 0.187500 0.600000
vt 0.208333 0.600000
vt 0.229167 0.600000
vt 0.250000 0.600000
vt 0.270833 0.600000
vt 0.291667 0.600000
vt 0.312500 0.600000
vt 0.333333 0.600000
vt 0.354167 0.600000
vt 0.375000 0.600000
vt 0.395833 0.600000
vt 0.416667 0.600000
vt 0.437500 0.600000
vt 0.458333 0.600000
vt 0.479167 0.600000
vt 0.500000 0.600000
vt 0.520833 0.600000
vt 0.541667 0.600000
vt 0.562500 0.600000
vt 0.583333 0.600000
vt 0.604167 0.600000
vt 0.625000 0.600000
vt 0.645833 0.600000
vt 0.666667 0.600000
vt 0.687500 0.600000
vt 0.708333 0.600000
vt 0.729167 0.600000
vt 0.750000 0.600000
vt 0.770833 0.600000
vt 0.791667 0.600000
vt 0.812500 0.600000
vt 0.833333 0.600000
vt 0.854167 0.600000
vt 0.875000 0.600000
vt 0.895833 0.600000
vt 0.916667 0.600000
vt 0.937500 0.600000
vt 0.958333 0.600000
vt 0.979167 0.600000
vt 1.000000 0.600000
vt 0.000000 0.650000
vt 0.020833 0.650000
vt 0.041667 0.650000
vt 0.062500 0.650000
vt 0.083333 0.650000
vt 0.104167 0.650000
vt 0.125000 0.650000
vt 0.145833 0.650000
vt 0.166667 0.650000
vt 0.187500 0.650000
vt 0.208333 0.650000
vt 0.229167 0.650000
vt 0.250000 0.650000
vt 0.270833 0.650000
vt 0.291667 0.650000
vt 0.312500 0.650000
vt 0.333333 0.650000
vt 0.354167 0.650000
vt 0.375000 0.650000
vt 0.395833 0.650000
vt 0.416667 0.650000
vt 0.437500 0.650000
vt 0.458333 0.650000
vt 0.479167 0.650000
vt 0.500000 0.650000
vt 0.520833 0.650000
vt 0.541667 0.650000
vt 0.562500 0.650000
vt 0.583333 0.650000
vt 0.604167 0.650000
vt 0.625000 0.650000
vt 0.645833 0.650000
vt 0.666667 0.650000
vt 0.687500 0.650000
vt 0.708333 0.650000
vt 0.729167 0.650000
vt 0.750000 0.650000
vt 0.770833 0.650000
vt 0.791667 0.650000
vt 0.812500 0.650000
vt 0.833333 0.650000
vt 0.854167 0.650000
vt 0.875000 0.650000
vt 0.895833 0.650000
vt 0.916667 0.650000
vt 0.937500 0.650000
vt 0.958333 0.650000
vt 0.979167 0.650000
vt 1.000000 0.650000
vt 0.000000 0.700000
vt 0.020833 0.700000
vt 0.041667 0.700000
vt 0.062500 0.700000
vt 0.083333 0.700000
vt 0.104167 0.700000
vt 0.125000 0.700000
vt 0.145833 0.700000
vt 0.166667 0.700000
vt 0.187500 0.700000
vt 0.208333 0.700000
vt 0.229167 0.700000
vt 0.250000 0.700000
vt 0.270833 0.700000
vt 0.291667 0.700000
vt 0.312500 0.700000
vt 0.333333 0.700000
vt 0.354167 0.700000
vt 0.375000 0.700000
vt 0.395833 0.700000
vt 0.416667 0.700000
vt 0.437500 0.700000
vt 0.458333 0.700000
vt 0.479167 0.700000
vt 0.500000 0.700000
vt 0.520833 0.700000
vt 0.541667 0.700000
vt 0.562500 0.700000
vt 0.583333 0.700000
vt 0.604167 0.700000
vt 0.625000 0.700000
vt 0.645833 0.700000
vt 0.666667 0.700000
vt 0.687500 0.700000
vt 0.708333 0.700000
vt 0.729167 0.700000
vt 0.750000 0.700000
vt 0.770833 0.700000
vt 0.791667 0.700000
vt 0.812500 0.700000
vt 0.833333 0.700000
vt 0.854167 0.700000
vt 0.875000 0.700000
vt 0.895833 0.700000
vt 0.916667 0.700000
vt 0.937500 0.700000
vt 0.958333 0.700000
vt 0.979167 0.700000
vt 1.000000 0.700000
vt 0.000000 0.750000
vt 0.020833 0.750000
vt 0.041667 0.750000
vt 0.062500 0.750000
vt 0.083333 0.750000
vt 0.104167 0.750000
vt 0.125000 0.750000
vt 0.145833 0.750000
vt 0.166667 0.750000
vt 0.187500 0.750000
vt 0.208333 0.750000
vt 0.229167 0.750000
vt 0.250000 0.750000
vt 0.270833 0.750000
vt 0.291667 0.750000
vt 0.312500 0.750000
vt 0.333333 0.750000
vt 0.354167 0.750000
vt 0.375000 0.750000
vt 0.395833 0.750000
vt 0.416667 0.750000
vt 0.437500 0.750000
vt 0.458333 0.750000
vt 0.479167 0.750000
vt 0.500000 0.750000
vt 0.520833 0.750000
vt 0.541667 0.750000
vt 0.562500 0.750000
vt 0.583333 0.750000
vt 0.604167 0.750000
vt 0.625000 0.750000
vt 0.645833 0.750000
vt 0.666667 0.750000
vt 0.687500 0.750000
vt 0.708333 0.750000
vt 0.729167 0.750000
vt 0.750000 0.750000
vt 0.770833 0.750000
vt 0.791667 0.750000
vt 0.812500 0.750000
vt 0.833333 0.750000
vt 0.854167 0.750000
vt 0.875000 0.750000
vt 0.895833 0.750000
vt 0.916667 0.750000
vt 0.937500 0.750000
vt 0.958333 0.750000
vt 0.979167 0.750000
vt 1.000000 0.750000
vt 0.000000 0.800000
vt 0.020833 0.800000
vt 0.041667 0.800000
vt 0.062500 0.800000
vt 0.083333 0.800000
vt 0.104167 0.800000
vt 0.125000 0.800000
vt 0.145833 0.800000
vt 0.166667 0.800000
vt 0.187500 0.800000
vt 0.208333 0.800000
vt 0.229167 0.800000
vt 0.250000 0.800000
vt 0.270833 0.800000
vt 0.291667 0.800000
vt 0.312500 0.800000
vt 0.333333 0.800000
vt 0.354167 0.800000
vt 0.375000 0.800000
vt 0.395833 0.800000
vt 0.416667 0.800000
vt 0.437500 0.800000
vt 0.458333 0.800000
vt 0.479167 0.800000
vt 0.500000 0.800000
vt 0.520833 0.800000
vt 0.541667 0.800000
vt 0.562500 0.800000
vt 0.583333 0.800000
vt 0.604167 0.800000
vt 0.625000 0.800000
vt 0.645833 0.800000
vt 0.666667 0.800000
vt 0.687500 0.800000
vt 0.708333 0.800000
vt 0.729167 0.800000
vt 0.750000 0.800000
vt 0.770833 0.800000
vt 0.791667 0.800000
vt 0.812500 0.800000
vt 0.833333 0.800000
vt 0.854167 0.800000
vt 0.875000 0.800000
vt 0.895833 0.800000
vt 0.916667 0.800000
vt 0.937500 0.800000
vt 0.958333 0.800000
vt 0.979167 0.800000
vt 1.000000 0.800000
vt 0.000000 0.850000
vt 0.020833 0.850000
vt 0.041667 0.850000
vt 0.062500 0.850000
vt 0.083333 0.850000
vt 0.104167 0.850000
vt 0.125000 0.850000
vt 0.145833 0.850000
vt 0.166667 0.850000
vt 0.187500 0.850000
vt 0.208333 0.850000
vt 0.229167 0.850000
vt 0.250000 0.850000
vt 0.270833 0.850000
vt 0.291667 0.850000
vt 0.312500 0.850000
vt 0.333333 0.850000
vt 0.354167 0.850000
vt 0.375000 0.850000
vt 0.395833 0.850000
vt 0.416667 0.850000
vt 0.437500 0.850000
vt 0.458333 0.850000
vt 0.479167 0.850000
vt 0.500000 0.850000
vt 0.520833 0.850000
vt 0.541667 0.850000
vt 0.562500 0.850000
vt 0.583333 0.850000
vt 0.604167 0.850000
vt 0.625000 0.850000
vt 0.645833 0.850000
vt 0.666667 0.850000
vt 0.687500 0.850000
vt 0.708333 0.850000
vt 0.729167 0.850000
vt 0.750000 0.850000
vt 0.770833 0.850000
vt 0.791667 0.850000
vt 0.812500 0.850000
vt 0.833333 0.850000
vt 0.854167 0.850000
vt 0.875000 0.850000
vt 0.895833 0.850000
vt 0.916667 0.850000
vt 0.937500 0.850000
vt 0.958333 0.850000
vt 0.979167 0.850000
vt 1.000000 0.850000
vt 0.000000 0.900000
vt 0.020833 0.900000
vt 0.041667 0.900000
vt 0.062500 0.900000
vt 0.083333 0.900000
vt 0.104167 0.900000
vt 0.125000 0.900000
vt 0.145833 0.900000
vt 0.166667 0.900000
vt 0.187500 0.900000
vt 0.208333 0.900000
vt 0.229167 0.900000
vt 0.250000 0.900000
vt 0.270833 0.900000
vt 0.291667 0.900000
vt 0.312500 0.900000
vt 0.333333 0.900000
vt 0.354167 0.900000
vt 0.375000 0.900000
vt 0.395833 0.900000
vt 0.416667 0.900000
vt 0.437500 0.900000
vt 0.458333 0.900000
vt 0.479167 0.900000
vt 0.500000 0.900000
vt 0.520833 0.900000
vt 0.541667 0.900000
vt 0.562500 0.900000
vt 0.583333 0.900000
vt 0.604167 0.900000
vt 0.625000 0.900000
vt 0.645833 0.900000
vt 0.666667 0.900000
vt 0.687500 0.900000
vt 0.708333 0.900000
vt 0.729167 0.900000
vt 0.750000 0.900000
vt 0.770833 0.900000
vt 0.791667 0.900000
vt 0.812500 0.900000
vt 0.833333 0.900000
vt 0.854167 0.900000
vt 0.875000 0.900000
vt 0.895833 0.900000
vt 0.916667 0.900000
vt 0.937500 0.900000
vt 0.958333 0.900000
vt 0.979167 0.900000
vt 1.000000 0.900000
vt 0.000000 0.950000
vt 0.020833 0.950000
vt 0.041667 0.950000
vt 0.062500 0.950000
vt 0.083333 0.950000
vt 0.104167 0.950000
vt 0.125000 0.950000
vt 0.145833 0.950000
vt 0.166667 0.950000
vt 0.187500 0.950000
vt 0.208333 0.950000
vt 0.229167 0.950000
vt 0.250000 0.950000
vt 0.270833 0.950000
vt 0.291667 0.950000
vt 0.312500 0.950000
vt 0.333333 0.950000
vt 0.354167 0.950000
vt 0.375000 0.950000
vt 0.395833 0.950000
vt 0.416667 0.950000
vt 0.437500 0.950000
vt 0.458333 0.950000
vt 0.479167 0.950000
vt 0.500000 0.950000
vt 0.520833 0.950000
vt 0.541667 0.950000
vt 0.562500 0.950000
vt 0.583333 0.950000
vt 0.604167 0.950000
vt 0.625000 0.950000
vt 0.645833 0.950000
vt 0.666667 0.950000
vt 0.687500 0.950000
vt 0.708333 0.950000
vt 0.729167 0.950000
vt 0.750000 0.950000
vt 0.770833 0.950000
vt 0.791667 0.950000
vt 0.812500 0.950000
vt 0.833333 0.950000
vt 0.854167 0.950000
vt 0.875000 0.950000
vt 0.895833 0.950000
vt 0.916667 0.950000
vt 0.937500 0.950000
vt 0.958333 0.950000
vt 0.979167 0.950000
vt 1.000000 0.950000
vt 0.000000 1.000000
vt 0.020833 1.000000
vt 0.041667 1.000000
vt 0.062500 1.000000
vt 0.083333 1.000000
vt 0.104167 1.000000
vt 0.125000 1.000000
vt 0.145833 1.000000
vt 0.166667 1.000000
vt 0.187500 1.000000
vt 0.208333 1.000000
vt 0.229167 1.000000
vt 0.250000 1.000000
vt 0.270833 1.000000
vt 0.291667 1.000000
vt 0.312500 1.000000
vt 0.333333 1.000000
vt 0.354167 1.000000
vt 0.375000 1.000000
vt 0.395833 1.000000
vt 0.416667 1.000000
vt 0.437500 1.000000
vt 0.458333 1.000000
vt 0.479167 1.000000
vt 0.500000 1.000000
vt 0.520833 1.000000
vt 0.541667 1.000000
vt 0.562500 1.000000
vt 0.583333 1.000000
vt 0.604167 1.000000
vt 0.625000 1.000000
vt 0.645833 1.000000
vt 0.666667 1.000000
vt 0.687500 1.000000
vt 0.708333 1.000000
vt 0.729167 1.000000
vt 0.750000 1.000000
vt 0.770833 1.000000
vt 0.791667 1.000000
vt 0.812500 1.000000
vt 0.833333 1.000000
vt 0.854167 1.000000
vt 0.875000 1.000000
vt 0.895833 1.000000
vt 0.916667 1.000000
vt 0.937500 1.000000
vt 0.958333 1.000000
vt 0.979167 1.000000
vt 1.000000 1.000000
usemtl weather_phase_core
s off
f 1/1 51/51 50/50
f 2/2 52/52 51/51
f 3/3 53/53 52/52
f 4/4 54/54 53/53
f 5/5 55/55 54/54
f 6/6 56/56 55/55
f 7/7 57/57 56/56
f 8/8 58/58 57/57
f 9/9 59/59 58/58
f 10/10 60/60 59/59
f 11/11 61/61 60/60
f 12/12 62/62 61/61
f 13/13 63/63 62/62
f 14/14 64/64 63/63
f 15/15 65/65 64/64
f 16/16 66/66 65/65
f 17/17 67/67 66/66
f 18/18 68/68 67/67
f 19/19 69/69 68/68
f 20/20 70/70 69/69
f 21/21 71/71 70/70
f 22/22 72/72 71/71
f 23/23 73/73 72/72
f 24/24 74/74 73/73
f 25/25 75/75 74/74
f 26/26 76/76 75/75
f 27/27 77/77 76/76
f 28/28 78/78 77/77
f 29/29 79/79 78/78
f 30/30 80/80 79/79
f 31/31 81/81 80/80
f 32/32 82/82 81/81
f 33/33 83/83 82/82
f 34/34 84/84 83/83
f 35/35 85/85 84/84
f 36/36 86/86 85/85
f 37/37 87/87 86/86
f 38/38 88/88 87/87
f 39/39 89/89 88/88
f 40/40 90/90 89/89
f 41/41 91/91 90/90
f 42/42 92/92 91/91
f 43/43 93/93 92/92
f 44/44 94/94 93/93
f 45/45 95/95 94/94
f 46/46 96/96 95/95
f 47/47 97/97 96/96
f 48/48 98/98 97/97
f 50/50 51/51 100/100
f 50/50 100/100 99/99
f 51/51 52/52 101/101
f 51/51 101/101 100/100
f 52/52 53/53 102/102
f 52/52 102/102 101/101
f 53/53 54/54 103/103
f 53/53 103/103 102/102
f 54/54 55/55 104/104
f 54/54 104/104 103/103
f 55/55 56/56 105/105
f 55/55 105/105 104/104
f 56/56 57/57 106/106
f 56/56 106/106 105/105
f 57/57 58/58 107/107
f 57/57 107/107 106/106
f 58/58 59/59 108/108
f 58/58 108/108 107/107
f 59/59 60/60 109/109
f 59/59 109/109 108/108
f 60/60 61/61 110/110
f 60/60 110/110 109/109
f 61/61 62/62 111/111
f 61/61 111/111 110/110
f 62/62 63/63 112/112
f 62/62 112/112 111/111
f 63/63 64/64 113/113
f 63/63 113/113 112/112
f 64/64 65/65 114/114
f 64/64 114/114 113/113
f 65/65 66/66 115/115
f 65/65 115/115 114/114
f 66/66 67/67 116/116
f 66/66 116/116 115/115
f 67/67 68/68 117/117
f 67/67 117/117 116/116
f 68/68 69/69 118/118
f 68/68 118/118 117/117
f 69/69 70/70 119/119
f 69/69 119/119 118/118
f 70/70 71/71 120/120
f 70/70 120/120 119/119
f 71/71 72/72 121/121
f 71/71 121/121 120/120
f 72/72 73/73 122/122
f 72/72 122/122 121/121
f 73/73 74/74 123/123
f 73/73 123/123 122/122
f 74/74 75/75 124/124
f 74/74 124/124 123/123
f 75/75 76/76 125/125
f 75/75 125/125 124/124
f 76/76 77/77 126/126
f 76/76 126/126 125/125
f 77/77 78/78 127/127
f 77/77 127/127 126/126
f 78/78 79/79 128/128
f 78/78 128/128 127/127
f 79/79 80/80 129/129
f 79/79 129/129 128/128
f 80/80 81/81 130/130
f 80/80 130/130 129/129
f 81/81 82/82 131/131
f 81/81 131/131 130/130
f 82/82 83/83 132/132
f 82/82 132/132 131/131
f 83/83 84/84 133/133
f 83/83 133/133 132/132
f 84/84 85/85 134/134
f 84/84 134/134 133/133
f 85/85 86/86 135/135
f 85/85 135/135 134/134
f 86/86 87/87 136/136
f 86/86 136/136 135/135
f 87/87 88/88 137/137
f 87/87 137/137 136/136
f 88/88 89/89 138/138
f 88/88 138/138 137/137
f 89/89 90/90 139/139
f 89/89 139/139 138/138
f 90/90 91/91 140/140
f 90/90 140/140 139/139
f 91/91 92/92 141/141
f 91/91 141/141 140/140
f 92/92 93/93 142/142
f 92/92 142/142 141/141
f 93/93 94/94 143/143
f 93/93 143/143 142/142
f 94/94 95/95 144/144
f 94/94 144/144 143/143
f 95/95 96/96 145/145
f 95/95 145/145 144/144
f 96/96 97/97 146/146
f 96/96 146/146 145/145
f 97/97 98/98 147/147
f 97/97 147/147 146/146
f 99/99 100/100 149/149
f 99/99 149/149 148/148
f 100/100 101/101 150/150
f 100/100 150/150 149/149
f 101/101 102/102 151/151
f 101/101 151/151 150/150
f 102/102 103/103 152/152
f 102/102 152/152 151/151
f 103/103 104/104 153/153
f 103/103 153/153 152/152
f 104/104 105/105 154/154
f 104/104 154/154 153/153
f 105/105 106/106 155/155
f 105/105 155/155 154/154
f 106/106 107/107 156/156
f 106/106 156/156 155/155
f 107/107 108/108 157/157
f 107/107 157/157 156/156
f 108/108 109/109 158/158
f 108/108 158/158 157/157
f 109/109 110/110 159/159
f 109/109 159/159 158/158
f 110/110 111/111 160/160
f 110/110 160/160 159/159
f 111/111 112/112 161/161
f 111/111 161/161 160/160
f 112/112 113/113 162/162
f 112/112 162/162 161/161
f 113/113 114/114 163/163
f 113/113 163/163 162/162
f 114/114 115/115 164/164
f 114/114 164/164 163/163
f 115/115 116/116 165/165
f 115/115 165/165 164/164
f 116/116 117/117 166/166
f 116/116 166/166 165/165
f 117/117 118/118 167/167
f 117/117 167/167 166/166
f 118/118 119/119 168/168
f 118/118 168/168 167/167
f 119/119 120/120 169/169
f 119/119 169/169 168/168
f 120/120 121/121 170/170
f 120/120 170/170 169/169
f 121/121 122/122 171/171
f 121/121 171/171 170/170
f 122/122 123/123 172/172
f 122/122 172/172 171/171
f 123/123 124/124 173/173
f 123/123 173/173 172/172
f 124/124 125/125 174/174
f 124/124 174/174 173/173
f 125/125 126/126 175/175
f 125/125 175/175 174/174
f 126/126 127/127 176/176
f 126/126 176/176 175/175
f 127/127 128/128 177/177
f 127/127 177/177 176/176
f 128/128 129/129 178/178
f 128/128 178/178 177/177
f 129/129 130/130 179/179
f 129/129 179/179 178/178
f 130/130 131/131 180/180
f 130/130 180/180 179/179
f 131/131 132/132 181/181
f 131/131 181/181 180/180
f 132/132 133/133 182/182
f 132/132 182/182 181/181
f 133/133 134/134 183/183
f 133/133 183/183 182/182
f 134/134 135/135 184/184
f 134/134 184/184 183/183
f 135/135 136/136 185/185
f 135/135 185/185 184/184
f 136/136 137/137 186/186
f 136/136 186/186 185/185
f 137/137 138/138 187/187
f 137/137 187/187 186/186
f 138/138 139/139 188/188
f 138/138 188/188 187/187
f 139/139 140/140 189/189
f 139/139 189/189 188/188
f 140/140 141/141 190/190
f 140/140 190/190 189/189
f 141/141 142/142 191/191
f 141/141 191/191 190/190
f 142/142 143/143 192/192
f 142/142 192/192 191/191
f 143/143 144/144 193/193
f 143/143 193/193 192/192
f 144/144 145/145 194/194
f 144/144 194/194 193/193
f 145/145 146/146 195/195
f 145/145 195/195 194/194
f 146/146 147/147 196/196
f 146/146 196/196 195/195
f 148/148 149/149 198/198
f 148/148 198/198 197/197
f 149/149 150/150 199/199
f 149/149 199/199 198/198
f 150/150 151/151 200/200
f 150/150 200/200 199/199
f 151/151 152/152 201/201
f 151/151 201/201 200/200
f 152/152 153/153 202/202
f 152/152 202/202 201/201
f 153/153 154/154 203/203
f 153/153 203/203 202/202
f 154/154 155/155 204/204
f 154/154 204/204 203/203
f 155/155 156/156 205/205
f 155/155 205/205 204/204
f 156/156 157/157 206/206
f 156/156 206/206 205/205
f 157/157 158/158 207/207
f 157/157 207/207 206/206
f 158/158 159/159 208/208
f 158/158 208/208 207/207
f 159/159 160/160 209/209
f 159/159 209/209 208/208
f 160/160 161/161 210/210
f 160/160 210/210 209/209
f 161/161 162/162 211/211
f 161/161 211/211 210/210
f 162/162 163/163 212/212
f 162/162 212/212 211/211
f 163/163 164/164 213/213
f 163/163 213/213 212/212
f 164/164 165/165 214/214
f 164/164 214/214 213/213
f 165/165 166/166 215/215
f 165/165 215/215 214/214
f 166/166 167/167 216/216
f 166/166 216/216 215/215
f 167/167 168/168 217/217
f 167/167 217/217 216/216
f 168/168 169/169 218/218
f 168/168 218/218 217/217
f 169/169 170/170 219/219
f 169/169 219/219 218/218
f 170/170 171/171 220/220
f 170/170 220/220 219/219
f 171/171 172/172 221/221
f 171/171 221/221 220/220
f 172/172 173/173 222/222
f 172/172 222/222 221/221
f 173/173 174/174 223/223
f 173/173 223/223 222/222
f 174/174 175/175 224/224
f 174/174 224/224 223/223
f 175/175 176/176 225/225
f 175/175 225/225 224/224
f 176/176 177/177 226/226
f 176/176 226/226 225/225
f 177/177 178/178 227/227
f 177/177 227/227 226/226
f 178/178 179/179 228/228
f 178/178 228/228 227/227
f 179/179 180/180 229/229
f 179/179 229/229 228/228
f 180/180 181/181 230/230
f 180/180 230/230 229/229
f 181/181 182/182 231/231
f 181/181 231/231 230/230
f 182/182 183/183 232/232
f 182/182 232/232 231/231
f 183/183 184/184 233/233
f 183/183 233/233 232/232
f 184/184 185/185 234/234
f 184/184 234/234 233/233
f 185/185 186/186 235/235
f 185/185 235/235 234/234
f 186/186 187/187 236/236
f 186/186 236/236 235/235
f 187/187 188/188 237/237
f 187/187 237/237 236/236
f 188/188 189/189 238/238
f 188/188 238/238 237/237
f 189/189 190/190 239/239
f 189/189 239/239 238/238
f 190/190 191/191 240/240
f 190/190 240/240 239/239
f 191/191 192/192 241/241
f 191/191 241/241 240/240
f 192/192 193/193 242/242
f 192/192 242/242 241/241
f 193/193 194/194 243/243
f 193/193 243/243 242/242
f 194/194 195/195 244/244
f 194/194 244/244 243/243
f 195/195 196/196 245/245
f 195/195 245/245 244/244
f 197/197 198/198 247/247
f 197/197 247/247 246/246
f 198/198 199/199 248/248
f 198/198 248/248 247/247
f 199/199 200/200 249/249
f 199/199 249/249 248/248
f 200/200 201/201 250/250
f 200/200 250/250 249/249
f 201/201 202/202 251/251
f 201/201 251/251 250/250
f 202/202 203/203 252/252
f 202/202 252/252 251/251
f 203/203 204/204 253/253
f 203/203 253/253 252/252
f 204/204 205/205 254/254
f 204/204 254/254 253/253
f 205/205 206/206 255/255
f 205/205 255/255 254/254
f 206/206 207/207 256/256
f 206/206 256/256 255/255
f 207/207 208/208 257/257
f 207/207 257/257 256/256
f 208/208 209/209 258/258
f 208/208 258/258 257/257
f 209/209 210/210 259/259
f 209/209 259/259 258/258
f 210/210 211/211 260/260
f 210/210 260/260 259/259
f 211/211 212/212 261/261
f 211/211 261/261 260/260
f 212/212 213/213 262/262
f 212/212 262/262 261/261
f 213/213 214/214 263/263
f 213/213 263/263 262/262
f 214/214 215/215 264/264
f 214/214 264/264 263/263
f 215/215 216/216 265/265
f 215/215 265/265 264/264
f 216/216 217/217 266/266
f 216/216 266/266 265/265
f 217/217 218/218 267/267
f 217/217 267/267 266/266
f 218/218 219/219 268/268
f 218/218 268/268 267/267
f 219/219 220/220 269/269
f 219/219 269/269 268/268
f 220/220 221/221 270/270
f 220/220 270/270 269/269
f 221/221 222/222 271/271
f 221/221 271/271 270/270
f 222/222 223/223 272/272
f 222/222 272/272 271/271
f 223/223 224/224 273/273
f 223/223 273/273 272/272
f 224/224 225/225 274/274
f 224/224 274/274 273/273
f 225/225 226/226 275/275
f 225/225 275/275 274/274
f 226/226 227/227 276/276
f 226/226 276/276 275/275
f 227/227 228/228 277/277
f 227/227 277/277 276/276
f 228/228 229/229 278/278
f 228/228 278/278 277/277
f 229/229 230/230 279/279
f 229/229 279/279 278/278
f 230/230 231/231 280/280
f 230/230 280/280 279/279
f 231/231 232/232 281/281
f 231/231 281/281 280/280
f 232/232 233/233 282/282
f 232/232 282/282 281/281
f 233/233 234/234 283/283
f 233/233 283/283 282/282
f 234/234 235/235 284/284
f 234/234 284/284 283/283
f 235/235 236/236 285/285
f 235/235 285/285 284/284
f 236/236 237/237 286/286
f 236/236 286/286 285/285
f 237/237 238/238 287/287
f 237/237 287/287 286/286
f 238/238 239/239 288/288
f 238/238 288/288 287/287
f 239/239 240/240 289/289
f 239/239 289/289 288/288
f 240/240 241/241 290/290
f 240/240 290/290 289/289
f 241/241 242/242 291/291
f 241/241 291/291 290/290
f 242/242 243/243 292/292
f 242/242 292/292 291/291
f 243/243 244/244 293/293
f 243/243 293/293 292/292
f 244/244 245/245 294/294
f 244/244 294/294 293/293
f 246/246 247/247 296/296
f 246/246 296/296 295/295
f 247/247 248/248 297/297
f 247/247 297/297 296/296
f 248/248 249/249 298/298
f 248/248 298/298 297/297
f 249/249 250/250 299/299
f 249/249 299/299 298/298
f 250/250 251/251 300/300
f 250/250 300/300 299/299
f 251/251 252/252 301/301
f 251/251 301/301 300/300
f 252/252 253/253 302/302
f 252/252 302/302 301/301
f 253/253 254/254 303/303
f 253/253 303/303 302/302
f 254/254 255/255 304/304
f 254/254 304/304 303/303
f 255/255 256/256 305/305
f 255/255 305/305 304/304
f 256/256 257/257 306/306
f 256/256 306/306 305/305
f 257/257 258/258 307/307
f 257/257 307/307 306/306
f 258/258 259/259 308/308
f 258/258 308/308 307/307
f 259/259 260/260 309/309
f 259/259 309/309 308/308
f 260/260 261/261 310/310
f 260/260 310/310 309/309
f 261/261 262/262 311/311
f 261/261 311/311 310/310
f 262/262 263/263 312/312
f 262/262 312/312 311/311
f 263/263 264/264 313/313
f 263/263 313/313 312/312
f 264/264 265/265 314/314
f 264/264 314/314 313/313
f 265/265 266/266 315/315
f 265/265 315/315 314/314
f 266/266 267/267 316/316
f 266/266 316/316 315/315
f 267/267 268/268 317/317
f 267/267 317/317 316/316
f 268/268 269/269 318/318
f 268/268 318/318 317/317
f 269/269 270/270 319/319
f 269/269 319/319 318/318
f 270/270 271/271 320/320
f 270/270 320/320 319/319
f 271/271 272/272 321/321
f 271/271 321/321 320/320
f 272/272 273/273 322/322
f 272/272 322/322 321/321
f 273/273 274/274 323/323
f 273/273 323/323 322/322
f 274/274 275/275 324/324
f 274/274 324/324 323/323
f 275/275 276/276 325/325
f 275/275 325/325 324/324
f 276/276 277/277 326/326
f 276/276 326/326 325/325
f 277/277 278/278 327/327
f 277/277 327/327 326/326
f 278/278 279/279 328/328
f 278/278 328/328 327/327
f 279/279 280/280 329/329
f 279/279 329/329 328/328
f 280/280 281/281 330/330
f 280/280 330/330 329/329
f 281/281 282/282 331/331
f 281/281 331/331 330/330
f 282/282 283/283 332/332
f 282/282 332/332 331/331
f 283/283 284/284 333/333
f 283/283 333/333 332/332
f 284/284 285/285 334/334
f 284/284 334/334 333/333
f 285/285 286/286 335/335
f 285/285 335/335 334/334
f 286/286 287/287 336/336
f 286/286 336/336 335/335
f 287/287 288/288 337/337
f 287/287 337/337 336/336
f 288/288 289/289 338/338
f 288/288 338/338 337/337
f 289/289 290/290 339/339
f 289/289 339/339 338/338
f 290/290 291/291 340/340
f 290/290 340/340 339/339
f 291/291 292/292 341/341
f 291/291 341/341 340/340
f 292/292 293/293 342/342
f 292/292 342/342 341/341
f 293/293 294/294 343/343
f 293/293 343/343 342/342
f 295/295 296/296 345/345
f 295/295 345/345 344/344
f 296/296 297/297 346/346
f 296/296 346/346 345/345
f 297/297 298/298 347/347
f 297/297 347/347 346/346
f 298/298 299/299 348/348
f 298/298 348/348 347/347
f 299/299 300/300 349/349
f 299/299 349/349 348/348
f 300/300 301/301 350/350
f 300/300 350/350 349/349
f 301/301 302/302 351/351
f 301/301 351/351 350/350
f 302/302 303/303 352/352
f 302/302 352/352 351/351
f 303/303 304/304 353/353
f 303/303 353/353 352/352
f 304/304 305/305 354/354
f 304/304 354/354 353/353
f 305/305 306/306 355/355
f 305/305 355/355 354/354
f 306/306 307/307 356/356
f 306/306 356/356 355/355
f 307/307 308/308 357/357
f 307/307 357/357 356/356
f 308/308 309/309 358/358
f 308/308 358/358 357/357
f 309/309 310/310 359/359
f 309/309 359/359 358/358
f 310/310 311/311 360/360
f 310/310 360/360 359/359
f 311/311 312/312 361/361
f 311/311 361/361 360/360
f 312/312 313/313 362/362
f 312/312 362/362 361/361
f 313/313 314/314 363/363
f 313/313 363/363 362/362
f 314/314 315/315 364/364
f 314/314 364/364 363/363
f 315/315 316/316 365/365
f 315/315 365/365 364/364
f 316/316 317/317 366/366
f 316/316 366/366 365/365
f 317/317 318/318 367/367
f 317/317 367/367 366/366
f 318/318 319/319 368/368
f 318/318 368/368 367/367
f 319/319 320/320 369/369
f 319/319 369/369 368/368
f 320/320 321/321 370/370
f 320/320 370/370 369/369
f 321/321 322/322 371/371
f 321/321 371/371 370/370
f 322/322 323/323 372/372
f 322/322 372/372 371/371
f 323/323 324/324 373/373
f 323/323 373/373 372/372
f 324/324 325/325 374/374
f 324/324 374/374 373/373
f 325/325 326/326 375/375
f 325/325 375/375 374/374
f 326/326 327/327 376/376
f 326/326 376/376 375/375
f 327/327 328/328 377/377
f 327/327 377/377 376/376
f 328/328 329/329 378/378
f 328/328 378/378 377/377
f 329/329 330/330 379/379
f 329/329 379/379 378/378
f 330/330 331/331 380/380
f 330/330 380/380 379/379
f 331/331 332/332 381/381
f 331/331 381/381 380/380
f 332/332 333/333 382/382
f 332/332 382/382 381/381
f 333/333 334/334 383/383
f 333/333 383/383 382/382
f 334/334 335/335 384/384
f 334/334 384/384 383/383
f 335/335 336/336 385/385
f 335/335 385/385 384/384
f 336/336 337/337 386/386
f 336/336 386/386 385/385
f 337/337 338/338 387/387
f 337/337 387/387 386/386
f 338/338 339/339 388/388
f 338/338 388/388 387/387
f 339/339 340/340 389/389
f 339/339 389/389 388/388
f 340/340 341/341 390/390
f 340/340 390/390 389/389
f 341/341 342/342 391/391
f 341/341 391/391 390/390
f 342/342 343/343 392/392
f 342/342 392/392 391/391
f 344/344 345/345 394/394
f 344/344 394/394 393/393
f 345/345 346/346 395/395
f 345/345 395/395 394/394
f 346/346 347/347 396/396
f 346/346 396/396 395/395
f 347/347 348/348 397/397
f 347/347 397/397 396/396
f 348/348 349/349 398/398
f 348/348 398/398 397/397
f 349/349 350/350 399/399
f 349/349 399/399 398/398
f 350/350 351/351 400/400
f 350/350 400/400 399/399
f 351/351 352/352 401/401
f 351/351 401/401 400/400
f 352/352 353/353 402/402
f 352/352 402/402 401/401
f 353/353 354/354 403/403
f 353/353 403/403 402/402
f 354/354 355/355 404/404
f 354/354 404/404 403/403
f 355/355 356/356 405/405
f 355/355 405/405 404/404
f 356/356 357/357 406/406
f 356/356 406/406 405/405
f 357/357 358/358 407/407
f 357/357 407/407 406/406
f 358/358 359/359 408/408
f 358/358 408/408 407/407
f 359/359 360/360 409/409
f 359/359 409/409 408/408
f 360/360 361/361 410/410
f 360/360 410/410 409/409
f 361/361 362/362 411/411
f 361/361 411/411 410/410
f 362/362 363/363 412/412
f 362/362 412/412 411/411
f 363/363 364/364 413/413
f 363/363 413/413 412/412
f 364/364 365/365 414/414
f 364/364 414/414 413/413
f 365/365 366/366 415/415
f 365/365 415/415 414/414
f 366/366 367/367 416/416
f 366/366 416/416 415/415
f 367/367 368/368 417/417
f 367/367 417/417 416/416
f 368/368 369/369 418/418
f 368/368 418/418 417/417
f 369/369 370/370 419/419
f 369/369 419/419 418/418
f 370/370 371/371 420/420
f 370/370 420/420 419/419
f 371/371 372/372 421/421
f 371/371 421/421 420/420
f 372/372 373/373 422/422
f 372/372 422/422 421/421
f 373/373 374/374 423/423
f 373/373 423/423 422/422
f 374/374 375/375 424/424
f 374/374 424/424 423/423
f 375/375 376/376 425/425
f 375/375 425/425 424/424
f 376/376 377/377 426/426
f 376/376 426/426 425/425
f 377/377 378/378 427/427
f 377/377 427/427 426/426
f 378/378 379/379 428/428
f 378/378 428/428 427/427
f 379/379 380/380 429/429
f 379/379 429/429 428/428
f 380/380 381/381 430/430
f 380/380 430/430 429/429
f 381/381 382/382 431/431
f 381/381 431/431 430/430
f 382/382 383/383 432/432
f 382/382 432/432 431/431
f 383/383 384/384 433/433
f 383/383 433/433 432/432
f 384/384 385/385 434/434
f 384/384 434/434 433/433
f 385/385 386/386 435/435
f 385/385 435/435 434/434
f 386/386 387/387 436/436
f 386/386 436/436 435/435
f 387/387 388/388 437/437
f 387/387 437/437 436/436
f 388/388 389/389 438/438
f 388/388 438/438 437/437
f 389/389 390/390 439/439
f 389/389 439/439 438/438
f 390/390 391/391 440/440
f 390/390 440/440 439/439
f 391/391 392/392 441/441
f 391/391 441/441 440/440
f 393/393 394/394 443/443
f 393/393 443/443 442/442
f 394/394 395/395 444/444
f 394/394 444/444 443/443
f 395/395 396/396 445/445
f 395/395 445/445 444/444
f 396/396 397/397 446/446
f 396/396 446/446 445/445
f 397/397 398/398 447/447
f 397/397 447/447 446/446
f 398/398 399/399 448/448
f 398/398 448/448 447/447
f 399/399 400/400 449/449
f 399/399 449/449 448/448
f 400/400 401/401 450/450
f 400/400 450/450 449/449
f 401/401 402/402 451/451
f 401/401 451/451 450/450
f 402/402 403/403 452/452
f 402/402 452/452 451/451
f 403/403 404/404 453/453
f 403/403 453/453 452/452
f 404/404 405/405 454/454
f 404/404 454/454 453/453
f 405/405 406/406 455/455
f 405/405 455/455 454/454
f 406/406 407/407 456/456
f 406/406 456/456 455/455
f 407/407 408/408 457/457
f 407/407 457/457 456/456
f 408/408 409/409 458/458
f 408/408 458/458 457/457
f 409/409 410/410 459/459
f 409/409 459/459 458/458
f 410/410 411/411 460/460
f 410/410 460/460 459/459
f 411/411 412/412 461/461
f 411/411 461/461 460/460
f 412/412 413/413 462/462
f 412/412 462/462 461/461
f 413/413 414/414 463/463
f 413/413 463/463 462/462
f 414/414 415/415 464/464
f 414/414 464/464 463/463
f 415/415 416/416 465/465
f 415/415 465/465 464/464
f 416/416 417/417 466/466
f 416/416 466/466 465/465
f 417/417 418/418 467/467
f 417/417 467/467 466/466
f 418/418 419/419 468/468
f 418/418 468/468 467/467
f 419/419 420/420 469/469
f 419/419 469/469 468/468
f 420/420 421/421 470/470
f 420/420 470/470 469/469
f 421/421 422/422 471/471
f 421/421 471/471 470/470
f 422/422 423/423 472/472
f 422/422 472/472 471/471
f 423/423 424/424 473/473
f 423/423 473/473 472/472
f 424/424 425/425 474/474
f 424/424 474/474 473/473
f 425/425 426/426 475/475
f 425/425 475/475 474/474
f 426/426 427/427 476/476
f 426/426 476/476 475/475
f 427/427 428/428 477/477
f 427/427 477/477 476/476
f 428/428 429/429 478/478
f 428/428 478/478 477/477
f 429/429 430/430 479/479
f 429/429 479/479 478/478
f 430/430 431/431 480/480
f 430/430 480/480 479/479
f 431/431 432/432 481/481
f 431/431 481/481 480/480
f 432/432 433/433 482/482
f 432/432 482/482 481/481
f 433/433 434/434 483/483
f 433/433 483/483 482/482
f 434/434 435/435 484/484
f 434/434 484/484 483/483
f 435/435 436/436 485/485
f 435/435 485/485 484/484
f 436/436 437/437 486/486
f 436/436 486/486 485/485
f 437/437 438/438 487/487
f 437/437 487/487 486/486
f 438/438 439/439 488/488
f 438/438 488/488 487/487
f 439/439 440/440 489/489
f 439/439 489/489 488/488
f 440/440 441/441 490/490
f 440/440 490/490 489/489
f 442/442 443/443 492/492
f 442/442 492/492 491/491
f 443/443 444/444 493/493
f 443/443 493/493 492/492
f 444/444 445/445 494/494
f 444/444 494/494 493/493
f 445/445 446/446 495/495
f 445/445 495/495 494/494
f 446/446 447/447 496/496
f 446/446 496/496 495/495
f 447/447 448/448 497/497
f 447/447 497/497 496/496
f 448/448 449/449 498/498
f 448/448 498/498 497/497
f 449/449 450/450 499/499
f 449/449 499/499 498/498
f 450/450 451/451 500/500
f 450/450 500/500 499/499
f 451/451 452/452 501/501
f 451/451 501/501 500/500
f 452/452 453/453 502/502
f 452/452 502/502 501/501
f 453/453 454/454 503/503
f 453/453 503/503 502/502
f 454/454 455/455 504/504
f 454/454 504/504 503/503
f 455/455 456/456 505/505
f 455/455 505/505 504/504
f 456/456 457/457 506/506
f 456/456 506/506 505/505
f 457/457 458/458 507/507
f 457/457 507/507 506/506
f 458/458 459/459 508/508
f 458/458 508/508 507/507
f 459/459 460/460 509/509
f 459/459 509/509 508/508
f 460/460 461/461 510/510
f 460/460 510/510 509/509
f 461/461 462/462 511/511
f 461/461 511/511 510/510
f 462/462 463/463 512/512
f 462/462 512/512 511/511
f 463/463 464/464 513/513
f 463/463 513/513 512/512
f 464/464 465/465 514/514
f 464/464 514/514 513/513
f 465/465 466/466 515/515
f 465/465 515/515 514/514
f 466/466 467/467 516/516
f 466/466 516/516 515/515
f 467/467 468/468 517/517
f 467/467 517/517 516/516
f 468/468 469/469 518/518
f 468/468 518/518 517/517
f 469/469 470/470 519/519
f 469/469 519/519 518/518
f 470/470 471/471 520/520
f 470/470 520/520 519/519
f 471/471 472/472 521/521
f 471/471 521/521 520/520
f 472/472 473/473 522/522
f 472/472 522/522 521/521
f 473/473 474/474 523/523
f 473/473 523/523 522/522
f 474/474 475/475 524/524
f 474/474 524/524 523/523
f 475/475 476/476 525/525
f 475/475 525/525 524/524
f 476/476 477/477 526/526
f 476/476 526/526 525/525
f 477/477 478/478 527/527
f 477/477 527/527 526/526
f 478/478 479/479 528/528
f 478/478 528/528 527/527
f 479/479 480/480 529/529
f 479/479 529/529 528/528
f 480/480 481/481 530/530
f 480/480 530/530 529/529
f 481/481 482/482 531/531
f 481/481 531/531 530/530
f 482/482 483/483 532/532
f 482/482 532/532 531/531
f 483/483 484/484 533/533
f 483/483 533/533 532/532
f 484/484 485/485 534/534
f 484/484 534/534 533/533
f 485/485 486/486 535/535
f 485/485 535/535 534/534
f 486/486 487/487 536/536
f 486/486 536/536 535/535
f 487/487 488/488 537/537
f 487/487 537/537 536/536
f 488/488 489/489 538/538
f 488/488 538/538 537/537
f 489/489 490/490 539/539
f 489/489 539/539 538/538
f 491/491 492/492 541/541
f 491/491 541/541 540/540
f 492/492 493/493 542/542
f 492/492 542/542 541/541
f 493/493 494/494 543/543
f 493/493 543/543 542/542
f 494/494 495/495 544/544
f 494/494 544/544 543/543
f 495/495 496/496 545/545
f 495/495 545/545 544/544
f 496/496 497/497 546/546
f 496/496 546/546 545/545
f 497/497 498/498 547/547
f 497/497 547/547 546/546
f 498/498 499/499 548/548
f 498/498 548/548 547/547
f 499/499 500/500 549/549
f 499/499 549/549 548/548
f 500/500 501/501 550/550
f 500/500 550/550 549/549
f 501/501 502/502 551/551
f 501/501 551/551 550/550
f 502/502 503/503 552/552
f 502/502 552/552 551/551
f 503/503 504/504 553/553
f 503/503 553/553 552/552
f 504/504 505/505 554/554
f 504/504 554/554 553/553
f 505/505 506/506 555/555
f 505/505 555/555 554/554
f 506/506 507/507 556/556
f 506/506 556/556 555/555
f 507/507 508/508 557/557
f 507/507 557/557 556/556
f 508/508 509/509 558/558
f 508/508 558/558 557/557
f 509/509 510/510 559/559
f 509/509 559/559 558/558
f 510/510 511/511 560/560
f 510/510 560/560 559/559
f 511/511 512/512 561/561
f 511/511 561/561 560/560
f 512/512 513/513 562/562
f 512/512 562/562 561/561
f 513/513 514/514 563/563
f 513/513 563/563 562/562
f 514/514 515/515 564/564
f 514/514 564/564 563/563
f 515/515 516/516 565/565
f 515/515 565/565 564/564
f 516/516 517/517 566/566
f 516/516 566/566 565/565
f 517/517 518/518 567/567
f 517/517 567/567 566/566
f 518/518 519/519 568/568
f 518/518 568/568 567/567
f 519/519 520/520 569/569
f 519/519 569/569 568/568
f 520/520 521/521 570/570
f 520/520 570/570 569/569
f 521/521 522/522 571/571
f 521/521 571/571 570/570
f 522/522 523/523 572/572
f 522/522 572/572 571/571
f 523/523 524/524 573/573
f 523/523 573/573 572/572
f 524/524 525/525 574/574
f 524/524 574/574 573/573
f 525/525 526/526 575/575
f 525/525 575/575 574/574
f 526/526 527/527 576/576
f 526/526 576/576 575/575
f 527/527 528/528 577/577
f 527/527 577/577 576/576
f 528/528 529/529 578/578
f 528/528 578/578 577/577
f 529/529 530/530 579/579
f 529/529 579/579 578/578
f 530/530 531/531 580/580
f 530/530 580/580 579/579
f 531/531 532/532 581/581
f 531/531 581/581 580/580
f 532/532 533/533 582/582
f 532/532 582/582 581/581
f 533/533 534/534 583/583
f 533/533 583/583 582/582
f 534/534 535/535 584/584
f 534/534 584/584 583/583
f 535/535 536/536 585/585
f 535/535 585/585 584/584
f 536/536 537/537 586/586
f 536/536 586/586 585/585
f 537/537 538/538 587/587
f 537/537 587/587 586/586
f 538/538 539/539 588/588
f 538/538 588/588 587/587
f 540/540 541/541 590/590
f 540/540 590/590 589/589
f 541/541 542/542 591/591
f 541/541 591/591 590/590
f 542/542 543/543 592/592
f 542/542 592/592 591/591
f 543/543 544/544 593/593
f 543/543 593/593 592/592
f 544/544 545/545 594/594
f 544/544 594/594 593/593
f 545/545 546/546 595/595
f 545/545 595/595 594/594
f 546/546 547/547 596/596
f 546/546 596/596 595/595
f 547/547 548/548 597/597
f 547/547 597/597 596/596
f 548/548 549/549 598/598
f 548/548 598/598 597/597
f 549/549 550/550 599/599
f 549/549 599/599 598/598
f 550/550 551/551 600/600
f 550/550 600/600 599/599
f 551/551 552/552 601/601
f 551/551 601/601 600/600
f 552/552 553/553 602/602
f 552/552 602/602 601/601
f 553/553 554/554 603/603
f 553/553 603/603 602/602
f 554/554 555/555 604/604
f 554/554 604/604 603/603
f 555/555 556/556 605/605
f 555/555 605/605 604/604
f 556/556 557/557 606/606
f 556/556 606/606 605/605
f 557/557 558/558 607/607
f 557/557 607/607 606/606
f 558/558 559/559 608/608
f 558/558 608/608 607/607
f 559/559 560/560 609/609
f 559/559 609/609 608/608
f 560/560 561/561 610/610
f 560/560 610/610 609/609
f 561/561 562/562 611/611
f 561/561 611/611 610/610
f 562/562 563/563 612/612
f 562/562 612/612 611/611
f 563/563 564/564 613/613
f 563/563 613/613 612/612
f 564/564 565/565 614/614
f 564/564 614/614 613/613
f 565/565 566/566 615/615
f 565/565 615/615 614/614
f 566/566 567/567 616/616
f 566/566 616/616 615/615
f 567/567 568/568 617/617
f 567/567 617/617 616/616
f 568/568 569/569 618/618
f 568/568 618/618 617/617
f 569/569 570/570 619/619
f 569/569 619/619 618/618
f 570/570 571/571 620/620
f 570/570 620/620 619/619
f 571/571 572/572 621/621
f 571/571 621/621 620/620
f 572/572 573/573 622/622
f 572/572 622/622 621/621
f 573/573 574/574 623/623
f 573/573 623/623 622/622
f 574/574 575/575 624/624
f 574/574 624/624 623/623
f 575/575 576/576 625/625
f 575/575 625/625 624/624
f 576/576 577/577 626/626
f 576/576 626/626 625/625
f 577/577 578/578 627/627
f 577/577 627/627 626/626
f 578/578 579/579 628/628
f 578/578 628/628 627/627
f 579/579 580/580 629/629
f 579/579 629/629 628/628
f 580/580 581/581 630/630
f 580/580 630/630 629/629
f 581/581 582/582 631/631
f 581/581 631/631 630/630
f 582/582 583/583 632/632
f 582/582 632/632 631/631
f 583/583 584/584 633/633
f 583/583 633/633 632/632
f 584/584 585/585 634/634
f 584/584 634/634 633/633
f 585/585 586/586 635/635
f 585/585 635/635 634/634
f 586/586 587/587 636/636
f 586/586 636/636 635/635
f 587/587 588/588 637/637
f 587/587 637/637 636/636
f 589/589 590/590 639/639
f 589/589 639/639 638/638
f 590/590 591/591 640/640
f 590/590 640/640 639/639
f 591/591 592/592 641/641
f 591/591 641/641 640/640
f 592/592 593/593 642/642
f 592/592 642/642 641/641
f 593/593 594/594 643/643
f 593/593 643/643 642/642
f 594/594 595/595 644/644
f 594/594 644/644 643/643
f 595/595 596/596 645/645
f 595/595 645/645 644/644
f 596/596 597/597 646/646
f 596/596 646/646 645/645
f 597/597 598/598 647/647
f 597/597 647/647 646/646
f 598/598 599/599 648/648
f 598/598 648/648 647/647
f 599/599 600/600 649/649
f 599/599 649/649 648/648
f 600/600 601/601 650/650
f 600/600 650/650 649/649
f 601/601 602/602 651/651
f 601/601 651/651 650/650
f 602/602 603/603 652/652
f 602/602 652/652 651/651
f 603/603 604/604 653/653
f 603/603 653/653 652/652
f 604/604 605/605 654/654
f 604/604 654/654 653/653
f 605/605 606/606 655/655
f 605/605 655/655 654/654
f 606/606 607/607 656/656
f 606/606 656/656 655/655
f 607/607 608/608 657/657
f 607/607 657/657 656/656
f 608/608 609/609 658/658
f 608/608 658/658 657/657
f 609/609 610/610 659/659
f 609/609 659/659 658/658
f 610/610 611/611 660/660
f 610/610 660/660 659/659
f 611/611 612/612 661/661
f 611/611 661/661 660/660
f 612/612 613/613 662/662
f 612/612 662/662 661/661
f 613/613 614/614 663/663
f 613/613 663/663 662/662
f 614/614 615/615 664/664
f 614/614 664/664 663/663
f 615/615 616/616 665/665
f 615/615 665/665 664/664
f 616/616 617/617 666/666
f 616/616 666/666 665/665
f 617/617 618/618 667/667
f 617/617 667/667 666/666
f 618/618 619/619 668/668
f 618/618 668/668 667/667
f 619/619 620/620 669/669
f 619/619 669/669 668/668
f 620/620 621/621 670/670
f 620/620 670/670 669/669
f 621/621 622/622 671/671
f 621/621 671/671 670/670
f 622/622 623/623 672/672
f 622/622 672/672 671/671
f 623/623 624/624 673/673
f 623/623 673/673 672/672
f 624/624 625/625 674/674
f 624/624 674/674 673/673
f 625/625 626/626 675/675
f 625/625 675/675 674/674
f 626/626 627/627 676/676
f 626/626 676/676 675/675
f 627/627 628/628 677/677
f 627/627 677/677 676/676
f 628/628 629/629 678/678
f 628/628 678/678 677/677
f 629/629 630/630 679/679
f 629/629 679/679 678/678
f 630/630 631/631 680/680
f 630/630 680/680 679/679
f 631/631 632/632 681/681
f 631/631 681/681 680/680
f 632/632 633/633 682/682
f 632/632 682/682 681/681
f 633/633 634/634 683/683
f 633/633 683/683 682/682
f 634/634 635/635 684/684
f 634/634 684/684 683/683
f 635/635 636/636 685/685
f 635/635 685/685 684/684
f 636/636 637/637 686/686
f 636/636 686/686 685/685
f 638/638 639/639 688/688
f 638/638 688/688 687/687
f 639/639 640/640 689/689
f 639/639 689/689 688/688
f 640/640 641/641 690/690
f 640/640 690/690 689/689
f 641/641 642/642 691/691
f 641/641 691/691 690/690
f 642/642 643/643 692/692
f 642/642 692/692 691/691
f 643/643 644/644 693/693
f 643/643 693/693 692/692
f 644/644 645/645 694/694
f 644/644 694/694 693/693
f 645/645 646/646 695/695
f 645/645 695/695 694/694
f 646/646 647/647 696/696
f 646/646 696/696 695/695
f 647/647 648/648 697/697
f 647/647 697/697 696/696
f 648/648 649/649 698/698
f 648/648 698/698 697/697
f 649/649 650/650 699/699
f 649/649 699/699 698/698
f 650/650 651/651 700/700
f 650/650 700/700 699/699
f 651/651 652/652 701/701
f 651/651 701/701 700/700
f 652/652 653/653 702/702
f 652/652 702/702 701/701
f 653/653 654/654 703/703
f 653/653 703/703 702/702
f 654/654 655/655 704/704
f 654/654 704/704 703/703
f 655/655 656/656 705/705
f 655/655 705/705 704/704
f 656/656 657/657 706/706
f 656/656 706/706 705/705
f 657/657 658/658 707/707
f 657/657 707/707 706/706
f 658/658 659/659 708/708
f 658/658 708/708 707/707
f 659/659 660/660 709/709
f 659/659 709/709 708/708
f 660/660 661/661 710/710
f 660/660 710/710 709/709
f 661/661 662/662 711/711
f 661/661 711/711 710/710
f 662/662 663/663 712/712
f 662/662 712/712 711/711
f 663/663 664/664 713/713
f 663/663 713/713 712/712
f 664/664 665/665 714/714
f 664/664 714/714 713/713
f 665/665 666/666 715/715
f 665/665 715/715 714/714
f 666/666 667/667 716/716
f 666/666 716/716 715/715
f 667/667 668/668 717/717
f 667/667 717/717 716/716
f 668/668 669/669 718/718
f 668/668 718/718 717/717
f 669/669 670/670 719/719
f 669/669 719/719 718/718
f 670/670 671/671 720/720
f 670/670 720/720 719/719
f 671/671 672/672 721/721
f 671/671 721/721 720/720
f 672/672 673/673 722/722
f 672/672 722/722 721/721
f 673/673 674/674 723/723
f 673/673 723/723 722/722
f 674/674 675/675 724/724
f 674/674 724/724 723/723
f 675/675 676/676 725/725
f 675/675 725/725 724/724
f 676/676 677/677 726/726
f 676/676 726/726 725/725
f 677/677 678/678 727/727
f 677/677 727/727 726/726
f 678/678 679/679 728/728
f 678/678 728/728 727/727
f 679/679 680/680 729/729
f 679/679 729/729 728/728
f 680/680 681/681 730/730
f 680/680 730/730 729/729
f 681/681 682/682 731/731
f 681/681 731/731 730/730
f 682/682 683/683 732/732
f 682/682 732/732 731/731
f 683/683 684/684 733/733
f 683/683 733/733 732/732
f 684/684 685/685 734/734
f 684/684 734/734 733/733
f 685/685 686/686 735/735
f 685/685 735/735 734/734
f 687/687 688/688 737/737
f 687/687 737/737 736/736
f 688/688 689/689 738/738
f 688/688 738/738 737/737
f 689/689 690/690 739/739
f 689/689 739/739 738/738
f 690/690 691/691 740/740
f 690/690 740/740 739/739
f 691/691 692/692 741/741
f 691/691 741/741 740/740
f 692/692 693/693 742/742
f 692/692 742/742 741/741
f 693/693 694/694 743/743
f 693/693 743/743 742/742
f 694/694 695/695 744/744
f 694/694 744/744 743/743
f 695/695 696/696 745/745
f 695/695 745/745 744/744
f 696/696 697/697 746/746
f 696/696 746/746 745/745
f 697/697 698/698 747/747
f 697/697 747/747 746/746
f 698/698 699/699 748/748
f 698/698 748/748 747/747
f 699/699 700/700 749/749
f 699/699 749/749 748/748
f 700/700 701/701 750/750
f 700/700 750/750 749/749
f 701/701 702/702 751/751
f 701/701 751/751 750/750
f 702/702 703/703 752/752
f 702/702 752/752 751/751
f 703/703 704/704 753/753
f 703/703 753/753 752/752
f 704/704 705/705 754/754
f 704/704 754/754 753/753
f 705/705 706/706 755/755
f 705/705 755/755 754/754
f 706/706 707/707 756/756
f 706/706 756/756 755/755
f 707/707 708/708 757/757
f 707/707 757/757 756/756
f 708/708 709/709 758/758
f 708/708 758/758 757/757
f 709/709 710/710 759/759
f 709/709 759/759 758/758
f 710/710 711/711 760/760
f 710/710 760/760 759/759
f 711/711 712/712 761/761
f 711/711 761/761 760/760
f 712/712 713/713 762/762
f 712/712 762/762 761/761
f 713/713 714/714 763/763
f 713/713 763/763 762/762
f 714/714 715/715 764/764
f 714/714 764/764 763/763
f 715/715 716/716 765/765
f 715/715 765/765 764/764
f 716/716 717/717 766/766
f 716/716 766/766 765/765
f 717/717 718/718 767/767
f 717/717 767/767 766/766
f 718/718 719/719 768/768
f 718/718 768/768 767/767
f 719/719 720/720 769/769
f 719/719 769/769 768/768
f 720/720 721/721 770/770
f 720/720 770/770 769/769
f 721/721 722/722 771/771
f 721/721 771/771 770/770
f 722/722 723/723 772/772
f 722/722 772/772 771/771
f 723/723 724/724 773/773
f 723/723 773/773 772/772
f 724/724 725/725 774/774
f 724/724 774/774 773/773
f 725/725 726/726 775/775
f 725/725 775/775 774/774
f 726/726 727/727 776/776
f 726/726 776/776 775/775
f 727/727 728/728 777/777
f 727/727 777/777 776/776
f 728/728 729/729 778/778
f 728/728 778/778 777/777
f 729/729 730/730 779/779
f 729/729 779/779 778/778
f 730/730 731/731 780/780
f 730/730 780/780 779/779
f 731/731 732/732 781/781
f 731/731 781/781 780/780
f 732/732 733/733 782/782
f 732/732 782/782 781/781
f 733/733 734/734 783/783
f 733/733 783/783 782/782
f 734/734 735/735 784/784
f 734/734 784/784 783/783
f 736/736 737/737 786/786
f 736/736 786/786 785/785
f 737/737 738/738 787/787
f 737/737 787/787 786/786
f 738/738 739/739 788/788
f 738/738 788/788 787/787
f 739/739 740/740 789/789
f 739/739 789/789 788/788
f 740/740 741/741 790/790
f 740/740 790/790 789/789
f 741/741 742/742 791/791
f 741/741 791/791 790/790
f 742/742 743/743 792/792
f 742/742 792/792 791/791
f 743/743 744/744 793/793
f 743/743 793/793 792/792
f 744/744 745/745 794/794
f 744/744 794/794 793/793
f 745/745 746/746 795/795
f 745/745 795/795 794/794
f 746/746 747/747 796/796
f 746/746 796/796 795/795
f 747/747 748/748 797/797
f 747/747 797/797 796/796
f 748/748 749/749 798/798
f 748/748 798/798 797/797
f 749/749 750/750 799/799
f 749/749 799/799 798/798
f 750/750 751/751 800/800
f 750/750 800/800 799/799
f 751/751 752/752 801/801
f 751/751 801/801 800/800
f 752/752 753/753 802/802
f 752/752 802/802 801/801
f 753/753 754/754 803/803
f 753/753 803/803 802/802
f 754/754 755/755 804/804
f 754/754 804/804 803/803
f 755/755 756/756 805/805
f 755/755 805/805 804/804
f 756/756 757/757 806/806
f 756/756 806/806 805/805
f 757/757 758/758 807/807
f 757/757 807/807 806/806
f 758/758 759/759 808/808
f 758/758 808/808 807/807
f 759/759 760/760 809/809
f 759/759 809/809 808/808
f 760/760 761/761 810/810
f 760/760 810/810 809/809
f 761/761 762/762 811/811
f 761/761 811/811 810/810
f 762/762 763/763 812/812
f 762/762 812/812 811/811
f 763/763 764/764 813/813
f 763/763 813/813 812/812
f 764/764 765/765 814/814
f 764/764 814/814 813/813
f 765/765 766/766 815/815
f 765/765 815/815 814/814
f 766/766 767/767 816/816
f 766/766 816/816 815/815
f 767/767 768/768 817/817
f 767/767 817/817 816/816
f 768/768 769/769 818/818
f 768/768 818/818 817/817
f 769/769 770/770 819/819
f 769/769 819/819 818/818
f 770/770 771/771 820/820
f 770/770 820/820 819/819
f 771/771 772/772 821/821
f 771/771 821/821 820/820
f 772/772 773/773 822/822
f 772/772 822/822 821/821
f 773/773 774/774 823/823
f 773/773 823/823 822/822
f 774/774 775/775 824/824
f 774/774 824/824 823/823
f 775/775 776/776 825/825
f 775/775 825/825 824/824
f 776/776 777/777 826/826
f 776/776 826/826 825/825
f 777/777 778/778 827/827
f 777/777 827/827 826/826
f 778/778 779/779 828/828
f 778/778 828/828 827/827
f 779/779 780/780 829/829
f 779/779 829/829 828/828
f 780/780 781/781 830/830
f 780/780 830/830 829/829
f 781/781 782/782 831/831
f 781/781 831/831 830/830
f 782/782 783/783 832/832
f 782/782 832/832 831/831
f 783/783 784/784 833/833
f 783/783 833/833 832/832
f 785/785 786/786 835/835
f 785/785 835/835 834/834
f 786/786 787/787 836/836
f 786/786 836/836 835/835
f 787/787 788/788 837/837
f 787/787 837/837 836/836
f 788/788 789/789 838/838
f 788/788 838/838 837/837
f 789/789 790/790 839/839
f 789/789 839/839 838/838
f 790/790 791/791 840/840
f 790/790 840/840 839/839
f 791/791 792/792 841/841
f 791/791 841/841 840/840
f 792/792 793/793 842/842
f 792/792 842/842 841/841
f 793/793 794/794 843/843
f 793/793 843/843 842/842
f 794/794 795/795 844/844
f 794/794 844/844 843/843
f 795/795 796/796 845/845
f 795/795 845/845 844/844
f 796/796 797/797 846/846
f 796/796 846/846 845/845
f 797/797 798/798 847/847
f 797/797 847/847 846/846
f 798/798 799/799 848/848
f 798/798 848/848 847/847
f 799/799 800/800 849/849
f 799/799 849/849 848/848
f 800/800 801/801 850/850
f 800/800 850/850 849/849
f 801/801 802/802 851/851
f 801/801 851/851 850/850
f 802/802 803/803 852/852
f 802/802 852/852 851/851
f 803/803 804/804 853/853
f 803/803 853/853 852/852
f 804/804 805/805 854/854
f 804/804 854/854 853/853
f 805/805 806/806 855/855
f 805/805 855/855 854/854
f 806/806 807/807 856/856
f 806/806 856/856 855/855
f 807/807 808/808 857/857
f 807/807 857/857 856/856
f 808/808 809/809 858/858
f 808/808 858/858 857/857
f 809/809 810/810 859/859
f 809/809 859/859 858/858
f 810/810 811/811 860/860
f 810/810 860/860 859/859
f 811/811 812/812 861/861
f 811/811 861/861 860/860
f 812/812 813/813 862/862
f 812/812 862/862 861/861
f 813/813 814/814 863/863
f 813/813 863/863 862/862
f 814/814 815/815 864/864
f 814/814 864/864 863/863
f 815/815 816/816 865/865
f 815/815 865/865 864/864
f 816/816 817/817 866/866
f 816/816 866/866 865/865
f 817/817 818/818 867/867
f 817/817 867/867 866/866
f 818/818 819/819 868/868
f 818/818 868/868 867/867
f 819/819 820/820 869/869
f 819/819 869/869 868/868
f 820/820 821/821 870/870
f 820/820 870/870 869/869
f 821/821 822/822 871/871
f 821/821 871/871 870/870
f 822/822 823/823 872/872
f 822/822 872/872 871/871
f 823/823 824/824 873/873
f 823/823 873/873 872/872
f 824/824 825/825 874/874
f 824/824 874/874 873/873
f 825/825 826/826 875/875
f 825/825 875/875 874/874
f 826/826 827/827 876/876
f 826/826 876/876 875/875
f 827/827 828/828 877/877
f 827/827 877/877 876/876
f 828/828 829/829 878/878
f 828/828 878/878 877/877
f 829/829 830/830 879/879
f 829/829 879/879 878/878
f 830/830 831/831 880/880
f 830/830 880/880 879/879
f 831/831 832/832 881/881
f 831/831 881/881 880/880
f 832/832 833/833 882/882
f 832/832 882/882 881/881
f 834/834 835/835 884/884
f 834/834 884/884 883/883
f 835/835 836/836 885/885
f 835/835 885/885 884/884
f 836/836 837/837 886/886
f 836/836 886/886 885/885
f 837/837 838/838 887/887
f 837/837 887/887 886/886
f 838/838 839/839 888/888
f 838/838 888/888 887/887
f 839/839 840/840 889/889
f 839/839 889/889 888/888
f 840/840 841/841 890/890
f 840/840 890/890 889/889
f 841/841 842/842 891/891
f 841/841 891/891 890/890
f 842/842 843/843 892/892
f 842/842 892/892 891/891
f 843/843 844/844 893/893
f 843/843 893/893 892/892
f 844/844 845/845 894/894
f 844/844 894/894 893/893
f 845/845 846/846 895/895
f 845/845 895/895 894/894
f 846/846 847/847 896/896
f 846/846 896/896 895/895
f 847/847 848/848 897/897
f 847/847 897/897 896/896
f 848/848 849/849 898/898
f 848/848 898/898 897/897
f 849/849 850/850 899/899
f 849/849 899/899 898/898
f 850/850 851/851 900/900
f 850/850 900/900 899/899
f 851/851 852/852 901/901
f 851/851 901/901 900/900
f 852/852 853/853 902/902
f 852/852 902/902 901/901
f 853/853 854/854 903/903
f 853/853 903/903 902/902
f 854/854 855/855 904/904
f 854/854 904/904 903/903
f 855/855 856/856 905/905
f 855/855 905/905 904/904
f 856/856 857/857 906/906
f 856/856 906/906 905/905
f 857/857 858/858 907/907
f 857/857 907/907 906/906
f 858/858 859/859 908/908
f 858/858 908/908 907/907
f 859/859 860/860 909/909
f 859/859 909/909 908/908
f 860/860 861/861 910/910
f 860/860 910/910 909/909
f 861/861 862/862 911/911
f 861/861 911/911 910/910
f 862/862 863/863 912/912
f 862/862 912/912 911/911
f 863/863 864/864 913/913
f 863/863 913/913 912/912
f 864/864 865/865 914/914
f 864/864 914/914 913/913
f 865/865 866/866 915/915
f 865/865 915/915 914/914
f 866/866 867/867 916/916
f 866/866 916/916 915/915
f 867/867 868/868 917/917
f 867/867 917/917 916/916
f 868/868 869/869 918/918
f 868/868 918/918 917/917
f 869/869 870/870 919/919
f 869/869 919/919 918/918
f 870/870 871/871 920/920
f 870/870 920/920 919/919
f 871/871 872/872 921/921
f 871/871 921/921 920/920
f 872/872 873/873 922/922
f 872/872 922/922 921/921
f 873/873 874/874 923/923
f 873/873 923/923 922/922
f 874/874 875/875 924/924
f 874/874 924/924 923/923
f 875/875 876/876 925/925
f 875/875 925/925 924/924
f 876/876 877/877 926/926
f 876/876 926/926 925/925
f 877/877 878/878 927/927
f 877/877 927/927 926/926
f 878/878 879/879 928/928
f 878/878 928/928 927/927
f 879/879 880/880 929/929
f 879/879 929/929 928/928
f 880/880 881/881 930/930
f 880/880 930/930 929/929
f 881/881 882/882 931/931
f 881/881 931/931 930/930
f 883/883 884/884 933/933
f 883/883 933/933 932/932
f 884/884 885/885 934/934
f 884/884 934/934 933/933
f 885/885 886/886 935/935
f 885/885 935/935 934/934
f 886/886 887/887 936/936
f 886/886 936/936 935/935
f 887/887 888/888 937/937
f 887/887 937/937 936/936
f 888/888 889/889 938/938
f 888/888 938/938 937/937
f 889/889 890/890 939/939
f 889/889 939/939 938/938
f 890/890 891/891 940/940
f 890/890 940/940 939/939
f 891/891 892/892 941/941
f 891/891 941/941 940/940
f 892/892 893/893 942/942
f 892/892 942/942 941/941
f 893/893 894/894 943/943
f 893/893 943/943 942/942
f 894/894 895/895 944/944
f 894/894 944/944 943/943
f 895/895 896/896 945/945
f 895/895 945/945 944/944
f 896/896 897/897 946/946
f 896/896 946/946 945/945
f 897/897 898/898 947/947
f 897/897 947/947 946/946
f 898/898 899/899 948/948
f 898/898 948/948 947/947
f 899/899 900/900 949/949
f 899/899 949/949 948/948
f 900/900 901/901 950/950
f 900/900 950/950 949/949
f 901/901 902/902 951/951
f 901/901 951/951 950/950
f 902/902 903/903 952/952
f 902/902 952/952 951/951
f 903/903 904/904 953/953
f 903/903 953/953 952/952
f 904/904 905/905 954/954
f 904/904 954/954 953/953
f 905/905 906/906 955/955
f 905/905 955/955 954/954
f 906/906 907/907 956/956
f 906/906 956/956 955/955
f 907/907 908/908 957/957
f 907/907 957/957 956/956
f 908/908 909/909 958/958
f 908/908 958/958 957/957
f 909/909 910/910 959/959
f 909/909 959/959 958/958
f 910/910 911/911 960/960
f 910/910 960/960 959/959
f 911/911 912/912 961/961
f 911/911 961/961 960/960
f 912/912 913/913 962/962
f 912/912 962/962 961/961
f 913/913 914/914 963/963
f 913/913 963/963 962/962
f 914/914 915/915 964/964
f 914/914 964/964 963/963
f 915/915 916/916 965/965
f 915/915 965/965 964/964
f 916/916 917/917 966/966
f 916/916 966/966 965/965
f 917/917 918/918 967/967
f 917/917 967/967 966/966
f 918/918 919/919 968/968
f 918/918 968/968 967/967
f 919/919 920/920 969/969
f 919/919 969/969 968/968
f 920/920 921/921 970/970
f 920/920 970/970 969/969
f 921/921 922/922 971/971
f 921/921 971/971 970/970
f 922/922 923/923 972/972
f 922/922 972/972 971/971
f 923/923 924/924 973/973
f 923/923 973/973 972/972
f 924/924 925/925 974/974
f 924/924 974/974 973/973
f 925/925 926/926 975/975
f 925/925 975/975 974/974
f 926/926 927/927 976/976
f 926/926 976/976 975/975
f 927/927 928/928 977/977
f 927/927 977/977 976/976
f 928/928 929/929 978/978
f 928/928 978/978 977/977
f 929/929 930/930 979/979
f 929/929 979/979 978/978
f 930/930 931/931 980/980
f 930/930 980/980 979/979
f 932/932 933/933 982/982
f 933/933 934/934 983/983
f 934/934 935/935 984/984
f 935/935 936/936 985/985
f 936/936 937/937 986/986
f 937/937 938/938 987/987
f 938/938 939/939 988/988
f 939/939 940/940 989/989
f 940/940 941/941 990/990
f 941/941 942/942 991/991
f 942/942 943/943 992/992
f 943/943 944/944 993/993
f 944/944 945/945 994/994
f 945/945 946/946 995/995
f 946/946 947/947 996/996
f 947/947 948/948 997/997
f 948/948 949/949 998/998
f 949/949 950/950 999/999
f 950/950 951/951 1000/1000
f 951/951 952/952 1001/1001
f 952/952 953/953 1002/1002
f 953/953 954/954 1003/1003
f 954/954 955/955 1004/1004
f 955/955 956/956 1005/1005
f 956/956 957/957 1006/1006
f 957/957 958/958 1007/1007
f 958/958 959/959 1008/1008
f 959/959 960/960 1009/1009
f 960/960 961/961 1010/1010
f 961/961 962/962 1011/1011
f 962/962 963/963 1012/1012
f 963/963 964/964 1013/1013
f 964/964 965/965 1014/1014
f 965/965 966/966 1015/1015
f 966/966 967/967 1016/1016
f 967/967 968/968 1017/1017
f 968/968 969/969 1018/1018
f 969/969 970/970 1019/1019
f 970/970 971/971 1020/1020
f 971/971 972/972 1021/1021
f 972/972 973/973 1022/1022
f 973/973 974/974 1023/1023
f 974/974 975/975 1024/1024
f 975/975 976/976 1025/1025
f 976/976 977/977 1026/1026
f 977/977 978/978 1027/1027
f 978/978 979/979 1028/1028
f 979/979 980/980 1029/1029
